<?xml version="1.0" encoding="utf-8" standalone="no"?>
<!DOCTYPE svg PUBLIC "-//W3C//DTD SVG 1.1//EN"
  "http://www.w3.org/Graphics/SVG/1.1/DTD/svg11.dtd">
<!-- Created with matplotlib (https://matplotlib.org/) -->
<svg height="360pt" version="1.1" viewBox="0 0 1440 360" width="1440pt" xmlns="http://www.w3.org/2000/svg" xmlns:xlink="http://www.w3.org/1999/xlink">
 <defs>
  <style type="text/css">
*{stroke-linecap:butt;stroke-linejoin:round;}
  </style>
 </defs>
 <g id="figure_1">
  <g id="patch_1">
   <path d="M 0 360 
L 1440 360 
L 1440 0 
L 0 0 
z
" style="fill:#ffffff;"/>
  </g>
  <g id="axes_1">
   <g id="patch_2">
    <path d="M 49.068485 282.230334 
L 1429.2 282.230334 
L 1429.2 10.8 
L 49.068485 10.8 
z
" style="fill:#ffffff;"/>
   </g>
   <g id="patch_3">
    <path clip-path="url(#p2b82aa208a)" d="M 64.234765 84299.27921 
L 76.367789 84299.27921 
L 76.367789 121.888064 
L 64.234765 121.888064 
z
" style="fill:#ff0000;stroke:#ffffff;stroke-linejoin:miter;"/>
   </g>
   <g id="patch_4">
    <path clip-path="url(#p2b82aa208a)" d="M 140.066167 84299.27921 
L 152.199191 84299.27921 
L 152.199191 131.776459 
L 140.066167 131.776459 
z
" style="fill:#ff0000;stroke:#ffffff;stroke-linejoin:miter;"/>
   </g>
   <g id="patch_5">
    <path clip-path="url(#p2b82aa208a)" d="M 215.897569 84299.27921 
L 228.030593 84299.27921 
L 228.030593 120.418802 
L 215.897569 120.418802 
z
" style="fill:#ff0000;stroke:#ffffff;stroke-linejoin:miter;"/>
   </g>
   <g id="patch_6">
    <path clip-path="url(#p2b82aa208a)" d="M 291.728971 84299.27921 
L 303.861995 84299.27921 
L 303.861995 135.374929 
L 291.728971 135.374929 
z
" style="fill:#ff0000;stroke:#ffffff;stroke-linejoin:miter;"/>
   </g>
   <g id="patch_7">
    <path clip-path="url(#p2b82aa208a)" d="M 367.560373 84299.27921 
L 379.693397 84299.27921 
L 379.693397 121.980943 
L 367.560373 121.980943 
z
" style="fill:#ff0000;stroke:#ffffff;stroke-linejoin:miter;"/>
   </g>
   <g id="patch_8">
    <path clip-path="url(#p2b82aa208a)" d="M 443.391775 84299.27921 
L 455.524799 84299.27921 
L 455.524799 103.99267 
L 443.391775 103.99267 
z
" style="fill:#ff0000;stroke:#ffffff;stroke-linejoin:miter;"/>
   </g>
   <g id="patch_9">
    <path clip-path="url(#p2b82aa208a)" d="M 519.223177 84299.27921 
L 531.356201 84299.27921 
L 531.356201 82.145704 
L 519.223177 82.145704 
z
" style="fill:#ff0000;stroke:#ffffff;stroke-linejoin:miter;"/>
   </g>
   <g id="patch_10">
    <path clip-path="url(#p2b82aa208a)" d="M 595.054579 84299.27921 
L 607.187603 84299.27921 
L 607.187603 80.6641 
L 595.054579 80.6641 
z
" style="fill:#ff0000;stroke:#ffffff;stroke-linejoin:miter;"/>
   </g>
   <g id="patch_11">
    <path clip-path="url(#p2b82aa208a)" d="M 670.885981 84299.27921 
L 683.019005 84299.27921 
L 683.019005 128.537384 
L 670.885981 128.537384 
z
" style="fill:#ff0000;stroke:#ffffff;stroke-linejoin:miter;"/>
   </g>
   <g id="patch_12">
    <path clip-path="url(#p2b82aa208a)" d="M 746.717383 84299.27921 
L 758.850407 84299.27921 
L 758.850407 98.114989 
L 746.717383 98.114989 
z
" style="fill:#ff0000;stroke:#ffffff;stroke-linejoin:miter;"/>
   </g>
   <g id="patch_13">
    <path clip-path="url(#p2b82aa208a)" d="M 822.548785 84299.27921 
L 834.681809 84299.27921 
L 834.681809 88.582498 
L 822.548785 88.582498 
z
" style="fill:#ff0000;stroke:#ffffff;stroke-linejoin:miter;"/>
   </g>
   <g id="patch_14">
    <path clip-path="url(#p2b82aa208a)" d="M 898.380186 84299.27921 
L 910.513211 84299.27921 
L 910.513211 95.408901 
L 898.380186 95.408901 
z
" style="fill:#ff0000;stroke:#ffffff;stroke-linejoin:miter;"/>
   </g>
   <g id="patch_15">
    <path clip-path="url(#p2b82aa208a)" d="M 974.211588 84299.27921 
L 986.344613 84299.27921 
L 986.344613 72.959023 
L 974.211588 72.959023 
z
" style="fill:#ff0000;stroke:#ffffff;stroke-linejoin:miter;"/>
   </g>
   <g id="patch_16">
    <path clip-path="url(#p2b82aa208a)" d="M 1050.04299 84299.27921 
L 1062.176015 84299.27921 
L 1062.176015 75.464932 
L 1050.04299 75.464932 
z
" style="fill:#ff0000;stroke:#ffffff;stroke-linejoin:miter;"/>
   </g>
   <g id="patch_17">
    <path clip-path="url(#p2b82aa208a)" d="M 1125.874392 84299.27921 
L 1138.007417 84299.27921 
L 1138.007417 59.729317 
L 1125.874392 59.729317 
z
" style="fill:#ff0000;stroke:#ffffff;stroke-linejoin:miter;"/>
   </g>
   <g id="patch_18">
    <path clip-path="url(#p2b82aa208a)" d="M 1201.705794 84299.27921 
L 1213.838819 84299.27921 
L 1213.838819 62.616495 
L 1201.705794 62.616495 
z
" style="fill:#ff0000;stroke:#ffffff;stroke-linejoin:miter;"/>
   </g>
   <g id="patch_19">
    <path clip-path="url(#p2b82aa208a)" d="M 1277.537196 84299.27921 
L 1289.67022 84299.27921 
L 1289.67022 57.925007 
L 1277.537196 57.925007 
z
" style="fill:#ff0000;stroke:#ffffff;stroke-linejoin:miter;"/>
   </g>
   <g id="patch_20">
    <path clip-path="url(#p2b82aa208a)" d="M 1353.368598 84299.27921 
L 1365.501622 84299.27921 
L 1365.501622 51.760603 
L 1353.368598 51.760603 
z
" style="fill:#ff0000;stroke:#ffffff;stroke-linejoin:miter;"/>
   </g>
   <g id="patch_21">
    <path clip-path="url(#p2b82aa208a)" d="M 76.367789 84299.27921 
L 88.500814 84299.27921 
L 88.500814 183.914378 
L 76.367789 183.914378 
z
" style="fill:#0000ff;stroke:#ffffff;stroke-linejoin:miter;"/>
   </g>
   <g id="patch_22">
    <path clip-path="url(#p2b82aa208a)" d="M 152.199191 84299.27921 
L 164.332216 84299.27921 
L 164.332216 160.614011 
L 152.199191 160.614011 
z
" style="fill:#0000ff;stroke:#ffffff;stroke-linejoin:miter;"/>
   </g>
   <g id="patch_23">
    <path clip-path="url(#p2b82aa208a)" d="M 228.030593 84299.27921 
L 240.163618 84299.27921 
L 240.163618 137.710747 
L 228.030593 137.710747 
z
" style="fill:#0000ff;stroke:#ffffff;stroke-linejoin:miter;"/>
   </g>
   <g id="patch_24">
    <path clip-path="url(#p2b82aa208a)" d="M 303.861995 84299.27921 
L 315.99502 84299.27921 
L 315.99502 119.303332 
L 303.861995 119.303332 
z
" style="fill:#0000ff;stroke:#ffffff;stroke-linejoin:miter;"/>
   </g>
   <g id="patch_25">
    <path clip-path="url(#p2b82aa208a)" d="M 379.693397 84299.27921 
L 391.826422 84299.27921 
L 391.826422 79.227556 
L 379.693397 79.227556 
z
" style="fill:#0000ff;stroke:#ffffff;stroke-linejoin:miter;"/>
   </g>
   <g id="patch_26">
    <path clip-path="url(#p2b82aa208a)" d="M 455.524799 84299.27921 
L 467.657823 84299.27921 
L 467.657823 62.549354 
L 455.524799 62.549354 
z
" style="fill:#0000ff;stroke:#ffffff;stroke-linejoin:miter;"/>
   </g>
   <g id="patch_27">
    <path clip-path="url(#p2b82aa208a)" d="M 531.356201 84299.27921 
L 543.489225 84299.27921 
L 543.489225 32.194489 
L 531.356201 32.194489 
z
" style="fill:#0000ff;stroke:#ffffff;stroke-linejoin:miter;"/>
   </g>
   <g id="patch_28">
    <path clip-path="url(#p2b82aa208a)" d="M 607.187603 84299.27921 
L 619.320627 84299.27921 
L 619.320627 23.137742 
L 607.187603 23.137742 
z
" style="fill:#0000ff;stroke:#ffffff;stroke-linejoin:miter;"/>
   </g>
   <g id="patch_29">
    <path clip-path="url(#p2b82aa208a)" d="M 683.019005 84299.27921 
L 695.152029 84299.27921 
L 695.152029 152.174001 
L 683.019005 152.174001 
z
" style="fill:#0000ff;stroke:#ffffff;stroke-linejoin:miter;"/>
   </g>
   <g id="patch_30">
    <path clip-path="url(#p2b82aa208a)" d="M 758.850407 84299.27921 
L 770.983431 84299.27921 
L 770.983431 130.479162 
L 758.850407 130.479162 
z
" style="fill:#0000ff;stroke:#ffffff;stroke-linejoin:miter;"/>
   </g>
   <g id="patch_31">
    <path clip-path="url(#p2b82aa208a)" d="M 834.681809 84299.27921 
L 846.814833 84299.27921 
L 846.814833 105.932513 
L 834.681809 105.932513 
z
" style="fill:#0000ff;stroke:#ffffff;stroke-linejoin:miter;"/>
   </g>
   <g id="patch_32">
    <path clip-path="url(#p2b82aa208a)" d="M 910.513211 84299.27921 
L 922.646235 84299.27921 
L 922.646235 77.9843 
L 910.513211 77.9843 
z
" style="fill:#0000ff;stroke:#ffffff;stroke-linejoin:miter;"/>
   </g>
   <g id="patch_33">
    <path clip-path="url(#p2b82aa208a)" d="M 986.344613 84299.27921 
L 998.477637 84299.27921 
L 998.477637 64.885691 
L 986.344613 64.885691 
z
" style="fill:#0000ff;stroke:#ffffff;stroke-linejoin:miter;"/>
   </g>
   <g id="patch_34">
    <path clip-path="url(#p2b82aa208a)" d="M 1062.176015 84299.27921 
L 1074.309039 84299.27921 
L 1074.309039 34.236441 
L 1062.176015 34.236441 
z
" style="fill:#0000ff;stroke:#ffffff;stroke-linejoin:miter;"/>
   </g>
   <g id="patch_35">
    <path clip-path="url(#p2b82aa208a)" d="M 1138.007417 84299.27921 
L 1150.140441 84299.27921 
L 1150.140441 180.857522 
L 1138.007417 180.857522 
z
" style="fill:#0000ff;stroke:#ffffff;stroke-linejoin:miter;"/>
   </g>
   <g id="patch_36">
    <path clip-path="url(#p2b82aa208a)" d="M 1213.838819 84299.27921 
L 1225.971843 84299.27921 
L 1225.971843 139.784279 
L 1213.838819 139.784279 
z
" style="fill:#0000ff;stroke:#ffffff;stroke-linejoin:miter;"/>
   </g>
   <g id="patch_37">
    <path clip-path="url(#p2b82aa208a)" d="M 1289.67022 84299.27921 
L 1301.803245 84299.27921 
L 1301.803245 98.081202 
L 1289.67022 98.081202 
z
" style="fill:#0000ff;stroke:#ffffff;stroke-linejoin:miter;"/>
   </g>
   <g id="patch_38">
    <path clip-path="url(#p2b82aa208a)" d="M 1365.501622 84299.27921 
L 1377.634647 84299.27921 
L 1377.634647 147.58427 
L 1365.501622 147.58427 
z
" style="fill:#0000ff;stroke:#ffffff;stroke-linejoin:miter;"/>
   </g>
   <g id="patch_39">
    <path clip-path="url(#p2b82aa208a)" d="M 88.500814 84299.27921 
L 100.633838 84299.27921 
L 100.633838 265.351648 
L 88.500814 265.351648 
z
" style="fill:#bfbf00;stroke:#ffffff;stroke-linejoin:miter;"/>
   </g>
   <g id="patch_40">
    <path clip-path="url(#p2b82aa208a)" d="M 164.332216 84299.27921 
L 176.46524 84299.27921 
L 176.46524 246.290701 
L 164.332216 246.290701 
z
" style="fill:#bfbf00;stroke:#ffffff;stroke-linejoin:miter;"/>
   </g>
   <g id="patch_41">
    <path clip-path="url(#p2b82aa208a)" d="M 240.163618 84299.27921 
L 252.296642 84299.27921 
L 252.296642 205.875899 
L 240.163618 205.875899 
z
" style="fill:#bfbf00;stroke:#ffffff;stroke-linejoin:miter;"/>
   </g>
   <g id="patch_42">
    <path clip-path="url(#p2b82aa208a)" d="M 315.99502 84299.27921 
L 328.128044 84299.27921 
L 328.128044 202.085522 
L 315.99502 202.085522 
z
" style="fill:#bfbf00;stroke:#ffffff;stroke-linejoin:miter;"/>
   </g>
   <g id="patch_43">
    <path clip-path="url(#p2b82aa208a)" d="M 391.826422 84299.27921 
L 403.959446 84299.27921 
L 403.959446 180.103356 
L 391.826422 180.103356 
z
" style="fill:#bfbf00;stroke:#ffffff;stroke-linejoin:miter;"/>
   </g>
   <g id="patch_44">
    <path clip-path="url(#p2b82aa208a)" d="M 467.657823 84299.27921 
L 479.790848 84299.27921 
L 479.790848 160.302746 
L 467.657823 160.302746 
z
" style="fill:#bfbf00;stroke:#ffffff;stroke-linejoin:miter;"/>
   </g>
   <g id="patch_45">
    <path clip-path="url(#p2b82aa208a)" d="M 543.489225 84299.27921 
L 555.62225 84299.27921 
L 555.62225 162.865152 
L 543.489225 162.865152 
z
" style="fill:#bfbf00;stroke:#ffffff;stroke-linejoin:miter;"/>
   </g>
   <g id="patch_46">
    <path clip-path="url(#p2b82aa208a)" d="M 619.320627 84299.27921 
L 631.453652 84299.27921 
L 631.453652 136.450785 
L 619.320627 136.450785 
z
" style="fill:#bfbf00;stroke:#ffffff;stroke-linejoin:miter;"/>
   </g>
   <g id="patch_47">
    <path clip-path="url(#p2b82aa208a)" d="M 695.152029 84299.27921 
L 707.285054 84299.27921 
L 707.285054 180.021112 
L 695.152029 180.021112 
z
" style="fill:#bfbf00;stroke:#ffffff;stroke-linejoin:miter;"/>
   </g>
   <g id="patch_48">
    <path clip-path="url(#p2b82aa208a)" d="M 770.983431 84299.27921 
L 783.116456 84299.27921 
L 783.116456 181.374747 
L 770.983431 181.374747 
z
" style="fill:#bfbf00;stroke:#ffffff;stroke-linejoin:miter;"/>
   </g>
   <g id="patch_49">
    <path clip-path="url(#p2b82aa208a)" d="M 846.814833 84299.27921 
L 858.947857 84299.27921 
L 858.947857 154.320662 
L 846.814833 154.320662 
z
" style="fill:#bfbf00;stroke:#ffffff;stroke-linejoin:miter;"/>
   </g>
   <g id="patch_50">
    <path clip-path="url(#p2b82aa208a)" d="M 922.646235 84299.27921 
L 934.779259 84299.27921 
L 934.779259 139.168725 
L 922.646235 139.168725 
z
" style="fill:#bfbf00;stroke:#ffffff;stroke-linejoin:miter;"/>
   </g>
   <g id="patch_51">
    <path clip-path="url(#p2b82aa208a)" d="M 998.477637 84299.27921 
L 1010.610661 84299.27921 
L 1010.610661 130.603965 
L 998.477637 130.603965 
z
" style="fill:#bfbf00;stroke:#ffffff;stroke-linejoin:miter;"/>
   </g>
   <g id="patch_52">
    <path clip-path="url(#p2b82aa208a)" d="M 1074.309039 84299.27921 
L 1086.442063 84299.27921 
L 1086.442063 131.874314 
L 1074.309039 131.874314 
z
" style="fill:#bfbf00;stroke:#ffffff;stroke-linejoin:miter;"/>
   </g>
   <g id="patch_53">
    <path clip-path="url(#p2b82aa208a)" d="M 1150.140441 84299.27921 
L 1162.273465 84299.27921 
L 1162.273465 164.806414 
L 1150.140441 164.806414 
z
" style="fill:#bfbf00;stroke:#ffffff;stroke-linejoin:miter;"/>
   </g>
   <g id="patch_54">
    <path clip-path="url(#p2b82aa208a)" d="M 1225.971843 84299.27921 
L 1238.104867 84299.27921 
L 1238.104867 159.794015 
L 1225.971843 159.794015 
z
" style="fill:#bfbf00;stroke:#ffffff;stroke-linejoin:miter;"/>
   </g>
   <g id="patch_55">
    <path clip-path="url(#p2b82aa208a)" d="M 1301.803245 84299.27921 
L 1313.936269 84299.27921 
L 1313.936269 157.634844 
L 1301.803245 157.634844 
z
" style="fill:#bfbf00;stroke:#ffffff;stroke-linejoin:miter;"/>
   </g>
   <g id="patch_56">
    <path clip-path="url(#p2b82aa208a)" d="M 1377.634647 84299.27921 
L 1389.767671 84299.27921 
L 1389.767671 152.402541 
L 1377.634647 152.402541 
z
" style="fill:#bfbf00;stroke:#ffffff;stroke-linejoin:miter;"/>
   </g>
   <g id="patch_57">
    <path clip-path="url(#p2b82aa208a)" d="M 100.633838 84299.27921 
L 112.766862 84299.27921 
L 112.766862 269.892591 
L 100.633838 269.892591 
z
" style="fill:#008000;stroke:#ffffff;stroke-linejoin:miter;"/>
   </g>
   <g id="patch_58">
    <path clip-path="url(#p2b82aa208a)" d="M 176.46524 84299.27921 
L 188.598264 84299.27921 
L 188.598264 217.017432 
L 176.46524 217.017432 
z
" style="fill:#008000;stroke:#ffffff;stroke-linejoin:miter;"/>
   </g>
   <g id="patch_59">
    <path clip-path="url(#p2b82aa208a)" d="M 252.296642 84299.27921 
L 264.429666 84299.27921 
L 264.429666 191.010644 
L 252.296642 191.010644 
z
" style="fill:#008000;stroke:#ffffff;stroke-linejoin:miter;"/>
   </g>
   <g id="patch_60">
    <path clip-path="url(#p2b82aa208a)" d="M 328.128044 84299.27921 
L 340.261068 84299.27921 
L 340.261068 198.229464 
L 328.128044 198.229464 
z
" style="fill:#008000;stroke:#ffffff;stroke-linejoin:miter;"/>
   </g>
   <g id="patch_61">
    <path clip-path="url(#p2b82aa208a)" d="M 403.959446 84299.27921 
L 416.09247 84299.27921 
L 416.09247 180.391148 
L 403.959446 180.391148 
z
" style="fill:#008000;stroke:#ffffff;stroke-linejoin:miter;"/>
   </g>
   <g id="patch_62">
    <path clip-path="url(#p2b82aa208a)" d="M 479.790848 84299.27921 
L 491.923872 84299.27921 
L 491.923872 169.227045 
L 479.790848 169.227045 
z
" style="fill:#008000;stroke:#ffffff;stroke-linejoin:miter;"/>
   </g>
   <g id="patch_63">
    <path clip-path="url(#p2b82aa208a)" d="M 555.62225 84299.27921 
L 567.755274 84299.27921 
L 567.755274 178.359072 
L 555.62225 178.359072 
z
" style="fill:#008000;stroke:#ffffff;stroke-linejoin:miter;"/>
   </g>
   <g id="patch_64">
    <path clip-path="url(#p2b82aa208a)" d="M 631.453652 84299.27921 
L 643.586676 84299.27921 
L 643.586676 176.454928 
L 631.453652 176.454928 
z
" style="fill:#008000;stroke:#ffffff;stroke-linejoin:miter;"/>
   </g>
   <g id="patch_65">
    <path clip-path="url(#p2b82aa208a)" d="M 707.285054 84299.27921 
L 719.418078 84299.27921 
L 719.418078 151.983216 
L 707.285054 151.983216 
z
" style="fill:#008000;stroke:#ffffff;stroke-linejoin:miter;"/>
   </g>
   <g id="patch_66">
    <path clip-path="url(#p2b82aa208a)" d="M 783.116456 84299.27921 
L 795.24948 84299.27921 
L 795.24948 189.698193 
L 783.116456 189.698193 
z
" style="fill:#008000;stroke:#ffffff;stroke-linejoin:miter;"/>
   </g>
   <g id="patch_67">
    <path clip-path="url(#p2b82aa208a)" d="M 858.947857 84299.27921 
L 871.080882 84299.27921 
L 871.080882 163.864274 
L 858.947857 163.864274 
z
" style="fill:#008000;stroke:#ffffff;stroke-linejoin:miter;"/>
   </g>
   <g id="patch_68">
    <path clip-path="url(#p2b82aa208a)" d="M 934.779259 84299.27921 
L 946.912284 84299.27921 
L 946.912284 161.651778 
L 934.779259 161.651778 
z
" style="fill:#008000;stroke:#ffffff;stroke-linejoin:miter;"/>
   </g>
   <g id="patch_69">
    <path clip-path="url(#p2b82aa208a)" d="M 1010.610661 84299.27921 
L 1022.743686 84299.27921 
L 1022.743686 164.679956 
L 1010.610661 164.679956 
z
" style="fill:#008000;stroke:#ffffff;stroke-linejoin:miter;"/>
   </g>
   <g id="patch_70">
    <path clip-path="url(#p2b82aa208a)" d="M 1086.442063 84299.27921 
L 1098.575088 84299.27921 
L 1098.575088 159.84133 
L 1086.442063 159.84133 
z
" style="fill:#008000;stroke:#ffffff;stroke-linejoin:miter;"/>
   </g>
   <g id="patch_71">
    <path clip-path="url(#p2b82aa208a)" d="M 1162.273465 84299.27921 
L 1174.406489 84299.27921 
L 1174.406489 169.094506 
L 1162.273465 169.094506 
z
" style="fill:#008000;stroke:#ffffff;stroke-linejoin:miter;"/>
   </g>
   <g id="patch_72">
    <path clip-path="url(#p2b82aa208a)" d="M 1238.104867 84299.27921 
L 1250.237891 84299.27921 
L 1250.237891 171.802868 
L 1238.104867 171.802868 
z
" style="fill:#008000;stroke:#ffffff;stroke-linejoin:miter;"/>
   </g>
   <g id="patch_73">
    <path clip-path="url(#p2b82aa208a)" d="M 1313.936269 84299.27921 
L 1326.069293 84299.27921 
L 1326.069293 176.557052 
L 1313.936269 176.557052 
z
" style="fill:#008000;stroke:#ffffff;stroke-linejoin:miter;"/>
   </g>
   <g id="patch_74">
    <path clip-path="url(#p2b82aa208a)" d="M 1389.767671 84299.27921 
L 1401.900695 84299.27921 
L 1401.900695 187.637012 
L 1389.767671 187.637012 
z
" style="fill:#008000;stroke:#ffffff;stroke-linejoin:miter;"/>
   </g>
   <g id="patch_75">
    <path clip-path="url(#p2b82aa208a)" d="M 112.766862 84299.27921 
L 124.899887 84299.27921 
L 124.899887 257.074862 
L 112.766862 257.074862 
z
" style="fill:#00bfbf;stroke:#ffffff;stroke-linejoin:miter;"/>
   </g>
   <g id="patch_76">
    <path clip-path="url(#p2b82aa208a)" d="M 188.598264 84299.27921 
L 200.731289 84299.27921 
L 200.731289 208.954186 
L 188.598264 208.954186 
z
" style="fill:#00bfbf;stroke:#ffffff;stroke-linejoin:miter;"/>
   </g>
   <g id="patch_77">
    <path clip-path="url(#p2b82aa208a)" d="M 264.429666 84299.27921 
L 276.562691 84299.27921 
L 276.562691 206.604644 
L 264.429666 206.604644 
z
" style="fill:#00bfbf;stroke:#ffffff;stroke-linejoin:miter;"/>
   </g>
   <g id="patch_78">
    <path clip-path="url(#p2b82aa208a)" d="M 340.261068 84299.27921 
L 352.394093 84299.27921 
L 352.394093 218.017449 
L 340.261068 218.017449 
z
" style="fill:#00bfbf;stroke:#ffffff;stroke-linejoin:miter;"/>
   </g>
   <g id="patch_79">
    <path clip-path="url(#p2b82aa208a)" d="M 416.09247 84299.27921 
L 428.225494 84299.27921 
L 428.225494 230.017531 
L 416.09247 230.017531 
z
" style="fill:#00bfbf;stroke:#ffffff;stroke-linejoin:miter;"/>
   </g>
   <g id="patch_80">
    <path clip-path="url(#p2b82aa208a)" d="M 491.923872 84299.27921 
L 504.056896 84299.27921 
L 504.056896 204.702518 
L 491.923872 204.702518 
z
" style="fill:#00bfbf;stroke:#ffffff;stroke-linejoin:miter;"/>
   </g>
   <g id="patch_81">
    <path clip-path="url(#p2b82aa208a)" d="M 567.755274 84299.27921 
L 579.888298 84299.27921 
L 579.888298 205.114533 
L 567.755274 205.114533 
z
" style="fill:#00bfbf;stroke:#ffffff;stroke-linejoin:miter;"/>
   </g>
   <g id="patch_82">
    <path clip-path="url(#p2b82aa208a)" d="M 643.586676 84299.27921 
L 655.7197 84299.27921 
L 655.7197 212.190874 
L 643.586676 212.190874 
z
" style="fill:#00bfbf;stroke:#ffffff;stroke-linejoin:miter;"/>
   </g>
   <g id="patch_83">
    <path clip-path="url(#p2b82aa208a)" d="M 719.418078 84299.27921 
L 731.551102 84299.27921 
L 731.551102 207.020117 
L 719.418078 207.020117 
z
" style="fill:#00bfbf;stroke:#ffffff;stroke-linejoin:miter;"/>
   </g>
   <g id="patch_84">
    <path clip-path="url(#p2b82aa208a)" d="M 795.24948 84299.27921 
L 807.382504 84299.27921 
L 807.382504 208.997259 
L 795.24948 208.997259 
z
" style="fill:#00bfbf;stroke:#ffffff;stroke-linejoin:miter;"/>
   </g>
   <g id="patch_85">
    <path clip-path="url(#p2b82aa208a)" d="M 871.080882 84299.27921 
L 883.213906 84299.27921 
L 883.213906 218.046254 
L 871.080882 218.046254 
z
" style="fill:#00bfbf;stroke:#ffffff;stroke-linejoin:miter;"/>
   </g>
   <g id="patch_86">
    <path clip-path="url(#p2b82aa208a)" d="M 946.912284 84299.27921 
L 959.045308 84299.27921 
L 959.045308 214.236876 
L 946.912284 214.236876 
z
" style="fill:#00bfbf;stroke:#ffffff;stroke-linejoin:miter;"/>
   </g>
   <g id="patch_87">
    <path clip-path="url(#p2b82aa208a)" d="M 1022.743686 84299.27921 
L 1034.87671 84299.27921 
L 1034.87671 216.023291 
L 1022.743686 216.023291 
z
" style="fill:#00bfbf;stroke:#ffffff;stroke-linejoin:miter;"/>
   </g>
   <g id="patch_88">
    <path clip-path="url(#p2b82aa208a)" d="M 1098.575088 84299.27921 
L 1110.708112 84299.27921 
L 1110.708112 220.684729 
L 1098.575088 220.684729 
z
" style="fill:#00bfbf;stroke:#ffffff;stroke-linejoin:miter;"/>
   </g>
   <g id="patch_89">
    <path clip-path="url(#p2b82aa208a)" d="M 1174.406489 84299.27921 
L 1186.539514 84299.27921 
L 1186.539514 237.099368 
L 1174.406489 237.099368 
z
" style="fill:#00bfbf;stroke:#ffffff;stroke-linejoin:miter;"/>
   </g>
   <g id="patch_90">
    <path clip-path="url(#p2b82aa208a)" d="M 1250.237891 84299.27921 
L 1262.370916 84299.27921 
L 1262.370916 232.64299 
L 1250.237891 232.64299 
z
" style="fill:#00bfbf;stroke:#ffffff;stroke-linejoin:miter;"/>
   </g>
   <g id="patch_91">
    <path clip-path="url(#p2b82aa208a)" d="M 1326.069293 84299.27921 
L 1338.202318 84299.27921 
L 1338.202318 238.427808 
L 1326.069293 238.427808 
z
" style="fill:#00bfbf;stroke:#ffffff;stroke-linejoin:miter;"/>
   </g>
   <g id="patch_92">
    <path clip-path="url(#p2b82aa208a)" d="M 1401.900695 84299.27921 
L 1414.03372 84299.27921 
L 1414.03372 237.902047 
L 1401.900695 237.902047 
z
" style="fill:#00bfbf;stroke:#ffffff;stroke-linejoin:miter;"/>
   </g>
   <g id="matplotlib.axis_1">
    <g id="xtick_1">
     <g id="line2d_1">
      <defs>
       <path d="M 0 0 
L 0 3.5 
" id="m3a063b3bf9" style="stroke:#000000;stroke-width:0.8;"/>
      </defs>
      <g>
       <use style="stroke:#000000;stroke-width:0.8;" x="94.567326" xlink:href="#m3a063b3bf9" y="282.230334"/>
      </g>
     </g>
     <g id="text_1">
      <!-- $2048^2 \times 128$ -->
      <defs>
       <path d="M 19.1875 8.296875 
L 53.609375 8.296875 
L 53.609375 0 
L 7.328125 0 
L 7.328125 8.296875 
Q 12.9375 14.109375 22.625 23.890625 
Q 32.328125 33.6875 34.8125 36.53125 
Q 39.546875 41.84375 41.421875 45.53125 
Q 43.3125 49.21875 43.3125 52.78125 
Q 43.3125 58.59375 39.234375 62.25 
Q 35.15625 65.921875 28.609375 65.921875 
Q 23.96875 65.921875 18.8125 64.3125 
Q 13.671875 62.703125 7.8125 59.421875 
L 7.8125 69.390625 
Q 13.765625 71.78125 18.9375 73 
Q 24.125 74.21875 28.421875 74.21875 
Q 39.75 74.21875 46.484375 68.546875 
Q 53.21875 62.890625 53.21875 53.421875 
Q 53.21875 48.921875 51.53125 44.890625 
Q 49.859375 40.875 45.40625 35.40625 
Q 44.1875 33.984375 37.640625 27.21875 
Q 31.109375 20.453125 19.1875 8.296875 
z
" id="DejaVuSans-50"/>
       <path d="M 31.78125 66.40625 
Q 24.171875 66.40625 20.328125 58.90625 
Q 16.5 51.421875 16.5 36.375 
Q 16.5 21.390625 20.328125 13.890625 
Q 24.171875 6.390625 31.78125 6.390625 
Q 39.453125 6.390625 43.28125 13.890625 
Q 47.125 21.390625 47.125 36.375 
Q 47.125 51.421875 43.28125 58.90625 
Q 39.453125 66.40625 31.78125 66.40625 
z
M 31.78125 74.21875 
Q 44.046875 74.21875 50.515625 64.515625 
Q 56.984375 54.828125 56.984375 36.375 
Q 56.984375 17.96875 50.515625 8.265625 
Q 44.046875 -1.421875 31.78125 -1.421875 
Q 19.53125 -1.421875 13.0625 8.265625 
Q 6.59375 17.96875 6.59375 36.375 
Q 6.59375 54.828125 13.0625 64.515625 
Q 19.53125 74.21875 31.78125 74.21875 
z
" id="DejaVuSans-48"/>
       <path d="M 37.796875 64.3125 
L 12.890625 25.390625 
L 37.796875 25.390625 
z
M 35.203125 72.90625 
L 47.609375 72.90625 
L 47.609375 25.390625 
L 58.015625 25.390625 
L 58.015625 17.1875 
L 47.609375 17.1875 
L 47.609375 0 
L 37.796875 0 
L 37.796875 17.1875 
L 4.890625 17.1875 
L 4.890625 26.703125 
z
" id="DejaVuSans-52"/>
       <path d="M 31.78125 34.625 
Q 24.75 34.625 20.71875 30.859375 
Q 16.703125 27.09375 16.703125 20.515625 
Q 16.703125 13.921875 20.71875 10.15625 
Q 24.75 6.390625 31.78125 6.390625 
Q 38.8125 6.390625 42.859375 10.171875 
Q 46.921875 13.96875 46.921875 20.515625 
Q 46.921875 27.09375 42.890625 30.859375 
Q 38.875 34.625 31.78125 34.625 
z
M 21.921875 38.8125 
Q 15.578125 40.375 12.03125 44.71875 
Q 8.5 49.078125 8.5 55.328125 
Q 8.5 64.0625 14.71875 69.140625 
Q 20.953125 74.21875 31.78125 74.21875 
Q 42.671875 74.21875 48.875 69.140625 
Q 55.078125 64.0625 55.078125 55.328125 
Q 55.078125 49.078125 51.53125 44.71875 
Q 48 40.375 41.703125 38.8125 
Q 48.828125 37.15625 52.796875 32.3125 
Q 56.78125 27.484375 56.78125 20.515625 
Q 56.78125 9.90625 50.3125 4.234375 
Q 43.84375 -1.421875 31.78125 -1.421875 
Q 19.734375 -1.421875 13.25 4.234375 
Q 6.78125 9.90625 6.78125 20.515625 
Q 6.78125 27.484375 10.78125 32.3125 
Q 14.796875 37.15625 21.921875 38.8125 
z
M 18.3125 54.390625 
Q 18.3125 48.734375 21.84375 45.5625 
Q 25.390625 42.390625 31.78125 42.390625 
Q 38.140625 42.390625 41.71875 45.5625 
Q 45.3125 48.734375 45.3125 54.390625 
Q 45.3125 60.0625 41.71875 63.234375 
Q 38.140625 66.40625 31.78125 66.40625 
Q 25.390625 66.40625 21.84375 63.234375 
Q 18.3125 60.0625 18.3125 54.390625 
z
" id="DejaVuSans-56"/>
       <path d="M 70.125 53.71875 
L 47.796875 31.296875 
L 70.125 8.984375 
L 64.3125 3.078125 
L 41.890625 25.484375 
L 19.484375 3.078125 
L 13.71875 8.984375 
L 35.984375 31.296875 
L 13.71875 53.71875 
L 19.484375 59.625 
L 41.890625 37.203125 
L 64.3125 59.625 
z
" id="DejaVuSans-215"/>
       <path d="M 12.40625 8.296875 
L 28.515625 8.296875 
L 28.515625 63.921875 
L 10.984375 60.40625 
L 10.984375 69.390625 
L 28.421875 72.90625 
L 38.28125 72.90625 
L 38.28125 8.296875 
L 54.390625 8.296875 
L 54.390625 0 
L 12.40625 0 
z
" id="DejaVuSans-49"/>
      </defs>
      <g transform="translate(69.23013 326.660774)rotate(-30)scale(0.1 -0.1)">
       <use transform="translate(0 0.765625)" xlink:href="#DejaVuSans-50"/>
       <use transform="translate(63.623047 0.765625)" xlink:href="#DejaVuSans-48"/>
       <use transform="translate(127.246094 0.765625)" xlink:href="#DejaVuSans-52"/>
       <use transform="translate(190.869141 0.765625)" xlink:href="#DejaVuSans-56"/>
       <use transform="translate(255.449219 39.046875)scale(0.7)" xlink:href="#DejaVuSans-50"/>
       <use transform="translate(322.202148 0.765625)" xlink:href="#DejaVuSans-215"/>
       <use transform="translate(425.473633 0.765625)" xlink:href="#DejaVuSans-49"/>
       <use transform="translate(489.09668 0.765625)" xlink:href="#DejaVuSans-50"/>
       <use transform="translate(552.719727 0.765625)" xlink:href="#DejaVuSans-56"/>
      </g>
     </g>
    </g>
    <g id="xtick_2">
     <g id="line2d_2">
      <g>
       <use style="stroke:#000000;stroke-width:0.8;" x="170.398728" xlink:href="#m3a063b3bf9" y="282.230334"/>
      </g>
     </g>
     <g id="text_2">
      <!-- $2048^2 \times 256$ -->
      <defs>
       <path d="M 10.796875 72.90625 
L 49.515625 72.90625 
L 49.515625 64.59375 
L 19.828125 64.59375 
L 19.828125 46.734375 
Q 21.96875 47.46875 24.109375 47.828125 
Q 26.265625 48.1875 28.421875 48.1875 
Q 40.625 48.1875 47.75 41.5 
Q 54.890625 34.8125 54.890625 23.390625 
Q 54.890625 11.625 47.5625 5.09375 
Q 40.234375 -1.421875 26.90625 -1.421875 
Q 22.3125 -1.421875 17.546875 -0.640625 
Q 12.796875 0.140625 7.71875 1.703125 
L 7.71875 11.625 
Q 12.109375 9.234375 16.796875 8.0625 
Q 21.484375 6.890625 26.703125 6.890625 
Q 35.15625 6.890625 40.078125 11.328125 
Q 45.015625 15.765625 45.015625 23.390625 
Q 45.015625 31 40.078125 35.4375 
Q 35.15625 39.890625 26.703125 39.890625 
Q 22.75 39.890625 18.8125 39.015625 
Q 14.890625 38.140625 10.796875 36.28125 
z
" id="DejaVuSans-53"/>
       <path d="M 33.015625 40.375 
Q 26.375 40.375 22.484375 35.828125 
Q 18.609375 31.296875 18.609375 23.390625 
Q 18.609375 15.53125 22.484375 10.953125 
Q 26.375 6.390625 33.015625 6.390625 
Q 39.65625 6.390625 43.53125 10.953125 
Q 47.40625 15.53125 47.40625 23.390625 
Q 47.40625 31.296875 43.53125 35.828125 
Q 39.65625 40.375 33.015625 40.375 
z
M 52.59375 71.296875 
L 52.59375 62.3125 
Q 48.875 64.0625 45.09375 64.984375 
Q 41.3125 65.921875 37.59375 65.921875 
Q 27.828125 65.921875 22.671875 59.328125 
Q 17.53125 52.734375 16.796875 39.40625 
Q 19.671875 43.65625 24.015625 45.921875 
Q 28.375 48.1875 33.59375 48.1875 
Q 44.578125 48.1875 50.953125 41.515625 
Q 57.328125 34.859375 57.328125 23.390625 
Q 57.328125 12.15625 50.6875 5.359375 
Q 44.046875 -1.421875 33.015625 -1.421875 
Q 20.359375 -1.421875 13.671875 8.265625 
Q 6.984375 17.96875 6.984375 36.375 
Q 6.984375 53.65625 15.1875 63.9375 
Q 23.390625 74.21875 37.203125 74.21875 
Q 40.921875 74.21875 44.703125 73.484375 
Q 48.484375 72.75 52.59375 71.296875 
z
" id="DejaVuSans-54"/>
      </defs>
      <g transform="translate(145.061532 326.660774)rotate(-30)scale(0.1 -0.1)">
       <use transform="translate(0 0.765625)" xlink:href="#DejaVuSans-50"/>
       <use transform="translate(63.623047 0.765625)" xlink:href="#DejaVuSans-48"/>
       <use transform="translate(127.246094 0.765625)" xlink:href="#DejaVuSans-52"/>
       <use transform="translate(190.869141 0.765625)" xlink:href="#DejaVuSans-56"/>
       <use transform="translate(255.449219 39.046875)scale(0.7)" xlink:href="#DejaVuSans-50"/>
       <use transform="translate(322.202148 0.765625)" xlink:href="#DejaVuSans-215"/>
       <use transform="translate(425.473633 0.765625)" xlink:href="#DejaVuSans-50"/>
       <use transform="translate(489.09668 0.765625)" xlink:href="#DejaVuSans-53"/>
       <use transform="translate(552.719727 0.765625)" xlink:href="#DejaVuSans-54"/>
      </g>
     </g>
    </g>
    <g id="xtick_3">
     <g id="line2d_3">
      <g>
       <use style="stroke:#000000;stroke-width:0.8;" x="246.23013" xlink:href="#m3a063b3bf9" y="282.230334"/>
      </g>
     </g>
     <g id="text_3">
      <!-- $2048^2 \times 512$ -->
      <g transform="translate(220.892934 326.660774)rotate(-30)scale(0.1 -0.1)">
       <use transform="translate(0 0.765625)" xlink:href="#DejaVuSans-50"/>
       <use transform="translate(63.623047 0.765625)" xlink:href="#DejaVuSans-48"/>
       <use transform="translate(127.246094 0.765625)" xlink:href="#DejaVuSans-52"/>
       <use transform="translate(190.869141 0.765625)" xlink:href="#DejaVuSans-56"/>
       <use transform="translate(255.449219 39.046875)scale(0.7)" xlink:href="#DejaVuSans-50"/>
       <use transform="translate(322.202148 0.765625)" xlink:href="#DejaVuSans-215"/>
       <use transform="translate(425.473633 0.765625)" xlink:href="#DejaVuSans-53"/>
       <use transform="translate(489.09668 0.765625)" xlink:href="#DejaVuSans-49"/>
       <use transform="translate(552.719727 0.765625)" xlink:href="#DejaVuSans-50"/>
      </g>
     </g>
    </g>
    <g id="xtick_4">
     <g id="line2d_4">
      <g>
       <use style="stroke:#000000;stroke-width:0.8;" x="322.061532" xlink:href="#m3a063b3bf9" y="282.230334"/>
      </g>
     </g>
     <g id="text_4">
      <!-- $2048^2 \times 1024$ -->
      <g transform="translate(293.996356 329.810774)rotate(-30)scale(0.1 -0.1)">
       <use transform="translate(0 0.765625)" xlink:href="#DejaVuSans-50"/>
       <use transform="translate(63.623047 0.765625)" xlink:href="#DejaVuSans-48"/>
       <use transform="translate(127.246094 0.765625)" xlink:href="#DejaVuSans-52"/>
       <use transform="translate(190.869141 0.765625)" xlink:href="#DejaVuSans-56"/>
       <use transform="translate(255.449219 39.046875)scale(0.7)" xlink:href="#DejaVuSans-50"/>
       <use transform="translate(322.202148 0.765625)" xlink:href="#DejaVuSans-215"/>
       <use transform="translate(425.473633 0.765625)" xlink:href="#DejaVuSans-49"/>
       <use transform="translate(489.09668 0.765625)" xlink:href="#DejaVuSans-48"/>
       <use transform="translate(552.719727 0.765625)" xlink:href="#DejaVuSans-50"/>
       <use transform="translate(616.342773 0.765625)" xlink:href="#DejaVuSans-52"/>
      </g>
     </g>
    </g>
    <g id="xtick_5">
     <g id="line2d_5">
      <g>
       <use style="stroke:#000000;stroke-width:0.8;" x="397.892934" xlink:href="#m3a063b3bf9" y="282.230334"/>
      </g>
     </g>
     <g id="text_5">
      <!-- $2048^2 \times 2048$ -->
      <g transform="translate(369.827757 329.810774)rotate(-30)scale(0.1 -0.1)">
       <use transform="translate(0 0.765625)" xlink:href="#DejaVuSans-50"/>
       <use transform="translate(63.623047 0.765625)" xlink:href="#DejaVuSans-48"/>
       <use transform="translate(127.246094 0.765625)" xlink:href="#DejaVuSans-52"/>
       <use transform="translate(190.869141 0.765625)" xlink:href="#DejaVuSans-56"/>
       <use transform="translate(255.449219 39.046875)scale(0.7)" xlink:href="#DejaVuSans-50"/>
       <use transform="translate(322.202148 0.765625)" xlink:href="#DejaVuSans-215"/>
       <use transform="translate(425.473633 0.765625)" xlink:href="#DejaVuSans-50"/>
       <use transform="translate(489.09668 0.765625)" xlink:href="#DejaVuSans-48"/>
       <use transform="translate(552.719727 0.765625)" xlink:href="#DejaVuSans-52"/>
       <use transform="translate(616.342773 0.765625)" xlink:href="#DejaVuSans-56"/>
      </g>
     </g>
    </g>
    <g id="xtick_6">
     <g id="line2d_6">
      <g>
       <use style="stroke:#000000;stroke-width:0.8;" x="473.724336" xlink:href="#m3a063b3bf9" y="282.230334"/>
      </g>
     </g>
     <g id="text_6">
      <!-- $2048^2 \times 4096$ -->
      <defs>
       <path d="M 10.984375 1.515625 
L 10.984375 10.5 
Q 14.703125 8.734375 18.5 7.8125 
Q 22.3125 6.890625 25.984375 6.890625 
Q 35.75 6.890625 40.890625 13.453125 
Q 46.046875 20.015625 46.78125 33.40625 
Q 43.953125 29.203125 39.59375 26.953125 
Q 35.25 24.703125 29.984375 24.703125 
Q 19.046875 24.703125 12.671875 31.3125 
Q 6.296875 37.9375 6.296875 49.421875 
Q 6.296875 60.640625 12.9375 67.421875 
Q 19.578125 74.21875 30.609375 74.21875 
Q 43.265625 74.21875 49.921875 64.515625 
Q 56.59375 54.828125 56.59375 36.375 
Q 56.59375 19.140625 48.40625 8.859375 
Q 40.234375 -1.421875 26.421875 -1.421875 
Q 22.703125 -1.421875 18.890625 -0.6875 
Q 15.09375 0.046875 10.984375 1.515625 
z
M 30.609375 32.421875 
Q 37.25 32.421875 41.125 36.953125 
Q 45.015625 41.5 45.015625 49.421875 
Q 45.015625 57.28125 41.125 61.84375 
Q 37.25 66.40625 30.609375 66.40625 
Q 23.96875 66.40625 20.09375 61.84375 
Q 16.21875 57.28125 16.21875 49.421875 
Q 16.21875 41.5 20.09375 36.953125 
Q 23.96875 32.421875 30.609375 32.421875 
z
" id="DejaVuSans-57"/>
      </defs>
      <g transform="translate(445.659159 329.810774)rotate(-30)scale(0.1 -0.1)">
       <use transform="translate(0 0.765625)" xlink:href="#DejaVuSans-50"/>
       <use transform="translate(63.623047 0.765625)" xlink:href="#DejaVuSans-48"/>
       <use transform="translate(127.246094 0.765625)" xlink:href="#DejaVuSans-52"/>
       <use transform="translate(190.869141 0.765625)" xlink:href="#DejaVuSans-56"/>
       <use transform="translate(255.449219 39.046875)scale(0.7)" xlink:href="#DejaVuSans-50"/>
       <use transform="translate(322.202148 0.765625)" xlink:href="#DejaVuSans-215"/>
       <use transform="translate(425.473633 0.765625)" xlink:href="#DejaVuSans-52"/>
       <use transform="translate(489.09668 0.765625)" xlink:href="#DejaVuSans-48"/>
       <use transform="translate(552.719727 0.765625)" xlink:href="#DejaVuSans-57"/>
       <use transform="translate(616.342773 0.765625)" xlink:href="#DejaVuSans-54"/>
      </g>
     </g>
    </g>
    <g id="xtick_7">
     <g id="line2d_7">
      <g>
       <use style="stroke:#000000;stroke-width:0.8;" x="549.555738" xlink:href="#m3a063b3bf9" y="282.230334"/>
      </g>
     </g>
     <g id="text_7">
      <!-- $2048^2 \times 8192$ -->
      <g transform="translate(521.490561 329.810774)rotate(-30)scale(0.1 -0.1)">
       <use transform="translate(0 0.765625)" xlink:href="#DejaVuSans-50"/>
       <use transform="translate(63.623047 0.765625)" xlink:href="#DejaVuSans-48"/>
       <use transform="translate(127.246094 0.765625)" xlink:href="#DejaVuSans-52"/>
       <use transform="translate(190.869141 0.765625)" xlink:href="#DejaVuSans-56"/>
       <use transform="translate(255.449219 39.046875)scale(0.7)" xlink:href="#DejaVuSans-50"/>
       <use transform="translate(322.202148 0.765625)" xlink:href="#DejaVuSans-215"/>
       <use transform="translate(425.473633 0.765625)" xlink:href="#DejaVuSans-56"/>
       <use transform="translate(489.09668 0.765625)" xlink:href="#DejaVuSans-49"/>
       <use transform="translate(552.719727 0.765625)" xlink:href="#DejaVuSans-57"/>
       <use transform="translate(616.327148 0.765625)" xlink:href="#DejaVuSans-50"/>
      </g>
     </g>
    </g>
    <g id="xtick_8">
     <g id="line2d_8">
      <g>
       <use style="stroke:#000000;stroke-width:0.8;" x="625.387139" xlink:href="#m3a063b3bf9" y="282.230334"/>
      </g>
     </g>
     <g id="text_8">
      <!-- $2048^2 \times 12288$ -->
      <g transform="translate(594.550682 333.010774)rotate(-30)scale(0.1 -0.1)">
       <use transform="translate(0 0.765625)" xlink:href="#DejaVuSans-50"/>
       <use transform="translate(63.623047 0.765625)" xlink:href="#DejaVuSans-48"/>
       <use transform="translate(127.246094 0.765625)" xlink:href="#DejaVuSans-52"/>
       <use transform="translate(190.869141 0.765625)" xlink:href="#DejaVuSans-56"/>
       <use transform="translate(255.449219 39.046875)scale(0.7)" xlink:href="#DejaVuSans-50"/>
       <use transform="translate(322.202148 0.765625)" xlink:href="#DejaVuSans-215"/>
       <use transform="translate(425.473633 0.765625)" xlink:href="#DejaVuSans-49"/>
       <use transform="translate(489.09668 0.765625)" xlink:href="#DejaVuSans-50"/>
       <use transform="translate(552.719727 0.765625)" xlink:href="#DejaVuSans-50"/>
       <use transform="translate(616.342773 0.765625)" xlink:href="#DejaVuSans-56"/>
       <use transform="translate(679.96582 0.765625)" xlink:href="#DejaVuSans-56"/>
      </g>
     </g>
    </g>
    <g id="xtick_9">
     <g id="line2d_9">
      <g>
       <use style="stroke:#000000;stroke-width:0.8;" x="701.218541" xlink:href="#m3a063b3bf9" y="282.230334"/>
      </g>
     </g>
     <g id="text_9">
      <!-- $4096^2 \times 128$ -->
      <g transform="translate(675.881345 326.660774)rotate(-30)scale(0.1 -0.1)">
       <use transform="translate(0 0.765625)" xlink:href="#DejaVuSans-52"/>
       <use transform="translate(63.623047 0.765625)" xlink:href="#DejaVuSans-48"/>
       <use transform="translate(127.246094 0.765625)" xlink:href="#DejaVuSans-57"/>
       <use transform="translate(190.869141 0.765625)" xlink:href="#DejaVuSans-54"/>
       <use transform="translate(255.449219 39.046875)scale(0.7)" xlink:href="#DejaVuSans-50"/>
       <use transform="translate(322.202148 0.765625)" xlink:href="#DejaVuSans-215"/>
       <use transform="translate(425.473633 0.765625)" xlink:href="#DejaVuSans-49"/>
       <use transform="translate(489.09668 0.765625)" xlink:href="#DejaVuSans-50"/>
       <use transform="translate(552.719727 0.765625)" xlink:href="#DejaVuSans-56"/>
      </g>
     </g>
    </g>
    <g id="xtick_10">
     <g id="line2d_10">
      <g>
       <use style="stroke:#000000;stroke-width:0.8;" x="777.049943" xlink:href="#m3a063b3bf9" y="282.230334"/>
      </g>
     </g>
     <g id="text_10">
      <!-- $4096^2 \times 256$ -->
      <g transform="translate(751.712747 326.660774)rotate(-30)scale(0.1 -0.1)">
       <use transform="translate(0 0.765625)" xlink:href="#DejaVuSans-52"/>
       <use transform="translate(63.623047 0.765625)" xlink:href="#DejaVuSans-48"/>
       <use transform="translate(127.246094 0.765625)" xlink:href="#DejaVuSans-57"/>
       <use transform="translate(190.869141 0.765625)" xlink:href="#DejaVuSans-54"/>
       <use transform="translate(255.449219 39.046875)scale(0.7)" xlink:href="#DejaVuSans-50"/>
       <use transform="translate(322.202148 0.765625)" xlink:href="#DejaVuSans-215"/>
       <use transform="translate(425.473633 0.765625)" xlink:href="#DejaVuSans-50"/>
       <use transform="translate(489.09668 0.765625)" xlink:href="#DejaVuSans-53"/>
       <use transform="translate(552.719727 0.765625)" xlink:href="#DejaVuSans-54"/>
      </g>
     </g>
    </g>
    <g id="xtick_11">
     <g id="line2d_11">
      <g>
       <use style="stroke:#000000;stroke-width:0.8;" x="852.881345" xlink:href="#m3a063b3bf9" y="282.230334"/>
      </g>
     </g>
     <g id="text_11">
      <!-- $4096^2 \times 512$ -->
      <g transform="translate(827.544149 326.660774)rotate(-30)scale(0.1 -0.1)">
       <use transform="translate(0 0.765625)" xlink:href="#DejaVuSans-52"/>
       <use transform="translate(63.623047 0.765625)" xlink:href="#DejaVuSans-48"/>
       <use transform="translate(127.246094 0.765625)" xlink:href="#DejaVuSans-57"/>
       <use transform="translate(190.869141 0.765625)" xlink:href="#DejaVuSans-54"/>
       <use transform="translate(255.449219 39.046875)scale(0.7)" xlink:href="#DejaVuSans-50"/>
       <use transform="translate(322.202148 0.765625)" xlink:href="#DejaVuSans-215"/>
       <use transform="translate(425.473633 0.765625)" xlink:href="#DejaVuSans-53"/>
       <use transform="translate(489.09668 0.765625)" xlink:href="#DejaVuSans-49"/>
       <use transform="translate(552.719727 0.765625)" xlink:href="#DejaVuSans-50"/>
      </g>
     </g>
    </g>
    <g id="xtick_12">
     <g id="line2d_12">
      <g>
       <use style="stroke:#000000;stroke-width:0.8;" x="928.712747" xlink:href="#m3a063b3bf9" y="282.230334"/>
      </g>
     </g>
     <g id="text_12">
      <!-- $4096^2 \times 1024$ -->
      <g transform="translate(900.647571 329.810774)rotate(-30)scale(0.1 -0.1)">
       <use transform="translate(0 0.765625)" xlink:href="#DejaVuSans-52"/>
       <use transform="translate(63.623047 0.765625)" xlink:href="#DejaVuSans-48"/>
       <use transform="translate(127.246094 0.765625)" xlink:href="#DejaVuSans-57"/>
       <use transform="translate(190.869141 0.765625)" xlink:href="#DejaVuSans-54"/>
       <use transform="translate(255.449219 39.046875)scale(0.7)" xlink:href="#DejaVuSans-50"/>
       <use transform="translate(322.202148 0.765625)" xlink:href="#DejaVuSans-215"/>
       <use transform="translate(425.473633 0.765625)" xlink:href="#DejaVuSans-49"/>
       <use transform="translate(489.09668 0.765625)" xlink:href="#DejaVuSans-48"/>
       <use transform="translate(552.719727 0.765625)" xlink:href="#DejaVuSans-50"/>
       <use transform="translate(616.342773 0.765625)" xlink:href="#DejaVuSans-52"/>
      </g>
     </g>
    </g>
    <g id="xtick_13">
     <g id="line2d_13">
      <g>
       <use style="stroke:#000000;stroke-width:0.8;" x="1004.544149" xlink:href="#m3a063b3bf9" y="282.230334"/>
      </g>
     </g>
     <g id="text_13">
      <!-- $4096^2 \times 2048$ -->
      <g transform="translate(976.478973 329.810774)rotate(-30)scale(0.1 -0.1)">
       <use transform="translate(0 0.765625)" xlink:href="#DejaVuSans-52"/>
       <use transform="translate(63.623047 0.765625)" xlink:href="#DejaVuSans-48"/>
       <use transform="translate(127.246094 0.765625)" xlink:href="#DejaVuSans-57"/>
       <use transform="translate(190.869141 0.765625)" xlink:href="#DejaVuSans-54"/>
       <use transform="translate(255.449219 39.046875)scale(0.7)" xlink:href="#DejaVuSans-50"/>
       <use transform="translate(322.202148 0.765625)" xlink:href="#DejaVuSans-215"/>
       <use transform="translate(425.473633 0.765625)" xlink:href="#DejaVuSans-50"/>
       <use transform="translate(489.09668 0.765625)" xlink:href="#DejaVuSans-48"/>
       <use transform="translate(552.719727 0.765625)" xlink:href="#DejaVuSans-52"/>
       <use transform="translate(616.342773 0.765625)" xlink:href="#DejaVuSans-56"/>
      </g>
     </g>
    </g>
    <g id="xtick_14">
     <g id="line2d_14">
      <g>
       <use style="stroke:#000000;stroke-width:0.8;" x="1080.375551" xlink:href="#m3a063b3bf9" y="282.230334"/>
      </g>
     </g>
     <g id="text_14">
      <!-- $4096^2 \times 3072$ -->
      <defs>
       <path d="M 40.578125 39.3125 
Q 47.65625 37.796875 51.625 33 
Q 55.609375 28.21875 55.609375 21.1875 
Q 55.609375 10.40625 48.1875 4.484375 
Q 40.765625 -1.421875 27.09375 -1.421875 
Q 22.515625 -1.421875 17.65625 -0.515625 
Q 12.796875 0.390625 7.625 2.203125 
L 7.625 11.71875 
Q 11.71875 9.328125 16.59375 8.109375 
Q 21.484375 6.890625 26.8125 6.890625 
Q 36.078125 6.890625 40.9375 10.546875 
Q 45.796875 14.203125 45.796875 21.1875 
Q 45.796875 27.640625 41.28125 31.265625 
Q 36.765625 34.90625 28.71875 34.90625 
L 20.21875 34.90625 
L 20.21875 43.015625 
L 29.109375 43.015625 
Q 36.375 43.015625 40.234375 45.921875 
Q 44.09375 48.828125 44.09375 54.296875 
Q 44.09375 59.90625 40.109375 62.90625 
Q 36.140625 65.921875 28.71875 65.921875 
Q 24.65625 65.921875 20.015625 65.03125 
Q 15.375 64.15625 9.8125 62.3125 
L 9.8125 71.09375 
Q 15.4375 72.65625 20.34375 73.4375 
Q 25.25 74.21875 29.59375 74.21875 
Q 40.828125 74.21875 47.359375 69.109375 
Q 53.90625 64.015625 53.90625 55.328125 
Q 53.90625 49.265625 50.4375 45.09375 
Q 46.96875 40.921875 40.578125 39.3125 
z
" id="DejaVuSans-51"/>
       <path d="M 8.203125 72.90625 
L 55.078125 72.90625 
L 55.078125 68.703125 
L 28.609375 0 
L 18.3125 0 
L 43.21875 64.59375 
L 8.203125 64.59375 
z
" id="DejaVuSans-55"/>
      </defs>
      <g transform="translate(1052.310375 329.810774)rotate(-30)scale(0.1 -0.1)">
       <use transform="translate(0 0.765625)" xlink:href="#DejaVuSans-52"/>
       <use transform="translate(63.623047 0.765625)" xlink:href="#DejaVuSans-48"/>
       <use transform="translate(127.246094 0.765625)" xlink:href="#DejaVuSans-57"/>
       <use transform="translate(190.869141 0.765625)" xlink:href="#DejaVuSans-54"/>
       <use transform="translate(255.449219 39.046875)scale(0.7)" xlink:href="#DejaVuSans-50"/>
       <use transform="translate(322.202148 0.765625)" xlink:href="#DejaVuSans-215"/>
       <use transform="translate(425.473633 0.765625)" xlink:href="#DejaVuSans-51"/>
       <use transform="translate(489.09668 0.765625)" xlink:href="#DejaVuSans-48"/>
       <use transform="translate(552.719727 0.765625)" xlink:href="#DejaVuSans-55"/>
       <use transform="translate(616.342773 0.765625)" xlink:href="#DejaVuSans-50"/>
      </g>
     </g>
    </g>
    <g id="xtick_15">
     <g id="line2d_15">
      <g>
       <use style="stroke:#000000;stroke-width:0.8;" x="1156.206953" xlink:href="#m3a063b3bf9" y="282.230334"/>
      </g>
     </g>
     <g id="text_15">
      <!-- $8192^2 \times 128$ -->
      <g transform="translate(1130.869757 326.660774)rotate(-30)scale(0.1 -0.1)">
       <use transform="translate(0 0.765625)" xlink:href="#DejaVuSans-56"/>
       <use transform="translate(63.623047 0.765625)" xlink:href="#DejaVuSans-49"/>
       <use transform="translate(127.246094 0.765625)" xlink:href="#DejaVuSans-57"/>
       <use transform="translate(190.869141 0.765625)" xlink:href="#DejaVuSans-50"/>
       <use transform="translate(255.449219 39.046875)scale(0.7)" xlink:href="#DejaVuSans-50"/>
       <use transform="translate(322.202148 0.765625)" xlink:href="#DejaVuSans-215"/>
       <use transform="translate(425.473633 0.765625)" xlink:href="#DejaVuSans-49"/>
       <use transform="translate(489.09668 0.765625)" xlink:href="#DejaVuSans-50"/>
       <use transform="translate(552.719727 0.765625)" xlink:href="#DejaVuSans-56"/>
      </g>
     </g>
    </g>
    <g id="xtick_16">
     <g id="line2d_16">
      <g>
       <use style="stroke:#000000;stroke-width:0.8;" x="1232.038355" xlink:href="#m3a063b3bf9" y="282.230334"/>
      </g>
     </g>
     <g id="text_16">
      <!-- $8192^2 \times 256$ -->
      <g transform="translate(1206.701159 326.660774)rotate(-30)scale(0.1 -0.1)">
       <use transform="translate(0 0.765625)" xlink:href="#DejaVuSans-56"/>
       <use transform="translate(63.623047 0.765625)" xlink:href="#DejaVuSans-49"/>
       <use transform="translate(127.246094 0.765625)" xlink:href="#DejaVuSans-57"/>
       <use transform="translate(190.869141 0.765625)" xlink:href="#DejaVuSans-50"/>
       <use transform="translate(255.449219 39.046875)scale(0.7)" xlink:href="#DejaVuSans-50"/>
       <use transform="translate(322.202148 0.765625)" xlink:href="#DejaVuSans-215"/>
       <use transform="translate(425.473633 0.765625)" xlink:href="#DejaVuSans-50"/>
       <use transform="translate(489.09668 0.765625)" xlink:href="#DejaVuSans-53"/>
       <use transform="translate(552.719727 0.765625)" xlink:href="#DejaVuSans-54"/>
      </g>
     </g>
    </g>
    <g id="xtick_17">
     <g id="line2d_17">
      <g>
       <use style="stroke:#000000;stroke-width:0.8;" x="1307.869757" xlink:href="#m3a063b3bf9" y="282.230334"/>
      </g>
     </g>
     <g id="text_17">
      <!-- $8192^2 \times 512$ -->
      <g transform="translate(1282.532561 326.660774)rotate(-30)scale(0.1 -0.1)">
       <use transform="translate(0 0.765625)" xlink:href="#DejaVuSans-56"/>
       <use transform="translate(63.623047 0.765625)" xlink:href="#DejaVuSans-49"/>
       <use transform="translate(127.246094 0.765625)" xlink:href="#DejaVuSans-57"/>
       <use transform="translate(190.869141 0.765625)" xlink:href="#DejaVuSans-50"/>
       <use transform="translate(255.449219 39.046875)scale(0.7)" xlink:href="#DejaVuSans-50"/>
       <use transform="translate(322.202148 0.765625)" xlink:href="#DejaVuSans-215"/>
       <use transform="translate(425.473633 0.765625)" xlink:href="#DejaVuSans-53"/>
       <use transform="translate(489.09668 0.765625)" xlink:href="#DejaVuSans-49"/>
       <use transform="translate(552.719727 0.765625)" xlink:href="#DejaVuSans-50"/>
      </g>
     </g>
    </g>
    <g id="xtick_18">
     <g id="line2d_18">
      <g>
       <use style="stroke:#000000;stroke-width:0.8;" x="1383.701159" xlink:href="#m3a063b3bf9" y="282.230334"/>
      </g>
     </g>
     <g id="text_18">
      <!-- $8192^2 \times 768$ -->
      <g transform="translate(1358.363963 326.660774)rotate(-30)scale(0.1 -0.1)">
       <use transform="translate(0 0.765625)" xlink:href="#DejaVuSans-56"/>
       <use transform="translate(63.623047 0.765625)" xlink:href="#DejaVuSans-49"/>
       <use transform="translate(127.246094 0.765625)" xlink:href="#DejaVuSans-57"/>
       <use transform="translate(190.869141 0.765625)" xlink:href="#DejaVuSans-50"/>
       <use transform="translate(255.449219 39.046875)scale(0.7)" xlink:href="#DejaVuSans-50"/>
       <use transform="translate(322.202148 0.765625)" xlink:href="#DejaVuSans-215"/>
       <use transform="translate(425.473633 0.765625)" xlink:href="#DejaVuSans-55"/>
       <use transform="translate(489.09668 0.765625)" xlink:href="#DejaVuSans-54"/>
       <use transform="translate(552.719727 0.765625)" xlink:href="#DejaVuSans-56"/>
      </g>
     </g>
    </g>
    <g id="text_19">
     <!-- Image -->
     <defs>
      <path d="M 9.8125 72.90625 
L 19.671875 72.90625 
L 19.671875 0 
L 9.8125 0 
z
" id="DejaVuSans-73"/>
      <path d="M 52 44.1875 
Q 55.375 50.25 60.0625 53.125 
Q 64.75 56 71.09375 56 
Q 79.640625 56 84.28125 50.015625 
Q 88.921875 44.046875 88.921875 33.015625 
L 88.921875 0 
L 79.890625 0 
L 79.890625 32.71875 
Q 79.890625 40.578125 77.09375 44.375 
Q 74.3125 48.1875 68.609375 48.1875 
Q 61.625 48.1875 57.5625 43.546875 
Q 53.515625 38.921875 53.515625 30.90625 
L 53.515625 0 
L 44.484375 0 
L 44.484375 32.71875 
Q 44.484375 40.625 41.703125 44.40625 
Q 38.921875 48.1875 33.109375 48.1875 
Q 26.21875 48.1875 22.15625 43.53125 
Q 18.109375 38.875 18.109375 30.90625 
L 18.109375 0 
L 9.078125 0 
L 9.078125 54.6875 
L 18.109375 54.6875 
L 18.109375 46.1875 
Q 21.1875 51.21875 25.484375 53.609375 
Q 29.78125 56 35.6875 56 
Q 41.65625 56 45.828125 52.96875 
Q 50 49.953125 52 44.1875 
z
" id="DejaVuSans-109"/>
      <path d="M 34.28125 27.484375 
Q 23.390625 27.484375 19.1875 25 
Q 14.984375 22.515625 14.984375 16.5 
Q 14.984375 11.71875 18.140625 8.90625 
Q 21.296875 6.109375 26.703125 6.109375 
Q 34.1875 6.109375 38.703125 11.40625 
Q 43.21875 16.703125 43.21875 25.484375 
L 43.21875 27.484375 
z
M 52.203125 31.203125 
L 52.203125 0 
L 43.21875 0 
L 43.21875 8.296875 
Q 40.140625 3.328125 35.546875 0.953125 
Q 30.953125 -1.421875 24.3125 -1.421875 
Q 15.921875 -1.421875 10.953125 3.296875 
Q 6 8.015625 6 15.921875 
Q 6 25.140625 12.171875 29.828125 
Q 18.359375 34.515625 30.609375 34.515625 
L 43.21875 34.515625 
L 43.21875 35.40625 
Q 43.21875 41.609375 39.140625 45 
Q 35.0625 48.390625 27.6875 48.390625 
Q 23 48.390625 18.546875 47.265625 
Q 14.109375 46.140625 10.015625 43.890625 
L 10.015625 52.203125 
Q 14.9375 54.109375 19.578125 55.046875 
Q 24.21875 56 28.609375 56 
Q 40.484375 56 46.34375 49.84375 
Q 52.203125 43.703125 52.203125 31.203125 
z
" id="DejaVuSans-97"/>
      <path d="M 45.40625 27.984375 
Q 45.40625 37.75 41.375 43.109375 
Q 37.359375 48.484375 30.078125 48.484375 
Q 22.859375 48.484375 18.828125 43.109375 
Q 14.796875 37.75 14.796875 27.984375 
Q 14.796875 18.265625 18.828125 12.890625 
Q 22.859375 7.515625 30.078125 7.515625 
Q 37.359375 7.515625 41.375 12.890625 
Q 45.40625 18.265625 45.40625 27.984375 
z
M 54.390625 6.78125 
Q 54.390625 -7.171875 48.1875 -13.984375 
Q 42 -20.796875 29.203125 -20.796875 
Q 24.46875 -20.796875 20.265625 -20.09375 
Q 16.0625 -19.390625 12.109375 -17.921875 
L 12.109375 -9.1875 
Q 16.0625 -11.328125 19.921875 -12.34375 
Q 23.78125 -13.375 27.78125 -13.375 
Q 36.625 -13.375 41.015625 -8.765625 
Q 45.40625 -4.15625 45.40625 5.171875 
L 45.40625 9.625 
Q 42.625 4.78125 38.28125 2.390625 
Q 33.9375 0 27.875 0 
Q 17.828125 0 11.671875 7.65625 
Q 5.515625 15.328125 5.515625 27.984375 
Q 5.515625 40.671875 11.671875 48.328125 
Q 17.828125 56 27.875 56 
Q 33.9375 56 38.28125 53.609375 
Q 42.625 51.21875 45.40625 46.390625 
L 45.40625 54.6875 
L 54.390625 54.6875 
z
" id="DejaVuSans-103"/>
      <path d="M 56.203125 29.59375 
L 56.203125 25.203125 
L 14.890625 25.203125 
Q 15.484375 15.921875 20.484375 11.0625 
Q 25.484375 6.203125 34.421875 6.203125 
Q 39.59375 6.203125 44.453125 7.46875 
Q 49.3125 8.734375 54.109375 11.28125 
L 54.109375 2.78125 
Q 49.265625 0.734375 44.1875 -0.34375 
Q 39.109375 -1.421875 33.890625 -1.421875 
Q 20.796875 -1.421875 13.15625 6.1875 
Q 5.515625 13.8125 5.515625 26.8125 
Q 5.515625 40.234375 12.765625 48.109375 
Q 20.015625 56 32.328125 56 
Q 43.359375 56 49.78125 48.890625 
Q 56.203125 41.796875 56.203125 29.59375 
z
M 47.21875 32.234375 
Q 47.125 39.59375 43.09375 43.984375 
Q 39.0625 48.390625 32.421875 48.390625 
Q 24.90625 48.390625 20.390625 44.140625 
Q 15.875 39.890625 15.1875 32.171875 
z
" id="DejaVuSans-101"/>
     </defs>
     <g transform="translate(723.474086 346.410274)scale(0.1 -0.1)">
      <use xlink:href="#DejaVuSans-73"/>
      <use x="29.492188" xlink:href="#DejaVuSans-109"/>
      <use x="126.904297" xlink:href="#DejaVuSans-97"/>
      <use x="188.183594" xlink:href="#DejaVuSans-103"/>
      <use x="251.660156" xlink:href="#DejaVuSans-101"/>
     </g>
    </g>
   </g>
   <g id="matplotlib.axis_2">
    <g id="ytick_1">
     <g id="line2d_19">
      <defs>
       <path d="M 0 0 
L -3.5 0 
" id="mc7bdfa7cab" style="stroke:#000000;stroke-width:0.8;"/>
      </defs>
      <g>
       <use style="stroke:#000000;stroke-width:0.8;" x="49.068485" xlink:href="#mc7bdfa7cab" y="222.887361"/>
      </g>
     </g>
     <g id="text_20">
      <!-- $\mathdefault{10^{1}}$ -->
      <g transform="translate(24.468485 226.68658)scale(0.1 -0.1)">
       <use transform="translate(0 0.684375)" xlink:href="#DejaVuSans-49"/>
       <use transform="translate(63.623047 0.684375)" xlink:href="#DejaVuSans-48"/>
       <use transform="translate(128.203125 38.965625)scale(0.7)" xlink:href="#DejaVuSans-49"/>
      </g>
     </g>
    </g>
    <g id="ytick_2">
     <g id="line2d_20">
      <g>
       <use style="stroke:#000000;stroke-width:0.8;" x="49.068485" xlink:href="#mc7bdfa7cab" y="138.894962"/>
      </g>
     </g>
     <g id="text_21">
      <!-- $\mathdefault{10^{2}}$ -->
      <g transform="translate(24.468485 142.69418)scale(0.1 -0.1)">
       <use transform="translate(0 0.765625)" xlink:href="#DejaVuSans-49"/>
       <use transform="translate(63.623047 0.765625)" xlink:href="#DejaVuSans-48"/>
       <use transform="translate(128.203125 39.046875)scale(0.7)" xlink:href="#DejaVuSans-50"/>
      </g>
     </g>
    </g>
    <g id="ytick_3">
     <g id="line2d_21">
      <g>
       <use style="stroke:#000000;stroke-width:0.8;" x="49.068485" xlink:href="#mc7bdfa7cab" y="54.902562"/>
      </g>
     </g>
     <g id="text_22">
      <!-- $\mathdefault{10^{3}}$ -->
      <g transform="translate(24.468485 58.701781)scale(0.1 -0.1)">
       <use transform="translate(0 0.765625)" xlink:href="#DejaVuSans-49"/>
       <use transform="translate(63.623047 0.765625)" xlink:href="#DejaVuSans-48"/>
       <use transform="translate(128.203125 39.046875)scale(0.7)" xlink:href="#DejaVuSans-51"/>
      </g>
     </g>
    </g>
    <g id="ytick_4">
     <g id="line2d_22">
      <defs>
       <path d="M 0 0 
L -2 0 
" id="mdba72fa4f7" style="stroke:#000000;stroke-width:0.6;"/>
      </defs>
      <g>
       <use style="stroke:#000000;stroke-width:0.6;" x="49.068485" xlink:href="#mdba72fa4f7" y="281.595529"/>
      </g>
     </g>
    </g>
    <g id="ytick_5">
     <g id="line2d_23">
      <g>
       <use style="stroke:#000000;stroke-width:0.6;" x="49.068485" xlink:href="#mdba72fa4f7" y="266.805201"/>
      </g>
     </g>
    </g>
    <g id="ytick_6">
     <g id="line2d_24">
      <g>
       <use style="stroke:#000000;stroke-width:0.6;" x="49.068485" xlink:href="#mdba72fa4f7" y="256.311297"/>
      </g>
     </g>
    </g>
    <g id="ytick_7">
     <g id="line2d_25">
      <g>
       <use style="stroke:#000000;stroke-width:0.6;" x="49.068485" xlink:href="#mdba72fa4f7" y="248.171593"/>
      </g>
     </g>
    </g>
    <g id="ytick_8">
     <g id="line2d_26">
      <g>
       <use style="stroke:#000000;stroke-width:0.6;" x="49.068485" xlink:href="#mdba72fa4f7" y="241.52097"/>
      </g>
     </g>
    </g>
    <g id="ytick_9">
     <g id="line2d_27">
      <g>
       <use style="stroke:#000000;stroke-width:0.6;" x="49.068485" xlink:href="#mdba72fa4f7" y="235.897948"/>
      </g>
     </g>
    </g>
    <g id="ytick_10">
     <g id="line2d_28">
      <g>
       <use style="stroke:#000000;stroke-width:0.6;" x="49.068485" xlink:href="#mdba72fa4f7" y="231.027066"/>
      </g>
     </g>
    </g>
    <g id="ytick_11">
     <g id="line2d_29">
      <g>
       <use style="stroke:#000000;stroke-width:0.6;" x="49.068485" xlink:href="#mdba72fa4f7" y="226.730642"/>
      </g>
     </g>
    </g>
    <g id="ytick_12">
     <g id="line2d_30">
      <g>
       <use style="stroke:#000000;stroke-width:0.6;" x="49.068485" xlink:href="#mdba72fa4f7" y="197.603129"/>
      </g>
     </g>
    </g>
    <g id="ytick_13">
     <g id="line2d_31">
      <g>
       <use style="stroke:#000000;stroke-width:0.6;" x="49.068485" xlink:href="#mdba72fa4f7" y="182.812802"/>
      </g>
     </g>
    </g>
    <g id="ytick_14">
     <g id="line2d_32">
      <g>
       <use style="stroke:#000000;stroke-width:0.6;" x="49.068485" xlink:href="#mdba72fa4f7" y="172.318898"/>
      </g>
     </g>
    </g>
    <g id="ytick_15">
     <g id="line2d_33">
      <g>
       <use style="stroke:#000000;stroke-width:0.6;" x="49.068485" xlink:href="#mdba72fa4f7" y="164.179193"/>
      </g>
     </g>
    </g>
    <g id="ytick_16">
     <g id="line2d_34">
      <g>
       <use style="stroke:#000000;stroke-width:0.6;" x="49.068485" xlink:href="#mdba72fa4f7" y="157.52857"/>
      </g>
     </g>
    </g>
    <g id="ytick_17">
     <g id="line2d_35">
      <g>
       <use style="stroke:#000000;stroke-width:0.6;" x="49.068485" xlink:href="#mdba72fa4f7" y="151.905549"/>
      </g>
     </g>
    </g>
    <g id="ytick_18">
     <g id="line2d_36">
      <g>
       <use style="stroke:#000000;stroke-width:0.6;" x="49.068485" xlink:href="#mdba72fa4f7" y="147.034666"/>
      </g>
     </g>
    </g>
    <g id="ytick_19">
     <g id="line2d_37">
      <g>
       <use style="stroke:#000000;stroke-width:0.6;" x="49.068485" xlink:href="#mdba72fa4f7" y="142.738243"/>
      </g>
     </g>
    </g>
    <g id="ytick_20">
     <g id="line2d_38">
      <g>
       <use style="stroke:#000000;stroke-width:0.6;" x="49.068485" xlink:href="#mdba72fa4f7" y="113.61073"/>
      </g>
     </g>
    </g>
    <g id="ytick_21">
     <g id="line2d_39">
      <g>
       <use style="stroke:#000000;stroke-width:0.6;" x="49.068485" xlink:href="#mdba72fa4f7" y="98.820403"/>
      </g>
     </g>
    </g>
    <g id="ytick_22">
     <g id="line2d_40">
      <g>
       <use style="stroke:#000000;stroke-width:0.6;" x="49.068485" xlink:href="#mdba72fa4f7" y="88.326498"/>
      </g>
     </g>
    </g>
    <g id="ytick_23">
     <g id="line2d_41">
      <g>
       <use style="stroke:#000000;stroke-width:0.6;" x="49.068485" xlink:href="#mdba72fa4f7" y="80.186794"/>
      </g>
     </g>
    </g>
    <g id="ytick_24">
     <g id="line2d_42">
      <g>
       <use style="stroke:#000000;stroke-width:0.6;" x="49.068485" xlink:href="#mdba72fa4f7" y="73.536171"/>
      </g>
     </g>
    </g>
    <g id="ytick_25">
     <g id="line2d_43">
      <g>
       <use style="stroke:#000000;stroke-width:0.6;" x="49.068485" xlink:href="#mdba72fa4f7" y="67.913149"/>
      </g>
     </g>
    </g>
    <g id="ytick_26">
     <g id="line2d_44">
      <g>
       <use style="stroke:#000000;stroke-width:0.6;" x="49.068485" xlink:href="#mdba72fa4f7" y="63.042267"/>
      </g>
     </g>
    </g>
    <g id="ytick_27">
     <g id="line2d_45">
      <g>
       <use style="stroke:#000000;stroke-width:0.6;" x="49.068485" xlink:href="#mdba72fa4f7" y="58.745844"/>
      </g>
     </g>
    </g>
    <g id="ytick_28">
     <g id="line2d_46">
      <g>
       <use style="stroke:#000000;stroke-width:0.6;" x="49.068485" xlink:href="#mdba72fa4f7" y="29.61833"/>
      </g>
     </g>
    </g>
    <g id="ytick_29">
     <g id="line2d_47">
      <g>
       <use style="stroke:#000000;stroke-width:0.6;" x="49.068485" xlink:href="#mdba72fa4f7" y="14.828003"/>
      </g>
     </g>
    </g>
    <g id="text_23">
     <!-- Speed-up factor -->
     <defs>
      <path d="M 53.515625 70.515625 
L 53.515625 60.890625 
Q 47.90625 63.578125 42.921875 64.890625 
Q 37.9375 66.21875 33.296875 66.21875 
Q 25.25 66.21875 20.875 63.09375 
Q 16.5 59.96875 16.5 54.203125 
Q 16.5 49.359375 19.40625 46.890625 
Q 22.3125 44.4375 30.421875 42.921875 
L 36.375 41.703125 
Q 47.40625 39.59375 52.65625 34.296875 
Q 57.90625 29 57.90625 20.125 
Q 57.90625 9.515625 50.796875 4.046875 
Q 43.703125 -1.421875 29.984375 -1.421875 
Q 24.8125 -1.421875 18.96875 -0.25 
Q 13.140625 0.921875 6.890625 3.21875 
L 6.890625 13.375 
Q 12.890625 10.015625 18.65625 8.296875 
Q 24.421875 6.59375 29.984375 6.59375 
Q 38.421875 6.59375 43.015625 9.90625 
Q 47.609375 13.234375 47.609375 19.390625 
Q 47.609375 24.75 44.3125 27.78125 
Q 41.015625 30.8125 33.5 32.328125 
L 27.484375 33.5 
Q 16.453125 35.6875 11.515625 40.375 
Q 6.59375 45.0625 6.59375 53.421875 
Q 6.59375 63.09375 13.40625 68.65625 
Q 20.21875 74.21875 32.171875 74.21875 
Q 37.3125 74.21875 42.625 73.28125 
Q 47.953125 72.359375 53.515625 70.515625 
z
" id="DejaVuSans-83"/>
      <path d="M 18.109375 8.203125 
L 18.109375 -20.796875 
L 9.078125 -20.796875 
L 9.078125 54.6875 
L 18.109375 54.6875 
L 18.109375 46.390625 
Q 20.953125 51.265625 25.265625 53.625 
Q 29.59375 56 35.59375 56 
Q 45.5625 56 51.78125 48.09375 
Q 58.015625 40.1875 58.015625 27.296875 
Q 58.015625 14.40625 51.78125 6.484375 
Q 45.5625 -1.421875 35.59375 -1.421875 
Q 29.59375 -1.421875 25.265625 0.953125 
Q 20.953125 3.328125 18.109375 8.203125 
z
M 48.6875 27.296875 
Q 48.6875 37.203125 44.609375 42.84375 
Q 40.53125 48.484375 33.40625 48.484375 
Q 26.265625 48.484375 22.1875 42.84375 
Q 18.109375 37.203125 18.109375 27.296875 
Q 18.109375 17.390625 22.1875 11.75 
Q 26.265625 6.109375 33.40625 6.109375 
Q 40.53125 6.109375 44.609375 11.75 
Q 48.6875 17.390625 48.6875 27.296875 
z
" id="DejaVuSans-112"/>
      <path d="M 45.40625 46.390625 
L 45.40625 75.984375 
L 54.390625 75.984375 
L 54.390625 0 
L 45.40625 0 
L 45.40625 8.203125 
Q 42.578125 3.328125 38.25 0.953125 
Q 33.9375 -1.421875 27.875 -1.421875 
Q 17.96875 -1.421875 11.734375 6.484375 
Q 5.515625 14.40625 5.515625 27.296875 
Q 5.515625 40.1875 11.734375 48.09375 
Q 17.96875 56 27.875 56 
Q 33.9375 56 38.25 53.625 
Q 42.578125 51.265625 45.40625 46.390625 
z
M 14.796875 27.296875 
Q 14.796875 17.390625 18.875 11.75 
Q 22.953125 6.109375 30.078125 6.109375 
Q 37.203125 6.109375 41.296875 11.75 
Q 45.40625 17.390625 45.40625 27.296875 
Q 45.40625 37.203125 41.296875 42.84375 
Q 37.203125 48.484375 30.078125 48.484375 
Q 22.953125 48.484375 18.875 42.84375 
Q 14.796875 37.203125 14.796875 27.296875 
z
" id="DejaVuSans-100"/>
      <path d="M 4.890625 31.390625 
L 31.203125 31.390625 
L 31.203125 23.390625 
L 4.890625 23.390625 
z
" id="DejaVuSans-45"/>
      <path d="M 8.5 21.578125 
L 8.5 54.6875 
L 17.484375 54.6875 
L 17.484375 21.921875 
Q 17.484375 14.15625 20.5 10.265625 
Q 23.53125 6.390625 29.59375 6.390625 
Q 36.859375 6.390625 41.078125 11.03125 
Q 45.3125 15.671875 45.3125 23.6875 
L 45.3125 54.6875 
L 54.296875 54.6875 
L 54.296875 0 
L 45.3125 0 
L 45.3125 8.40625 
Q 42.046875 3.421875 37.71875 1 
Q 33.40625 -1.421875 27.6875 -1.421875 
Q 18.265625 -1.421875 13.375 4.4375 
Q 8.5 10.296875 8.5 21.578125 
z
M 31.109375 56 
z
" id="DejaVuSans-117"/>
      <path id="DejaVuSans-32"/>
      <path d="M 37.109375 75.984375 
L 37.109375 68.5 
L 28.515625 68.5 
Q 23.6875 68.5 21.796875 66.546875 
Q 19.921875 64.59375 19.921875 59.515625 
L 19.921875 54.6875 
L 34.71875 54.6875 
L 34.71875 47.703125 
L 19.921875 47.703125 
L 19.921875 0 
L 10.890625 0 
L 10.890625 47.703125 
L 2.296875 47.703125 
L 2.296875 54.6875 
L 10.890625 54.6875 
L 10.890625 58.5 
Q 10.890625 67.625 15.140625 71.796875 
Q 19.390625 75.984375 28.609375 75.984375 
z
" id="DejaVuSans-102"/>
      <path d="M 48.78125 52.59375 
L 48.78125 44.1875 
Q 44.96875 46.296875 41.140625 47.34375 
Q 37.3125 48.390625 33.40625 48.390625 
Q 24.65625 48.390625 19.8125 42.84375 
Q 14.984375 37.3125 14.984375 27.296875 
Q 14.984375 17.28125 19.8125 11.734375 
Q 24.65625 6.203125 33.40625 6.203125 
Q 37.3125 6.203125 41.140625 7.25 
Q 44.96875 8.296875 48.78125 10.40625 
L 48.78125 2.09375 
Q 45.015625 0.34375 40.984375 -0.53125 
Q 36.96875 -1.421875 32.421875 -1.421875 
Q 20.0625 -1.421875 12.78125 6.34375 
Q 5.515625 14.109375 5.515625 27.296875 
Q 5.515625 40.671875 12.859375 48.328125 
Q 20.21875 56 33.015625 56 
Q 37.15625 56 41.109375 55.140625 
Q 45.0625 54.296875 48.78125 52.59375 
z
" id="DejaVuSans-99"/>
      <path d="M 18.3125 70.21875 
L 18.3125 54.6875 
L 36.8125 54.6875 
L 36.8125 47.703125 
L 18.3125 47.703125 
L 18.3125 18.015625 
Q 18.3125 11.328125 20.140625 9.421875 
Q 21.96875 7.515625 27.59375 7.515625 
L 36.8125 7.515625 
L 36.8125 0 
L 27.59375 0 
Q 17.1875 0 13.234375 3.875 
Q 9.28125 7.765625 9.28125 18.015625 
L 9.28125 47.703125 
L 2.6875 47.703125 
L 2.6875 54.6875 
L 9.28125 54.6875 
L 9.28125 70.21875 
z
" id="DejaVuSans-116"/>
      <path d="M 30.609375 48.390625 
Q 23.390625 48.390625 19.1875 42.75 
Q 14.984375 37.109375 14.984375 27.296875 
Q 14.984375 17.484375 19.15625 11.84375 
Q 23.34375 6.203125 30.609375 6.203125 
Q 37.796875 6.203125 41.984375 11.859375 
Q 46.1875 17.53125 46.1875 27.296875 
Q 46.1875 37.015625 41.984375 42.703125 
Q 37.796875 48.390625 30.609375 48.390625 
z
M 30.609375 56 
Q 42.328125 56 49.015625 48.375 
Q 55.71875 40.765625 55.71875 27.296875 
Q 55.71875 13.875 49.015625 6.21875 
Q 42.328125 -1.421875 30.609375 -1.421875 
Q 18.84375 -1.421875 12.171875 6.21875 
Q 5.515625 13.875 5.515625 27.296875 
Q 5.515625 40.765625 12.171875 48.375 
Q 18.84375 56 30.609375 56 
z
" id="DejaVuSans-111"/>
      <path d="M 41.109375 46.296875 
Q 39.59375 47.171875 37.8125 47.578125 
Q 36.03125 48 33.890625 48 
Q 26.265625 48 22.1875 43.046875 
Q 18.109375 38.09375 18.109375 28.8125 
L 18.109375 0 
L 9.078125 0 
L 9.078125 54.6875 
L 18.109375 54.6875 
L 18.109375 46.1875 
Q 20.953125 51.171875 25.484375 53.578125 
Q 30.03125 56 36.53125 56 
Q 37.453125 56 38.578125 55.875 
Q 39.703125 55.765625 41.0625 55.515625 
z
" id="DejaVuSans-114"/>
     </defs>
     <g transform="translate(18.388797 186.575323)rotate(-90)scale(0.1 -0.1)">
      <use xlink:href="#DejaVuSans-83"/>
      <use x="63.476562" xlink:href="#DejaVuSans-112"/>
      <use x="126.953125" xlink:href="#DejaVuSans-101"/>
      <use x="188.476562" xlink:href="#DejaVuSans-101"/>
      <use x="250" xlink:href="#DejaVuSans-100"/>
      <use x="313.476562" xlink:href="#DejaVuSans-45"/>
      <use x="349.560547" xlink:href="#DejaVuSans-117"/>
      <use x="412.939453" xlink:href="#DejaVuSans-112"/>
      <use x="476.416016" xlink:href="#DejaVuSans-32"/>
      <use x="508.203125" xlink:href="#DejaVuSans-102"/>
      <use x="543.408203" xlink:href="#DejaVuSans-97"/>
      <use x="604.6875" xlink:href="#DejaVuSans-99"/>
      <use x="659.667969" xlink:href="#DejaVuSans-116"/>
      <use x="698.876953" xlink:href="#DejaVuSans-111"/>
      <use x="760.058594" xlink:href="#DejaVuSans-114"/>
     </g>
    </g>
   </g>
   <g id="line2d_48">
    <path clip-path="url(#p2b82aa208a)" d="M 663.30284 282.230334 
L 663.30284 10.8 
" style="fill:none;stroke:#808080;stroke-dasharray:5.55,2.4;stroke-dashoffset:0;stroke-width:1.5;"/>
   </g>
   <g id="line2d_49">
    <path clip-path="url(#p2b82aa208a)" d="M 1118.291252 282.230334 
L 1118.291252 10.8 
" style="fill:none;stroke:#808080;stroke-dasharray:5.55,2.4;stroke-dashoffset:0;stroke-width:1.5;"/>
   </g>
   <g id="patch_93">
    <path d="M 49.068485 282.230334 
L 49.068485 10.8 
" style="fill:none;stroke:#000000;stroke-linecap:square;stroke-linejoin:miter;stroke-width:0.8;"/>
   </g>
   <g id="patch_94">
    <path d="M 1429.2 282.230334 
L 1429.2 10.8 
" style="fill:none;stroke:#000000;stroke-linecap:square;stroke-linejoin:miter;stroke-width:0.8;"/>
   </g>
   <g id="patch_95">
    <path d="M 49.068485 282.230334 
L 1429.2 282.230334 
" style="fill:none;stroke:#000000;stroke-linecap:square;stroke-linejoin:miter;stroke-width:0.8;"/>
   </g>
   <g id="patch_96">
    <path d="M 49.068485 10.8 
L 1429.2 10.8 
" style="fill:none;stroke:#000000;stroke-linecap:square;stroke-linejoin:miter;stroke-width:0.8;"/>
   </g>
   <g id="legend_1">
    <g id="patch_97">
     <path d="M 56.068485 92.190625 
L 134.55286 92.190625 
Q 136.55286 92.190625 136.55286 90.190625 
L 136.55286 17.8 
Q 136.55286 15.8 134.55286 15.8 
L 56.068485 15.8 
Q 54.068485 15.8 54.068485 17.8 
L 54.068485 90.190625 
Q 54.068485 92.190625 56.068485 92.190625 
z
" style="fill:#ffffff;opacity:0.8;stroke:#cccccc;stroke-linejoin:miter;"/>
    </g>
    <g id="patch_98">
     <path d="M 58.068485 27.398437 
L 78.068485 27.398437 
L 78.068485 20.398437 
L 58.068485 20.398437 
z
" style="fill:#ff0000;stroke:#ffffff;stroke-linejoin:miter;"/>
    </g>
    <g id="text_24">
     <!-- YZ -->
     <defs>
      <path d="M -0.203125 72.90625 
L 10.40625 72.90625 
L 30.609375 42.921875 
L 50.6875 72.90625 
L 61.28125 72.90625 
L 35.5 34.71875 
L 35.5 0 
L 25.59375 0 
L 25.59375 34.71875 
z
" id="DejaVuSans-89"/>
      <path d="M 5.609375 72.90625 
L 62.890625 72.90625 
L 62.890625 65.375 
L 16.796875 8.296875 
L 64.015625 8.296875 
L 64.015625 0 
L 4.5 0 
L 4.5 7.515625 
L 50.59375 64.59375 
L 5.609375 64.59375 
z
" id="DejaVuSans-90"/>
     </defs>
     <g transform="translate(86.068485 27.398437)scale(0.1 -0.1)">
      <use xlink:href="#DejaVuSans-89"/>
      <use x="61.083984" xlink:href="#DejaVuSans-90"/>
     </g>
    </g>
    <g id="patch_99">
     <path d="M 58.068485 42.076562 
L 78.068485 42.076562 
L 78.068485 35.076562 
L 58.068485 35.076562 
z
" style="fill:#0000ff;stroke:#ffffff;stroke-linejoin:miter;"/>
    </g>
    <g id="text_25">
     <!-- Z -->
     <g transform="translate(86.068485 42.076562)scale(0.1 -0.1)">
      <use xlink:href="#DejaVuSans-90"/>
     </g>
    </g>
    <g id="patch_100">
     <path d="M 58.068485 56.754687 
L 78.068485 56.754687 
L 78.068485 49.754687 
L 58.068485 49.754687 
z
" style="fill:#bfbf00;stroke:#ffffff;stroke-linejoin:miter;"/>
    </g>
    <g id="text_26">
     <!-- Region S -->
     <defs>
      <path d="M 44.390625 34.1875 
Q 47.5625 33.109375 50.5625 29.59375 
Q 53.5625 26.078125 56.59375 19.921875 
L 66.609375 0 
L 56 0 
L 46.6875 18.703125 
Q 43.0625 26.03125 39.671875 28.421875 
Q 36.28125 30.8125 30.421875 30.8125 
L 19.671875 30.8125 
L 19.671875 0 
L 9.8125 0 
L 9.8125 72.90625 
L 32.078125 72.90625 
Q 44.578125 72.90625 50.734375 67.671875 
Q 56.890625 62.453125 56.890625 51.90625 
Q 56.890625 45.015625 53.6875 40.46875 
Q 50.484375 35.9375 44.390625 34.1875 
z
M 19.671875 64.796875 
L 19.671875 38.921875 
L 32.078125 38.921875 
Q 39.203125 38.921875 42.84375 42.21875 
Q 46.484375 45.515625 46.484375 51.90625 
Q 46.484375 58.296875 42.84375 61.546875 
Q 39.203125 64.796875 32.078125 64.796875 
z
" id="DejaVuSans-82"/>
      <path d="M 9.421875 54.6875 
L 18.40625 54.6875 
L 18.40625 0 
L 9.421875 0 
z
M 9.421875 75.984375 
L 18.40625 75.984375 
L 18.40625 64.59375 
L 9.421875 64.59375 
z
" id="DejaVuSans-105"/>
      <path d="M 54.890625 33.015625 
L 54.890625 0 
L 45.90625 0 
L 45.90625 32.71875 
Q 45.90625 40.484375 42.875 44.328125 
Q 39.84375 48.1875 33.796875 48.1875 
Q 26.515625 48.1875 22.3125 43.546875 
Q 18.109375 38.921875 18.109375 30.90625 
L 18.109375 0 
L 9.078125 0 
L 9.078125 54.6875 
L 18.109375 54.6875 
L 18.109375 46.1875 
Q 21.34375 51.125 25.703125 53.5625 
Q 30.078125 56 35.796875 56 
Q 45.21875 56 50.046875 50.171875 
Q 54.890625 44.34375 54.890625 33.015625 
z
" id="DejaVuSans-110"/>
     </defs>
     <g transform="translate(86.068485 56.754687)scale(0.1 -0.1)">
      <use xlink:href="#DejaVuSans-82"/>
      <use x="69.419922" xlink:href="#DejaVuSans-101"/>
      <use x="130.943359" xlink:href="#DejaVuSans-103"/>
      <use x="194.419922" xlink:href="#DejaVuSans-105"/>
      <use x="222.203125" xlink:href="#DejaVuSans-111"/>
      <use x="283.384766" xlink:href="#DejaVuSans-110"/>
      <use x="346.763672" xlink:href="#DejaVuSans-32"/>
      <use x="378.550781" xlink:href="#DejaVuSans-83"/>
     </g>
    </g>
    <g id="patch_101">
     <path d="M 58.068485 71.432812 
L 78.068485 71.432812 
L 78.068485 64.432812 
L 58.068485 64.432812 
z
" style="fill:#008000;stroke:#ffffff;stroke-linejoin:miter;"/>
    </g>
    <g id="text_27">
     <!-- Region M -->
     <defs>
      <path d="M 9.8125 72.90625 
L 24.515625 72.90625 
L 43.109375 23.296875 
L 61.8125 72.90625 
L 76.515625 72.90625 
L 76.515625 0 
L 66.890625 0 
L 66.890625 64.015625 
L 48.09375 14.015625 
L 38.1875 14.015625 
L 19.390625 64.015625 
L 19.390625 0 
L 9.8125 0 
z
" id="DejaVuSans-77"/>
     </defs>
     <g transform="translate(86.068485 71.432812)scale(0.1 -0.1)">
      <use xlink:href="#DejaVuSans-82"/>
      <use x="69.419922" xlink:href="#DejaVuSans-101"/>
      <use x="130.943359" xlink:href="#DejaVuSans-103"/>
      <use x="194.419922" xlink:href="#DejaVuSans-105"/>
      <use x="222.203125" xlink:href="#DejaVuSans-111"/>
      <use x="283.384766" xlink:href="#DejaVuSans-110"/>
      <use x="346.763672" xlink:href="#DejaVuSans-32"/>
      <use x="378.550781" xlink:href="#DejaVuSans-77"/>
     </g>
    </g>
    <g id="patch_102">
     <path d="M 58.068485 86.110937 
L 78.068485 86.110937 
L 78.068485 79.110937 
L 58.068485 79.110937 
z
" style="fill:#00bfbf;stroke:#ffffff;stroke-linejoin:miter;"/>
    </g>
    <g id="text_28">
     <!-- Region L -->
     <defs>
      <path d="M 9.8125 72.90625 
L 19.671875 72.90625 
L 19.671875 8.296875 
L 55.171875 8.296875 
L 55.171875 0 
L 9.8125 0 
z
" id="DejaVuSans-76"/>
     </defs>
     <g transform="translate(86.068485 86.110937)scale(0.1 -0.1)">
      <use xlink:href="#DejaVuSans-82"/>
      <use x="69.419922" xlink:href="#DejaVuSans-101"/>
      <use x="130.943359" xlink:href="#DejaVuSans-103"/>
      <use x="194.419922" xlink:href="#DejaVuSans-105"/>
      <use x="222.203125" xlink:href="#DejaVuSans-111"/>
      <use x="283.384766" xlink:href="#DejaVuSans-110"/>
      <use x="346.763672" xlink:href="#DejaVuSans-32"/>
      <use x="378.550781" xlink:href="#DejaVuSans-76"/>
     </g>
    </g>
   </g>
  </g>
 </g>
 <defs>
  <clipPath id="p2b82aa208a">
   <rect height="271.430334" width="1380.131515" x="49.068485" y="10.8"/>
  </clipPath>
 </defs>
</svg>
