<?xml version="1.0" encoding="utf-8" standalone="no"?>
<!DOCTYPE svg PUBLIC "-//W3C//DTD SVG 1.1//EN"
  "http://www.w3.org/Graphics/SVG/1.1/DTD/svg11.dtd">
<!-- Created with matplotlib (https://matplotlib.org/) -->
<svg height="720pt" version="1.1" viewBox="0 0 720 720" width="720pt" xmlns="http://www.w3.org/2000/svg" xmlns:xlink="http://www.w3.org/1999/xlink">
 <defs>
  <style type="text/css">
*{stroke-linecap:butt;stroke-linejoin:round;}
  </style>
 </defs>
 <g id="figure_1">
  <g id="patch_1">
   <path d="M 0 720 
L 720 720 
L 720 0 
L 0 0 
z
" style="fill:#ffffff;"/>
  </g>
  <g id="axes_1">
   <g id="patch_2">
    <path d="M 90 249.458824 
L 648 249.458824 
L 648 86.4 
L 90 86.4 
z
" style="fill:#ffffff;"/>
   </g>
   <g id="patch_3">
    <path clip-path="url(#pba353794c5)" d="M 115.363636 50072.396704 
L 125.737365 50072.396704 
L 125.737365 161.515651 
L 115.363636 161.515651 
z
" style="fill:#ff0000;stroke:#ffffff;stroke-linejoin:miter;"/>
   </g>
   <g id="patch_4">
    <path clip-path="url(#pba353794c5)" d="M 184.521826 50072.396704 
L 194.895554 50072.396704 
L 194.895554 170.43532 
L 184.521826 170.43532 
z
" style="fill:#ff0000;stroke:#ffffff;stroke-linejoin:miter;"/>
   </g>
   <g id="patch_5">
    <path clip-path="url(#pba353794c5)" d="M 253.680016 50072.396704 
L 264.053744 50072.396704 
L 264.053744 161.96033 
L 253.680016 161.96033 
z
" style="fill:#ff0000;stroke:#ffffff;stroke-linejoin:miter;"/>
   </g>
   <g id="patch_6">
    <path clip-path="url(#pba353794c5)" d="M 322.838205 50072.396704 
L 333.211934 50072.396704 
L 333.211934 165.345524 
L 322.838205 165.345524 
z
" style="fill:#ff0000;stroke:#ffffff;stroke-linejoin:miter;"/>
   </g>
   <g id="patch_7">
    <path clip-path="url(#pba353794c5)" d="M 391.996395 50072.396704 
L 402.370123 50072.396704 
L 402.370123 163.959116 
L 391.996395 163.959116 
z
" style="fill:#ff0000;stroke:#ffffff;stroke-linejoin:miter;"/>
   </g>
   <g id="patch_8">
    <path clip-path="url(#pba353794c5)" d="M 461.154584 50072.396704 
L 471.528313 50072.396704 
L 471.528313 153.713842 
L 461.154584 153.713842 
z
" style="fill:#ff0000;stroke:#ffffff;stroke-linejoin:miter;"/>
   </g>
   <g id="patch_9">
    <path clip-path="url(#pba353794c5)" d="M 530.312774 50072.396704 
L 540.686502 50072.396704 
L 540.686502 140.337809 
L 530.312774 140.337809 
z
" style="fill:#ff0000;stroke:#ffffff;stroke-linejoin:miter;"/>
   </g>
   <g id="patch_10">
    <path clip-path="url(#pba353794c5)" d="M 570.767721 50072.396704 
L 581.14145 50072.396704 
L 581.14145 140.23247 
L 570.767721 140.23247 
z
" style="fill:#ff0000;stroke:#ffffff;stroke-linejoin:miter;"/>
   </g>
   <g id="patch_11">
    <path clip-path="url(#pba353794c5)" d="M 125.737365 50072.396704 
L 136.111093 50072.396704 
L 136.111093 202.585817 
L 125.737365 202.585817 
z
" style="fill:#0000ff;stroke:#ffffff;stroke-linejoin:miter;"/>
   </g>
   <g id="patch_12">
    <path clip-path="url(#pba353794c5)" d="M 194.895554 50072.396704 
L 205.269283 50072.396704 
L 205.269283 179.017562 
L 194.895554 179.017562 
z
" style="fill:#0000ff;stroke:#ffffff;stroke-linejoin:miter;"/>
   </g>
   <g id="patch_13">
    <path clip-path="url(#pba353794c5)" d="M 264.053744 50072.396704 
L 274.427472 50072.396704 
L 274.427472 164.093136 
L 264.053744 164.093136 
z
" style="fill:#0000ff;stroke:#ffffff;stroke-linejoin:miter;"/>
   </g>
   <g id="patch_14">
    <path clip-path="url(#pba353794c5)" d="M 333.211934 50072.396704 
L 343.585662 50072.396704 
L 343.585662 165.809637 
L 333.211934 165.809637 
z
" style="fill:#0000ff;stroke:#ffffff;stroke-linejoin:miter;"/>
   </g>
   <g id="patch_15">
    <path clip-path="url(#pba353794c5)" d="M 402.370123 50072.396704 
L 412.743852 50072.396704 
L 412.743852 125.28782 
L 402.370123 125.28782 
z
" style="fill:#0000ff;stroke:#ffffff;stroke-linejoin:miter;"/>
   </g>
   <g id="patch_16">
    <path clip-path="url(#pba353794c5)" d="M 471.528313 50072.396704 
L 481.902041 50072.396704 
L 481.902041 124.512451 
L 471.528313 124.512451 
z
" style="fill:#0000ff;stroke:#ffffff;stroke-linejoin:miter;"/>
   </g>
   <g id="patch_17">
    <path clip-path="url(#pba353794c5)" d="M 540.686502 50072.396704 
L 551.060231 50072.396704 
L 551.060231 114.08609 
L 540.686502 114.08609 
z
" style="fill:#0000ff;stroke:#ffffff;stroke-linejoin:miter;"/>
   </g>
   <g id="patch_18">
    <path clip-path="url(#pba353794c5)" d="M 581.14145 50072.396704 
L 591.515178 50072.396704 
L 591.515178 93.811765 
L 581.14145 93.811765 
z
" style="fill:#0000ff;stroke:#ffffff;stroke-linejoin:miter;"/>
   </g>
   <g id="patch_19">
    <path clip-path="url(#pba353794c5)" d="M 136.111093 50072.396704 
L 146.484822 50072.396704 
L 146.484822 242.335971 
L 136.111093 242.335971 
z
" style="fill:#bfbf00;stroke:#ffffff;stroke-linejoin:miter;"/>
   </g>
   <g id="patch_20">
    <path clip-path="url(#pba353794c5)" d="M 205.269283 50072.396704 
L 215.643011 50072.396704 
L 215.643011 244.120443 
L 205.269283 244.120443 
z
" style="fill:#bfbf00;stroke:#ffffff;stroke-linejoin:miter;"/>
   </g>
   <g id="patch_21">
    <path clip-path="url(#pba353794c5)" d="M 274.427472 50072.396704 
L 284.801201 50072.396704 
L 284.801201 211.436017 
L 274.427472 211.436017 
z
" style="fill:#bfbf00;stroke:#ffffff;stroke-linejoin:miter;"/>
   </g>
   <g id="patch_22">
    <path clip-path="url(#pba353794c5)" d="M 343.585662 50072.396704 
L 353.95939 50072.396704 
L 353.95939 202.57545 
L 343.585662 202.57545 
z
" style="fill:#bfbf00;stroke:#ffffff;stroke-linejoin:miter;"/>
   </g>
   <g id="patch_23">
    <path clip-path="url(#pba353794c5)" d="M 412.743852 50072.396704 
L 423.11758 50072.396704 
L 423.11758 189.458481 
L 412.743852 189.458481 
z
" style="fill:#bfbf00;stroke:#ffffff;stroke-linejoin:miter;"/>
   </g>
   <g id="patch_24">
    <path clip-path="url(#pba353794c5)" d="M 481.902041 50072.396704 
L 492.27577 50072.396704 
L 492.27577 179.252322 
L 481.902041 179.252322 
z
" style="fill:#bfbf00;stroke:#ffffff;stroke-linejoin:miter;"/>
   </g>
   <g id="patch_25">
    <path clip-path="url(#pba353794c5)" d="M 551.060231 50072.396704 
L 561.433959 50072.396704 
L 561.433959 177.734566 
L 551.060231 177.734566 
z
" style="fill:#bfbf00;stroke:#ffffff;stroke-linejoin:miter;"/>
   </g>
   <g id="patch_26">
    <path clip-path="url(#pba353794c5)" d="M 591.515178 50072.396704 
L 601.888907 50072.396704 
L 601.888907 170.204919 
L 591.515178 170.204919 
z
" style="fill:#bfbf00;stroke:#ffffff;stroke-linejoin:miter;"/>
   </g>
   <g id="patch_27">
    <path clip-path="url(#pba353794c5)" d="M 146.484822 50072.396704 
L 156.85855 50072.396704 
L 156.85855 255.364582 
L 146.484822 255.364582 
z
" style="fill:#008000;stroke:#ffffff;stroke-linejoin:miter;"/>
   </g>
   <g id="patch_28">
    <path clip-path="url(#pba353794c5)" d="M 215.643011 50072.396704 
L 226.01674 50072.396704 
L 226.01674 223.884111 
L 215.643011 223.884111 
z
" style="fill:#008000;stroke:#ffffff;stroke-linejoin:miter;"/>
   </g>
   <g id="patch_29">
    <path clip-path="url(#pba353794c5)" d="M 284.801201 50072.396704 
L 295.174929 50072.396704 
L 295.174929 205.373353 
L 284.801201 205.373353 
z
" style="fill:#008000;stroke:#ffffff;stroke-linejoin:miter;"/>
   </g>
   <g id="patch_30">
    <path clip-path="url(#pba353794c5)" d="M 353.95939 50072.396704 
L 364.333119 50072.396704 
L 364.333119 205.981473 
L 353.95939 205.981473 
z
" style="fill:#008000;stroke:#ffffff;stroke-linejoin:miter;"/>
   </g>
   <g id="patch_31">
    <path clip-path="url(#pba353794c5)" d="M 423.11758 50072.396704 
L 433.491308 50072.396704 
L 433.491308 204.383888 
L 423.11758 204.383888 
z
" style="fill:#008000;stroke:#ffffff;stroke-linejoin:miter;"/>
   </g>
   <g id="patch_32">
    <path clip-path="url(#pba353794c5)" d="M 492.27577 50072.396704 
L 502.649498 50072.396704 
L 502.649498 194.703433 
L 492.27577 194.703433 
z
" style="fill:#008000;stroke:#ffffff;stroke-linejoin:miter;"/>
   </g>
   <g id="patch_33">
    <path clip-path="url(#pba353794c5)" d="M 561.433959 50072.396704 
L 571.807688 50072.396704 
L 571.807688 197.801398 
L 561.433959 197.801398 
z
" style="fill:#008000;stroke:#ffffff;stroke-linejoin:miter;"/>
   </g>
   <g id="patch_34">
    <path clip-path="url(#pba353794c5)" d="M 601.888907 50072.396704 
L 612.262635 50072.396704 
L 612.262635 196.363695 
L 601.888907 196.363695 
z
" style="fill:#008000;stroke:#ffffff;stroke-linejoin:miter;"/>
   </g>
   <g id="patch_35">
    <path clip-path="url(#pba353794c5)" d="M 156.85855 50072.396704 
L 167.232279 50072.396704 
L 167.232279 239.768311 
L 156.85855 239.768311 
z
" style="fill:#00bfbf;stroke:#ffffff;stroke-linejoin:miter;"/>
   </g>
   <g id="patch_36">
    <path clip-path="url(#pba353794c5)" d="M 226.01674 50072.396704 
L 236.390468 50072.396704 
L 236.390468 212.289877 
L 226.01674 212.289877 
z
" style="fill:#00bfbf;stroke:#ffffff;stroke-linejoin:miter;"/>
   </g>
   <g id="patch_37">
    <path clip-path="url(#pba353794c5)" d="M 295.174929 50072.396704 
L 305.548658 50072.396704 
L 305.548658 212.751042 
L 295.174929 212.751042 
z
" style="fill:#00bfbf;stroke:#ffffff;stroke-linejoin:miter;"/>
   </g>
   <g id="patch_38">
    <path clip-path="url(#pba353794c5)" d="M 364.333119 50072.396704 
L 374.706847 50072.396704 
L 374.706847 219.958111 
L 364.333119 219.958111 
z
" style="fill:#00bfbf;stroke:#ffffff;stroke-linejoin:miter;"/>
   </g>
   <g id="patch_39">
    <path clip-path="url(#pba353794c5)" d="M 433.491308 50072.396704 
L 443.865037 50072.396704 
L 443.865037 225.635296 
L 433.491308 225.635296 
z
" style="fill:#00bfbf;stroke:#ffffff;stroke-linejoin:miter;"/>
   </g>
   <g id="patch_40">
    <path clip-path="url(#pba353794c5)" d="M 502.649498 50072.396704 
L 513.023227 50072.396704 
L 513.023227 207.934488 
L 502.649498 207.934488 
z
" style="fill:#00bfbf;stroke:#ffffff;stroke-linejoin:miter;"/>
   </g>
   <g id="patch_41">
    <path clip-path="url(#pba353794c5)" d="M 571.807688 50072.396704 
L 582.181416 50072.396704 
L 582.181416 210.684665 
L 571.807688 210.684665 
z
" style="fill:#00bfbf;stroke:#ffffff;stroke-linejoin:miter;"/>
   </g>
   <g id="patch_42">
    <path clip-path="url(#pba353794c5)" d="M 612.262635 50072.396704 
L 622.636364 50072.396704 
L 622.636364 216.085115 
L 612.262635 216.085115 
z
" style="fill:#00bfbf;stroke:#ffffff;stroke-linejoin:miter;"/>
   </g>
   <g id="matplotlib.axis_1">
    <g id="xtick_1">
     <g id="line2d_1">
      <defs>
       <path d="M 0 0 
L 0 3.5 
" id="m490798f534" style="stroke:#000000;stroke-width:0.8;"/>
      </defs>
      <g>
       <use style="stroke:#000000;stroke-width:0.8;" x="141.297957" xlink:href="#m490798f534" y="249.458824"/>
      </g>
     </g>
    </g>
    <g id="xtick_2">
     <g id="line2d_2">
      <g>
       <use style="stroke:#000000;stroke-width:0.8;" x="210.456147" xlink:href="#m490798f534" y="249.458824"/>
      </g>
     </g>
    </g>
    <g id="xtick_3">
     <g id="line2d_3">
      <g>
       <use style="stroke:#000000;stroke-width:0.8;" x="279.614337" xlink:href="#m490798f534" y="249.458824"/>
      </g>
     </g>
    </g>
    <g id="xtick_4">
     <g id="line2d_4">
      <g>
       <use style="stroke:#000000;stroke-width:0.8;" x="320.069284" xlink:href="#m490798f534" y="249.458824"/>
      </g>
     </g>
    </g>
    <g id="xtick_5">
     <g id="line2d_5">
      <g>
       <use style="stroke:#000000;stroke-width:0.8;" x="348.772526" xlink:href="#m490798f534" y="249.458824"/>
      </g>
     </g>
    </g>
    <g id="xtick_6">
     <g id="line2d_6">
      <g>
       <use style="stroke:#000000;stroke-width:0.8;" x="417.930716" xlink:href="#m490798f534" y="249.458824"/>
      </g>
     </g>
    </g>
    <g id="xtick_7">
     <g id="line2d_7">
      <g>
       <use style="stroke:#000000;stroke-width:0.8;" x="458.385663" xlink:href="#m490798f534" y="249.458824"/>
      </g>
     </g>
    </g>
    <g id="xtick_8">
     <g id="line2d_8">
      <g>
       <use style="stroke:#000000;stroke-width:0.8;" x="487.088905" xlink:href="#m490798f534" y="249.458824"/>
      </g>
     </g>
    </g>
    <g id="xtick_9">
     <g id="line2d_9">
      <g>
       <use style="stroke:#000000;stroke-width:0.8;" x="556.247095" xlink:href="#m490798f534" y="249.458824"/>
      </g>
     </g>
    </g>
    <g id="xtick_10">
     <g id="line2d_10">
      <g>
       <use style="stroke:#000000;stroke-width:0.8;" x="596.702043" xlink:href="#m490798f534" y="249.458824"/>
      </g>
     </g>
    </g>
   </g>
   <g id="matplotlib.axis_2">
    <g id="ytick_1">
     <g id="line2d_11">
      <defs>
       <path d="M 0 0 
L -3.5 0 
" id="md7113420f6" style="stroke:#000000;stroke-width:0.8;"/>
      </defs>
      <g>
       <use style="stroke:#000000;stroke-width:0.8;" x="90" xlink:href="#md7113420f6" y="222.050506"/>
      </g>
     </g>
     <g id="text_1">
      <!-- $\mathdefault{10^{1}}$ -->
      <defs>
       <path d="M 12.40625 8.296875 
L 28.515625 8.296875 
L 28.515625 63.921875 
L 10.984375 60.40625 
L 10.984375 69.390625 
L 28.421875 72.90625 
L 38.28125 72.90625 
L 38.28125 8.296875 
L 54.390625 8.296875 
L 54.390625 0 
L 12.40625 0 
z
" id="DejaVuSans-49"/>
       <path d="M 31.78125 66.40625 
Q 24.171875 66.40625 20.328125 58.90625 
Q 16.5 51.421875 16.5 36.375 
Q 16.5 21.390625 20.328125 13.890625 
Q 24.171875 6.390625 31.78125 6.390625 
Q 39.453125 6.390625 43.28125 13.890625 
Q 47.125 21.390625 47.125 36.375 
Q 47.125 51.421875 43.28125 58.90625 
Q 39.453125 66.40625 31.78125 66.40625 
z
M 31.78125 74.21875 
Q 44.046875 74.21875 50.515625 64.515625 
Q 56.984375 54.828125 56.984375 36.375 
Q 56.984375 17.96875 50.515625 8.265625 
Q 44.046875 -1.421875 31.78125 -1.421875 
Q 19.53125 -1.421875 13.0625 8.265625 
Q 6.59375 17.96875 6.59375 36.375 
Q 6.59375 54.828125 13.0625 64.515625 
Q 19.53125 74.21875 31.78125 74.21875 
z
" id="DejaVuSans-48"/>
      </defs>
      <g transform="translate(65.4 225.849725)scale(0.1 -0.1)">
       <use transform="translate(0 0.684375)" xlink:href="#DejaVuSans-49"/>
       <use transform="translate(63.623047 0.684375)" xlink:href="#DejaVuSans-48"/>
       <use transform="translate(128.203125 38.965625)scale(0.7)" xlink:href="#DejaVuSans-49"/>
      </g>
     </g>
    </g>
    <g id="ytick_2">
     <g id="line2d_12">
      <g>
       <use style="stroke:#000000;stroke-width:0.8;" x="90" xlink:href="#md7113420f6" y="172.249961"/>
      </g>
     </g>
     <g id="text_2">
      <!-- $\mathdefault{10^{2}}$ -->
      <defs>
       <path d="M 19.1875 8.296875 
L 53.609375 8.296875 
L 53.609375 0 
L 7.328125 0 
L 7.328125 8.296875 
Q 12.9375 14.109375 22.625 23.890625 
Q 32.328125 33.6875 34.8125 36.53125 
Q 39.546875 41.84375 41.421875 45.53125 
Q 43.3125 49.21875 43.3125 52.78125 
Q 43.3125 58.59375 39.234375 62.25 
Q 35.15625 65.921875 28.609375 65.921875 
Q 23.96875 65.921875 18.8125 64.3125 
Q 13.671875 62.703125 7.8125 59.421875 
L 7.8125 69.390625 
Q 13.765625 71.78125 18.9375 73 
Q 24.125 74.21875 28.421875 74.21875 
Q 39.75 74.21875 46.484375 68.546875 
Q 53.21875 62.890625 53.21875 53.421875 
Q 53.21875 48.921875 51.53125 44.890625 
Q 49.859375 40.875 45.40625 35.40625 
Q 44.1875 33.984375 37.640625 27.21875 
Q 31.109375 20.453125 19.1875 8.296875 
z
" id="DejaVuSans-50"/>
      </defs>
      <g transform="translate(65.4 176.049179)scale(0.1 -0.1)">
       <use transform="translate(0 0.765625)" xlink:href="#DejaVuSans-49"/>
       <use transform="translate(63.623047 0.765625)" xlink:href="#DejaVuSans-48"/>
       <use transform="translate(128.203125 39.046875)scale(0.7)" xlink:href="#DejaVuSans-50"/>
      </g>
     </g>
    </g>
    <g id="ytick_3">
     <g id="line2d_13">
      <g>
       <use style="stroke:#000000;stroke-width:0.8;" x="90" xlink:href="#md7113420f6" y="122.449415"/>
      </g>
     </g>
     <g id="text_3">
      <!-- $\mathdefault{10^{3}}$ -->
      <defs>
       <path d="M 40.578125 39.3125 
Q 47.65625 37.796875 51.625 33 
Q 55.609375 28.21875 55.609375 21.1875 
Q 55.609375 10.40625 48.1875 4.484375 
Q 40.765625 -1.421875 27.09375 -1.421875 
Q 22.515625 -1.421875 17.65625 -0.515625 
Q 12.796875 0.390625 7.625 2.203125 
L 7.625 11.71875 
Q 11.71875 9.328125 16.59375 8.109375 
Q 21.484375 6.890625 26.8125 6.890625 
Q 36.078125 6.890625 40.9375 10.546875 
Q 45.796875 14.203125 45.796875 21.1875 
Q 45.796875 27.640625 41.28125 31.265625 
Q 36.765625 34.90625 28.71875 34.90625 
L 20.21875 34.90625 
L 20.21875 43.015625 
L 29.109375 43.015625 
Q 36.375 43.015625 40.234375 45.921875 
Q 44.09375 48.828125 44.09375 54.296875 
Q 44.09375 59.90625 40.109375 62.90625 
Q 36.140625 65.921875 28.71875 65.921875 
Q 24.65625 65.921875 20.015625 65.03125 
Q 15.375 64.15625 9.8125 62.3125 
L 9.8125 71.09375 
Q 15.4375 72.65625 20.34375 73.4375 
Q 25.25 74.21875 29.59375 74.21875 
Q 40.828125 74.21875 47.359375 69.109375 
Q 53.90625 64.015625 53.90625 55.328125 
Q 53.90625 49.265625 50.4375 45.09375 
Q 46.96875 40.921875 40.578125 39.3125 
z
" id="DejaVuSans-51"/>
      </defs>
      <g transform="translate(65.4 126.248634)scale(0.1 -0.1)">
       <use transform="translate(0 0.765625)" xlink:href="#DejaVuSans-49"/>
       <use transform="translate(63.623047 0.765625)" xlink:href="#DejaVuSans-48"/>
       <use transform="translate(128.203125 39.046875)scale(0.7)" xlink:href="#DejaVuSans-51"/>
      </g>
     </g>
    </g>
    <g id="ytick_4">
     <g id="line2d_14">
      <defs>
       <path d="M 0 0 
L -2 0 
" id="m6673aa757a" style="stroke:#000000;stroke-width:0.6;"/>
      </defs>
      <g>
       <use style="stroke:#000000;stroke-width:0.6;" x="90" xlink:href="#m6673aa757a" y="248.090153"/>
      </g>
     </g>
    </g>
    <g id="ytick_5">
     <g id="line2d_15">
      <g>
       <use style="stroke:#000000;stroke-width:0.6;" x="90" xlink:href="#m6673aa757a" y="241.868136"/>
      </g>
     </g>
    </g>
    <g id="ytick_6">
     <g id="line2d_16">
      <g>
       <use style="stroke:#000000;stroke-width:0.6;" x="90" xlink:href="#m6673aa757a" y="237.041964"/>
      </g>
     </g>
    </g>
    <g id="ytick_7">
     <g id="line2d_17">
      <g>
       <use style="stroke:#000000;stroke-width:0.6;" x="90" xlink:href="#m6673aa757a" y="233.098695"/>
      </g>
     </g>
    </g>
    <g id="ytick_8">
     <g id="line2d_18">
      <g>
       <use style="stroke:#000000;stroke-width:0.6;" x="90" xlink:href="#m6673aa757a" y="229.764709"/>
      </g>
     </g>
    </g>
    <g id="ytick_9">
     <g id="line2d_19">
      <g>
       <use style="stroke:#000000;stroke-width:0.6;" x="90" xlink:href="#m6673aa757a" y="226.876678"/>
      </g>
     </g>
    </g>
    <g id="ytick_10">
     <g id="line2d_20">
      <g>
       <use style="stroke:#000000;stroke-width:0.6;" x="90" xlink:href="#m6673aa757a" y="224.329254"/>
      </g>
     </g>
    </g>
    <g id="ytick_11">
     <g id="line2d_21">
      <g>
       <use style="stroke:#000000;stroke-width:0.6;" x="90" xlink:href="#m6673aa757a" y="207.059048"/>
      </g>
     </g>
    </g>
    <g id="ytick_12">
     <g id="line2d_22">
      <g>
       <use style="stroke:#000000;stroke-width:0.6;" x="90" xlink:href="#m6673aa757a" y="198.289608"/>
      </g>
     </g>
    </g>
    <g id="ytick_13">
     <g id="line2d_23">
      <g>
       <use style="stroke:#000000;stroke-width:0.6;" x="90" xlink:href="#m6673aa757a" y="192.06759"/>
      </g>
     </g>
    </g>
    <g id="ytick_14">
     <g id="line2d_24">
      <g>
       <use style="stroke:#000000;stroke-width:0.6;" x="90" xlink:href="#m6673aa757a" y="187.241419"/>
      </g>
     </g>
    </g>
    <g id="ytick_15">
     <g id="line2d_25">
      <g>
       <use style="stroke:#000000;stroke-width:0.6;" x="90" xlink:href="#m6673aa757a" y="183.29815"/>
      </g>
     </g>
    </g>
    <g id="ytick_16">
     <g id="line2d_26">
      <g>
       <use style="stroke:#000000;stroke-width:0.6;" x="90" xlink:href="#m6673aa757a" y="179.964163"/>
      </g>
     </g>
    </g>
    <g id="ytick_17">
     <g id="line2d_27">
      <g>
       <use style="stroke:#000000;stroke-width:0.6;" x="90" xlink:href="#m6673aa757a" y="177.076132"/>
      </g>
     </g>
    </g>
    <g id="ytick_18">
     <g id="line2d_28">
      <g>
       <use style="stroke:#000000;stroke-width:0.6;" x="90" xlink:href="#m6673aa757a" y="174.528709"/>
      </g>
     </g>
    </g>
    <g id="ytick_19">
     <g id="line2d_29">
      <g>
       <use style="stroke:#000000;stroke-width:0.6;" x="90" xlink:href="#m6673aa757a" y="157.258503"/>
      </g>
     </g>
    </g>
    <g id="ytick_20">
     <g id="line2d_30">
      <g>
       <use style="stroke:#000000;stroke-width:0.6;" x="90" xlink:href="#m6673aa757a" y="148.489062"/>
      </g>
     </g>
    </g>
    <g id="ytick_21">
     <g id="line2d_31">
      <g>
       <use style="stroke:#000000;stroke-width:0.6;" x="90" xlink:href="#m6673aa757a" y="142.267045"/>
      </g>
     </g>
    </g>
    <g id="ytick_22">
     <g id="line2d_32">
      <g>
       <use style="stroke:#000000;stroke-width:0.6;" x="90" xlink:href="#m6673aa757a" y="137.440873"/>
      </g>
     </g>
    </g>
    <g id="ytick_23">
     <g id="line2d_33">
      <g>
       <use style="stroke:#000000;stroke-width:0.6;" x="90" xlink:href="#m6673aa757a" y="133.497604"/>
      </g>
     </g>
    </g>
    <g id="ytick_24">
     <g id="line2d_34">
      <g>
       <use style="stroke:#000000;stroke-width:0.6;" x="90" xlink:href="#m6673aa757a" y="130.163617"/>
      </g>
     </g>
    </g>
    <g id="ytick_25">
     <g id="line2d_35">
      <g>
       <use style="stroke:#000000;stroke-width:0.6;" x="90" xlink:href="#m6673aa757a" y="127.275587"/>
      </g>
     </g>
    </g>
    <g id="ytick_26">
     <g id="line2d_36">
      <g>
       <use style="stroke:#000000;stroke-width:0.6;" x="90" xlink:href="#m6673aa757a" y="124.728163"/>
      </g>
     </g>
    </g>
    <g id="ytick_27">
     <g id="line2d_37">
      <g>
       <use style="stroke:#000000;stroke-width:0.6;" x="90" xlink:href="#m6673aa757a" y="107.457957"/>
      </g>
     </g>
    </g>
    <g id="ytick_28">
     <g id="line2d_38">
      <g>
       <use style="stroke:#000000;stroke-width:0.6;" x="90" xlink:href="#m6673aa757a" y="98.688516"/>
      </g>
     </g>
    </g>
    <g id="ytick_29">
     <g id="line2d_39">
      <g>
       <use style="stroke:#000000;stroke-width:0.6;" x="90" xlink:href="#m6673aa757a" y="92.466499"/>
      </g>
     </g>
    </g>
    <g id="ytick_30">
     <g id="line2d_40">
      <g>
       <use style="stroke:#000000;stroke-width:0.6;" x="90" xlink:href="#m6673aa757a" y="87.640327"/>
      </g>
     </g>
    </g>
   </g>
   <g id="patch_43">
    <path d="M 90 249.458824 
L 90 86.4 
" style="fill:none;stroke:#000000;stroke-linecap:square;stroke-linejoin:miter;stroke-width:0.8;"/>
   </g>
   <g id="patch_44">
    <path d="M 648 249.458824 
L 648 86.4 
" style="fill:none;stroke:#000000;stroke-linecap:square;stroke-linejoin:miter;stroke-width:0.8;"/>
   </g>
   <g id="patch_45">
    <path d="M 90 249.458824 
L 648 249.458824 
" style="fill:none;stroke:#000000;stroke-linecap:square;stroke-linejoin:miter;stroke-width:0.8;"/>
   </g>
   <g id="patch_46">
    <path d="M 90 86.4 
L 648 86.4 
" style="fill:none;stroke:#000000;stroke-linecap:square;stroke-linejoin:miter;stroke-width:0.8;"/>
   </g>
   <g id="text_4">
    <!-- 2048x2048 image -->
    <defs>
     <path d="M 37.796875 64.3125 
L 12.890625 25.390625 
L 37.796875 25.390625 
z
M 35.203125 72.90625 
L 47.609375 72.90625 
L 47.609375 25.390625 
L 58.015625 25.390625 
L 58.015625 17.1875 
L 47.609375 17.1875 
L 47.609375 0 
L 37.796875 0 
L 37.796875 17.1875 
L 4.890625 17.1875 
L 4.890625 26.703125 
z
" id="DejaVuSans-52"/>
     <path d="M 31.78125 34.625 
Q 24.75 34.625 20.71875 30.859375 
Q 16.703125 27.09375 16.703125 20.515625 
Q 16.703125 13.921875 20.71875 10.15625 
Q 24.75 6.390625 31.78125 6.390625 
Q 38.8125 6.390625 42.859375 10.171875 
Q 46.921875 13.96875 46.921875 20.515625 
Q 46.921875 27.09375 42.890625 30.859375 
Q 38.875 34.625 31.78125 34.625 
z
M 21.921875 38.8125 
Q 15.578125 40.375 12.03125 44.71875 
Q 8.5 49.078125 8.5 55.328125 
Q 8.5 64.0625 14.71875 69.140625 
Q 20.953125 74.21875 31.78125 74.21875 
Q 42.671875 74.21875 48.875 69.140625 
Q 55.078125 64.0625 55.078125 55.328125 
Q 55.078125 49.078125 51.53125 44.71875 
Q 48 40.375 41.703125 38.8125 
Q 48.828125 37.15625 52.796875 32.3125 
Q 56.78125 27.484375 56.78125 20.515625 
Q 56.78125 9.90625 50.3125 4.234375 
Q 43.84375 -1.421875 31.78125 -1.421875 
Q 19.734375 -1.421875 13.25 4.234375 
Q 6.78125 9.90625 6.78125 20.515625 
Q 6.78125 27.484375 10.78125 32.3125 
Q 14.796875 37.15625 21.921875 38.8125 
z
M 18.3125 54.390625 
Q 18.3125 48.734375 21.84375 45.5625 
Q 25.390625 42.390625 31.78125 42.390625 
Q 38.140625 42.390625 41.71875 45.5625 
Q 45.3125 48.734375 45.3125 54.390625 
Q 45.3125 60.0625 41.71875 63.234375 
Q 38.140625 66.40625 31.78125 66.40625 
Q 25.390625 66.40625 21.84375 63.234375 
Q 18.3125 60.0625 18.3125 54.390625 
z
" id="DejaVuSans-56"/>
     <path d="M 54.890625 54.6875 
L 35.109375 28.078125 
L 55.90625 0 
L 45.3125 0 
L 29.390625 21.484375 
L 13.484375 0 
L 2.875 0 
L 24.125 28.609375 
L 4.6875 54.6875 
L 15.28125 54.6875 
L 29.78125 35.203125 
L 44.28125 54.6875 
z
" id="DejaVuSans-120"/>
     <path id="DejaVuSans-32"/>
     <path d="M 9.421875 54.6875 
L 18.40625 54.6875 
L 18.40625 0 
L 9.421875 0 
z
M 9.421875 75.984375 
L 18.40625 75.984375 
L 18.40625 64.59375 
L 9.421875 64.59375 
z
" id="DejaVuSans-105"/>
     <path d="M 52 44.1875 
Q 55.375 50.25 60.0625 53.125 
Q 64.75 56 71.09375 56 
Q 79.640625 56 84.28125 50.015625 
Q 88.921875 44.046875 88.921875 33.015625 
L 88.921875 0 
L 79.890625 0 
L 79.890625 32.71875 
Q 79.890625 40.578125 77.09375 44.375 
Q 74.3125 48.1875 68.609375 48.1875 
Q 61.625 48.1875 57.5625 43.546875 
Q 53.515625 38.921875 53.515625 30.90625 
L 53.515625 0 
L 44.484375 0 
L 44.484375 32.71875 
Q 44.484375 40.625 41.703125 44.40625 
Q 38.921875 48.1875 33.109375 48.1875 
Q 26.21875 48.1875 22.15625 43.53125 
Q 18.109375 38.875 18.109375 30.90625 
L 18.109375 0 
L 9.078125 0 
L 9.078125 54.6875 
L 18.109375 54.6875 
L 18.109375 46.1875 
Q 21.1875 51.21875 25.484375 53.609375 
Q 29.78125 56 35.6875 56 
Q 41.65625 56 45.828125 52.96875 
Q 50 49.953125 52 44.1875 
z
" id="DejaVuSans-109"/>
     <path d="M 34.28125 27.484375 
Q 23.390625 27.484375 19.1875 25 
Q 14.984375 22.515625 14.984375 16.5 
Q 14.984375 11.71875 18.140625 8.90625 
Q 21.296875 6.109375 26.703125 6.109375 
Q 34.1875 6.109375 38.703125 11.40625 
Q 43.21875 16.703125 43.21875 25.484375 
L 43.21875 27.484375 
z
M 52.203125 31.203125 
L 52.203125 0 
L 43.21875 0 
L 43.21875 8.296875 
Q 40.140625 3.328125 35.546875 0.953125 
Q 30.953125 -1.421875 24.3125 -1.421875 
Q 15.921875 -1.421875 10.953125 3.296875 
Q 6 8.015625 6 15.921875 
Q 6 25.140625 12.171875 29.828125 
Q 18.359375 34.515625 30.609375 34.515625 
L 43.21875 34.515625 
L 43.21875 35.40625 
Q 43.21875 41.609375 39.140625 45 
Q 35.0625 48.390625 27.6875 48.390625 
Q 23 48.390625 18.546875 47.265625 
Q 14.109375 46.140625 10.015625 43.890625 
L 10.015625 52.203125 
Q 14.9375 54.109375 19.578125 55.046875 
Q 24.21875 56 28.609375 56 
Q 40.484375 56 46.34375 49.84375 
Q 52.203125 43.703125 52.203125 31.203125 
z
" id="DejaVuSans-97"/>
     <path d="M 45.40625 27.984375 
Q 45.40625 37.75 41.375 43.109375 
Q 37.359375 48.484375 30.078125 48.484375 
Q 22.859375 48.484375 18.828125 43.109375 
Q 14.796875 37.75 14.796875 27.984375 
Q 14.796875 18.265625 18.828125 12.890625 
Q 22.859375 7.515625 30.078125 7.515625 
Q 37.359375 7.515625 41.375 12.890625 
Q 45.40625 18.265625 45.40625 27.984375 
z
M 54.390625 6.78125 
Q 54.390625 -7.171875 48.1875 -13.984375 
Q 42 -20.796875 29.203125 -20.796875 
Q 24.46875 -20.796875 20.265625 -20.09375 
Q 16.0625 -19.390625 12.109375 -17.921875 
L 12.109375 -9.1875 
Q 16.0625 -11.328125 19.921875 -12.34375 
Q 23.78125 -13.375 27.78125 -13.375 
Q 36.625 -13.375 41.015625 -8.765625 
Q 45.40625 -4.15625 45.40625 5.171875 
L 45.40625 9.625 
Q 42.625 4.78125 38.28125 2.390625 
Q 33.9375 0 27.875 0 
Q 17.828125 0 11.671875 7.65625 
Q 5.515625 15.328125 5.515625 27.984375 
Q 5.515625 40.671875 11.671875 48.328125 
Q 17.828125 56 27.875 56 
Q 33.9375 56 38.28125 53.609375 
Q 42.625 51.21875 45.40625 46.390625 
L 45.40625 54.6875 
L 54.390625 54.6875 
z
" id="DejaVuSans-103"/>
     <path d="M 56.203125 29.59375 
L 56.203125 25.203125 
L 14.890625 25.203125 
Q 15.484375 15.921875 20.484375 11.0625 
Q 25.484375 6.203125 34.421875 6.203125 
Q 39.59375 6.203125 44.453125 7.46875 
Q 49.3125 8.734375 54.109375 11.28125 
L 54.109375 2.78125 
Q 49.265625 0.734375 44.1875 -0.34375 
Q 39.109375 -1.421875 33.890625 -1.421875 
Q 20.796875 -1.421875 13.15625 6.1875 
Q 5.515625 13.8125 5.515625 26.8125 
Q 5.515625 40.234375 12.765625 48.109375 
Q 20.015625 56 32.328125 56 
Q 43.359375 56 49.78125 48.890625 
Q 56.203125 41.796875 56.203125 29.59375 
z
M 47.21875 32.234375 
Q 47.125 39.59375 43.09375 43.984375 
Q 39.0625 48.390625 32.421875 48.390625 
Q 24.90625 48.390625 20.390625 44.140625 
Q 15.875 39.890625 15.1875 32.171875 
z
" id="DejaVuSans-101"/>
    </defs>
    <g transform="translate(314.312813 80.4)scale(0.12 -0.12)">
     <use xlink:href="#DejaVuSans-50"/>
     <use x="63.623047" xlink:href="#DejaVuSans-48"/>
     <use x="127.246094" xlink:href="#DejaVuSans-52"/>
     <use x="190.869141" xlink:href="#DejaVuSans-56"/>
     <use x="254.492188" xlink:href="#DejaVuSans-120"/>
     <use x="313.671875" xlink:href="#DejaVuSans-50"/>
     <use x="377.294922" xlink:href="#DejaVuSans-48"/>
     <use x="440.917969" xlink:href="#DejaVuSans-52"/>
     <use x="504.541016" xlink:href="#DejaVuSans-56"/>
     <use x="568.164062" xlink:href="#DejaVuSans-32"/>
     <use x="599.951172" xlink:href="#DejaVuSans-105"/>
     <use x="627.734375" xlink:href="#DejaVuSans-109"/>
     <use x="725.146484" xlink:href="#DejaVuSans-97"/>
     <use x="786.425781" xlink:href="#DejaVuSans-103"/>
     <use x="849.902344" xlink:href="#DejaVuSans-101"/>
    </g>
   </g>
   <g id="legend_1">
    <g id="patch_47">
     <path d="M 97 167.790625 
L 175.484375 167.790625 
Q 177.484375 167.790625 177.484375 165.790625 
L 177.484375 93.4 
Q 177.484375 91.4 175.484375 91.4 
L 97 91.4 
Q 95 91.4 95 93.4 
L 95 165.790625 
Q 95 167.790625 97 167.790625 
z
" style="fill:#ffffff;opacity:0.8;stroke:#cccccc;stroke-linejoin:miter;"/>
    </g>
    <g id="patch_48">
     <path d="M 99 102.998438 
L 119 102.998438 
L 119 95.998438 
L 99 95.998438 
z
" style="fill:#ff0000;stroke:#ffffff;stroke-linejoin:miter;"/>
    </g>
    <g id="text_5">
     <!-- YZ -->
     <defs>
      <path d="M -0.203125 72.90625 
L 10.40625 72.90625 
L 30.609375 42.921875 
L 50.6875 72.90625 
L 61.28125 72.90625 
L 35.5 34.71875 
L 35.5 0 
L 25.59375 0 
L 25.59375 34.71875 
z
" id="DejaVuSans-89"/>
      <path d="M 5.609375 72.90625 
L 62.890625 72.90625 
L 62.890625 65.375 
L 16.796875 8.296875 
L 64.015625 8.296875 
L 64.015625 0 
L 4.5 0 
L 4.5 7.515625 
L 50.59375 64.59375 
L 5.609375 64.59375 
z
" id="DejaVuSans-90"/>
     </defs>
     <g transform="translate(127 102.998438)scale(0.1 -0.1)">
      <use xlink:href="#DejaVuSans-89"/>
      <use x="61.083984" xlink:href="#DejaVuSans-90"/>
     </g>
    </g>
    <g id="patch_49">
     <path d="M 99 117.676563 
L 119 117.676563 
L 119 110.676563 
L 99 110.676563 
z
" style="fill:#0000ff;stroke:#ffffff;stroke-linejoin:miter;"/>
    </g>
    <g id="text_6">
     <!-- Z -->
     <g transform="translate(127 117.676563)scale(0.1 -0.1)">
      <use xlink:href="#DejaVuSans-90"/>
     </g>
    </g>
    <g id="patch_50">
     <path d="M 99 132.354688 
L 119 132.354688 
L 119 125.354688 
L 99 125.354688 
z
" style="fill:#bfbf00;stroke:#ffffff;stroke-linejoin:miter;"/>
    </g>
    <g id="text_7">
     <!-- Region S -->
     <defs>
      <path d="M 44.390625 34.1875 
Q 47.5625 33.109375 50.5625 29.59375 
Q 53.5625 26.078125 56.59375 19.921875 
L 66.609375 0 
L 56 0 
L 46.6875 18.703125 
Q 43.0625 26.03125 39.671875 28.421875 
Q 36.28125 30.8125 30.421875 30.8125 
L 19.671875 30.8125 
L 19.671875 0 
L 9.8125 0 
L 9.8125 72.90625 
L 32.078125 72.90625 
Q 44.578125 72.90625 50.734375 67.671875 
Q 56.890625 62.453125 56.890625 51.90625 
Q 56.890625 45.015625 53.6875 40.46875 
Q 50.484375 35.9375 44.390625 34.1875 
z
M 19.671875 64.796875 
L 19.671875 38.921875 
L 32.078125 38.921875 
Q 39.203125 38.921875 42.84375 42.21875 
Q 46.484375 45.515625 46.484375 51.90625 
Q 46.484375 58.296875 42.84375 61.546875 
Q 39.203125 64.796875 32.078125 64.796875 
z
" id="DejaVuSans-82"/>
      <path d="M 30.609375 48.390625 
Q 23.390625 48.390625 19.1875 42.75 
Q 14.984375 37.109375 14.984375 27.296875 
Q 14.984375 17.484375 19.15625 11.84375 
Q 23.34375 6.203125 30.609375 6.203125 
Q 37.796875 6.203125 41.984375 11.859375 
Q 46.1875 17.53125 46.1875 27.296875 
Q 46.1875 37.015625 41.984375 42.703125 
Q 37.796875 48.390625 30.609375 48.390625 
z
M 30.609375 56 
Q 42.328125 56 49.015625 48.375 
Q 55.71875 40.765625 55.71875 27.296875 
Q 55.71875 13.875 49.015625 6.21875 
Q 42.328125 -1.421875 30.609375 -1.421875 
Q 18.84375 -1.421875 12.171875 6.21875 
Q 5.515625 13.875 5.515625 27.296875 
Q 5.515625 40.765625 12.171875 48.375 
Q 18.84375 56 30.609375 56 
z
" id="DejaVuSans-111"/>
      <path d="M 54.890625 33.015625 
L 54.890625 0 
L 45.90625 0 
L 45.90625 32.71875 
Q 45.90625 40.484375 42.875 44.328125 
Q 39.84375 48.1875 33.796875 48.1875 
Q 26.515625 48.1875 22.3125 43.546875 
Q 18.109375 38.921875 18.109375 30.90625 
L 18.109375 0 
L 9.078125 0 
L 9.078125 54.6875 
L 18.109375 54.6875 
L 18.109375 46.1875 
Q 21.34375 51.125 25.703125 53.5625 
Q 30.078125 56 35.796875 56 
Q 45.21875 56 50.046875 50.171875 
Q 54.890625 44.34375 54.890625 33.015625 
z
" id="DejaVuSans-110"/>
      <path d="M 53.515625 70.515625 
L 53.515625 60.890625 
Q 47.90625 63.578125 42.921875 64.890625 
Q 37.9375 66.21875 33.296875 66.21875 
Q 25.25 66.21875 20.875 63.09375 
Q 16.5 59.96875 16.5 54.203125 
Q 16.5 49.359375 19.40625 46.890625 
Q 22.3125 44.4375 30.421875 42.921875 
L 36.375 41.703125 
Q 47.40625 39.59375 52.65625 34.296875 
Q 57.90625 29 57.90625 20.125 
Q 57.90625 9.515625 50.796875 4.046875 
Q 43.703125 -1.421875 29.984375 -1.421875 
Q 24.8125 -1.421875 18.96875 -0.25 
Q 13.140625 0.921875 6.890625 3.21875 
L 6.890625 13.375 
Q 12.890625 10.015625 18.65625 8.296875 
Q 24.421875 6.59375 29.984375 6.59375 
Q 38.421875 6.59375 43.015625 9.90625 
Q 47.609375 13.234375 47.609375 19.390625 
Q 47.609375 24.75 44.3125 27.78125 
Q 41.015625 30.8125 33.5 32.328125 
L 27.484375 33.5 
Q 16.453125 35.6875 11.515625 40.375 
Q 6.59375 45.0625 6.59375 53.421875 
Q 6.59375 63.09375 13.40625 68.65625 
Q 20.21875 74.21875 32.171875 74.21875 
Q 37.3125 74.21875 42.625 73.28125 
Q 47.953125 72.359375 53.515625 70.515625 
z
" id="DejaVuSans-83"/>
     </defs>
     <g transform="translate(127 132.354688)scale(0.1 -0.1)">
      <use xlink:href="#DejaVuSans-82"/>
      <use x="69.419922" xlink:href="#DejaVuSans-101"/>
      <use x="130.943359" xlink:href="#DejaVuSans-103"/>
      <use x="194.419922" xlink:href="#DejaVuSans-105"/>
      <use x="222.203125" xlink:href="#DejaVuSans-111"/>
      <use x="283.384766" xlink:href="#DejaVuSans-110"/>
      <use x="346.763672" xlink:href="#DejaVuSans-32"/>
      <use x="378.550781" xlink:href="#DejaVuSans-83"/>
     </g>
    </g>
    <g id="patch_51">
     <path d="M 99 147.032812 
L 119 147.032812 
L 119 140.032812 
L 99 140.032812 
z
" style="fill:#008000;stroke:#ffffff;stroke-linejoin:miter;"/>
    </g>
    <g id="text_8">
     <!-- Region M -->
     <defs>
      <path d="M 9.8125 72.90625 
L 24.515625 72.90625 
L 43.109375 23.296875 
L 61.8125 72.90625 
L 76.515625 72.90625 
L 76.515625 0 
L 66.890625 0 
L 66.890625 64.015625 
L 48.09375 14.015625 
L 38.1875 14.015625 
L 19.390625 64.015625 
L 19.390625 0 
L 9.8125 0 
z
" id="DejaVuSans-77"/>
     </defs>
     <g transform="translate(127 147.032812)scale(0.1 -0.1)">
      <use xlink:href="#DejaVuSans-82"/>
      <use x="69.419922" xlink:href="#DejaVuSans-101"/>
      <use x="130.943359" xlink:href="#DejaVuSans-103"/>
      <use x="194.419922" xlink:href="#DejaVuSans-105"/>
      <use x="222.203125" xlink:href="#DejaVuSans-111"/>
      <use x="283.384766" xlink:href="#DejaVuSans-110"/>
      <use x="346.763672" xlink:href="#DejaVuSans-32"/>
      <use x="378.550781" xlink:href="#DejaVuSans-77"/>
     </g>
    </g>
    <g id="patch_52">
     <path d="M 99 161.710938 
L 119 161.710938 
L 119 154.710938 
L 99 154.710938 
z
" style="fill:#00bfbf;stroke:#ffffff;stroke-linejoin:miter;"/>
    </g>
    <g id="text_9">
     <!-- Region L -->
     <defs>
      <path d="M 9.8125 72.90625 
L 19.671875 72.90625 
L 19.671875 8.296875 
L 55.171875 8.296875 
L 55.171875 0 
L 9.8125 0 
z
" id="DejaVuSans-76"/>
     </defs>
     <g transform="translate(127 161.710938)scale(0.1 -0.1)">
      <use xlink:href="#DejaVuSans-82"/>
      <use x="69.419922" xlink:href="#DejaVuSans-101"/>
      <use x="130.943359" xlink:href="#DejaVuSans-103"/>
      <use x="194.419922" xlink:href="#DejaVuSans-105"/>
      <use x="222.203125" xlink:href="#DejaVuSans-111"/>
      <use x="283.384766" xlink:href="#DejaVuSans-110"/>
      <use x="346.763672" xlink:href="#DejaVuSans-32"/>
      <use x="378.550781" xlink:href="#DejaVuSans-76"/>
     </g>
    </g>
   </g>
  </g>
  <g id="axes_2">
   <g id="patch_53">
    <path d="M 90 445.129412 
L 648 445.129412 
L 648 282.070588 
L 90 282.070588 
z
" style="fill:#ffffff;"/>
   </g>
   <g id="patch_54">
    <path clip-path="url(#pb675fd8e51)" d="M 115.363636 68192.284786 
L 125.737365 68192.284786 
L 125.737365 365.705404 
L 115.363636 365.705404 
z
" style="fill:#ff0000;stroke:#ffffff;stroke-linejoin:miter;"/>
   </g>
   <g id="patch_55">
    <path clip-path="url(#pb675fd8e51)" d="M 184.521826 68192.284786 
L 194.895554 68192.284786 
L 194.895554 337.117353 
L 184.521826 337.117353 
z
" style="fill:#ff0000;stroke:#ffffff;stroke-linejoin:miter;"/>
   </g>
   <g id="patch_56">
    <path clip-path="url(#pb675fd8e51)" d="M 253.680016 68192.284786 
L 264.053744 68192.284786 
L 264.053744 330.091084 
L 253.680016 330.091084 
z
" style="fill:#ff0000;stroke:#ffffff;stroke-linejoin:miter;"/>
   </g>
   <g id="patch_57">
    <path clip-path="url(#pb675fd8e51)" d="M 322.838205 68192.284786 
L 333.211934 68192.284786 
L 333.211934 337.087908 
L 322.838205 337.087908 
z
" style="fill:#ff0000;stroke:#ffffff;stroke-linejoin:miter;"/>
   </g>
   <g id="patch_58">
    <path clip-path="url(#pb675fd8e51)" d="M 391.996395 68192.284786 
L 402.370123 68192.284786 
L 402.370123 318.29337 
L 391.996395 318.29337 
z
" style="fill:#ff0000;stroke:#ffffff;stroke-linejoin:miter;"/>
   </g>
   <g id="patch_59">
    <path clip-path="url(#pb675fd8e51)" d="M 432.451342 68192.284786 
L 442.825071 68192.284786 
L 442.825071 321.229664 
L 432.451342 321.229664 
z
" style="fill:#ff0000;stroke:#ffffff;stroke-linejoin:miter;"/>
   </g>
   <g id="patch_60">
    <path clip-path="url(#pb675fd8e51)" d="M 125.737365 68192.284786 
L 136.111093 68192.284786 
L 136.111093 386.933932 
L 125.737365 386.933932 
z
" style="fill:#0000ff;stroke:#ffffff;stroke-linejoin:miter;"/>
   </g>
   <g id="patch_61">
    <path clip-path="url(#pb675fd8e51)" d="M 194.895554 68192.284786 
L 205.269283 68192.284786 
L 205.269283 356.181219 
L 194.895554 356.181219 
z
" style="fill:#0000ff;stroke:#ffffff;stroke-linejoin:miter;"/>
   </g>
   <g id="patch_62">
    <path clip-path="url(#pb675fd8e51)" d="M 264.053744 68192.284786 
L 274.427472 68192.284786 
L 274.427472 340.225852 
L 264.053744 340.225852 
z
" style="fill:#0000ff;stroke:#ffffff;stroke-linejoin:miter;"/>
   </g>
   <g id="patch_63">
    <path clip-path="url(#pb675fd8e51)" d="M 333.211934 68192.284786 
L 343.585662 68192.284786 
L 343.585662 317.914007 
L 333.211934 317.914007 
z
" style="fill:#0000ff;stroke:#ffffff;stroke-linejoin:miter;"/>
   </g>
   <g id="patch_64">
    <path clip-path="url(#pb675fd8e51)" d="M 402.370123 68192.284786 
L 412.743852 68192.284786 
L 412.743852 301.173337 
L 402.370123 301.173337 
z
" style="fill:#0000ff;stroke:#ffffff;stroke-linejoin:miter;"/>
   </g>
   <g id="patch_65">
    <path clip-path="url(#pb675fd8e51)" d="M 442.825071 68192.284786 
L 453.198799 68192.284786 
L 453.198799 289.482353 
L 442.825071 289.482353 
z
" style="fill:#0000ff;stroke:#ffffff;stroke-linejoin:miter;"/>
   </g>
   <g id="patch_66">
    <path clip-path="url(#pb675fd8e51)" d="M 136.111093 68192.284786 
L 146.484822 68192.284786 
L 146.484822 400.692431 
L 136.111093 400.692431 
z
" style="fill:#bfbf00;stroke:#ffffff;stroke-linejoin:miter;"/>
   </g>
   <g id="patch_67">
    <path clip-path="url(#pb675fd8e51)" d="M 205.269283 68192.284786 
L 215.643011 68192.284786 
L 215.643011 396.181012 
L 205.269283 396.181012 
z
" style="fill:#bfbf00;stroke:#ffffff;stroke-linejoin:miter;"/>
   </g>
   <g id="patch_68">
    <path clip-path="url(#pb675fd8e51)" d="M 274.427472 68192.284786 
L 284.801201 68192.284786 
L 284.801201 390.143167 
L 274.427472 390.143167 
z
" style="fill:#bfbf00;stroke:#ffffff;stroke-linejoin:miter;"/>
   </g>
   <g id="patch_69">
    <path clip-path="url(#pb675fd8e51)" d="M 343.585662 68192.284786 
L 353.95939 68192.284786 
L 353.95939 366.505888 
L 343.585662 366.505888 
z
" style="fill:#bfbf00;stroke:#ffffff;stroke-linejoin:miter;"/>
   </g>
   <g id="patch_70">
    <path clip-path="url(#pb675fd8e51)" d="M 412.743852 68192.284786 
L 423.11758 68192.284786 
L 423.11758 350.720047 
L 412.743852 350.720047 
z
" style="fill:#bfbf00;stroke:#ffffff;stroke-linejoin:miter;"/>
   </g>
   <g id="patch_71">
    <path clip-path="url(#pb675fd8e51)" d="M 453.198799 68192.284786 
L 463.572528 68192.284786 
L 463.572528 366.691658 
L 453.198799 366.691658 
z
" style="fill:#bfbf00;stroke:#ffffff;stroke-linejoin:miter;"/>
   </g>
   <g id="patch_72">
    <path clip-path="url(#pb675fd8e51)" d="M 146.484822 68192.284786 
L 156.85855 68192.284786 
L 156.85855 386.972171 
L 146.484822 386.972171 
z
" style="fill:#008000;stroke:#ffffff;stroke-linejoin:miter;"/>
   </g>
   <g id="patch_73">
    <path clip-path="url(#pb675fd8e51)" d="M 215.643011 68192.284786 
L 226.01674 68192.284786 
L 226.01674 412.195246 
L 215.643011 412.195246 
z
" style="fill:#008000;stroke:#ffffff;stroke-linejoin:miter;"/>
   </g>
   <g id="patch_74">
    <path clip-path="url(#pb675fd8e51)" d="M 284.801201 68192.284786 
L 295.174929 68192.284786 
L 295.174929 386.389038 
L 284.801201 386.389038 
z
" style="fill:#008000;stroke:#ffffff;stroke-linejoin:miter;"/>
   </g>
   <g id="patch_75">
    <path clip-path="url(#pb675fd8e51)" d="M 353.95939 68192.284786 
L 364.333119 68192.284786 
L 364.333119 389.570511 
L 353.95939 389.570511 
z
" style="fill:#008000;stroke:#ffffff;stroke-linejoin:miter;"/>
   </g>
   <g id="patch_76">
    <path clip-path="url(#pb675fd8e51)" d="M 423.11758 68192.284786 
L 433.491308 68192.284786 
L 433.491308 389.412912 
L 423.11758 389.412912 
z
" style="fill:#008000;stroke:#ffffff;stroke-linejoin:miter;"/>
   </g>
   <g id="patch_77">
    <path clip-path="url(#pb675fd8e51)" d="M 463.572528 68192.284786 
L 473.946256 68192.284786 
L 473.946256 386.601155 
L 463.572528 386.601155 
z
" style="fill:#008000;stroke:#ffffff;stroke-linejoin:miter;"/>
   </g>
   <g id="patch_78">
    <path clip-path="url(#pb675fd8e51)" d="M 156.85855 68192.284786 
L 167.232279 68192.284786 
L 167.232279 425.988812 
L 156.85855 425.988812 
z
" style="fill:#00bfbf;stroke:#ffffff;stroke-linejoin:miter;"/>
   </g>
   <g id="patch_79">
    <path clip-path="url(#pb675fd8e51)" d="M 226.01674 68192.284786 
L 236.390468 68192.284786 
L 236.390468 425.389303 
L 226.01674 425.389303 
z
" style="fill:#00bfbf;stroke:#ffffff;stroke-linejoin:miter;"/>
   </g>
   <g id="patch_80">
    <path clip-path="url(#pb675fd8e51)" d="M 295.174929 68192.284786 
L 305.548658 68192.284786 
L 305.548658 433.317004 
L 295.174929 433.317004 
z
" style="fill:#00bfbf;stroke:#ffffff;stroke-linejoin:miter;"/>
   </g>
   <g id="patch_81">
    <path clip-path="url(#pb675fd8e51)" d="M 364.333119 68192.284786 
L 374.706847 68192.284786 
L 374.706847 429.089403 
L 364.333119 429.089403 
z
" style="fill:#00bfbf;stroke:#ffffff;stroke-linejoin:miter;"/>
   </g>
   <g id="patch_82">
    <path clip-path="url(#pb675fd8e51)" d="M 433.491308 68192.284786 
L 443.865037 68192.284786 
L 443.865037 430.394093 
L 433.491308 430.394093 
z
" style="fill:#00bfbf;stroke:#ffffff;stroke-linejoin:miter;"/>
   </g>
   <g id="patch_83">
    <path clip-path="url(#pb675fd8e51)" d="M 473.946256 68192.284786 
L 484.319984 68192.284786 
L 484.319984 434.620458 
L 473.946256 434.620458 
z
" style="fill:#00bfbf;stroke:#ffffff;stroke-linejoin:miter;"/>
   </g>
   <g id="matplotlib.axis_3">
    <g id="xtick_11">
     <g id="line2d_41">
      <g>
       <use style="stroke:#000000;stroke-width:0.8;" x="141.297957" xlink:href="#m490798f534" y="445.129412"/>
      </g>
     </g>
    </g>
    <g id="xtick_12">
     <g id="line2d_42">
      <g>
       <use style="stroke:#000000;stroke-width:0.8;" x="210.456147" xlink:href="#m490798f534" y="445.129412"/>
      </g>
     </g>
    </g>
    <g id="xtick_13">
     <g id="line2d_43">
      <g>
       <use style="stroke:#000000;stroke-width:0.8;" x="279.614337" xlink:href="#m490798f534" y="445.129412"/>
      </g>
     </g>
    </g>
    <g id="xtick_14">
     <g id="line2d_44">
      <g>
       <use style="stroke:#000000;stroke-width:0.8;" x="320.069284" xlink:href="#m490798f534" y="445.129412"/>
      </g>
     </g>
    </g>
    <g id="xtick_15">
     <g id="line2d_45">
      <g>
       <use style="stroke:#000000;stroke-width:0.8;" x="348.772526" xlink:href="#m490798f534" y="445.129412"/>
      </g>
     </g>
    </g>
    <g id="xtick_16">
     <g id="line2d_46">
      <g>
       <use style="stroke:#000000;stroke-width:0.8;" x="417.930716" xlink:href="#m490798f534" y="445.129412"/>
      </g>
     </g>
    </g>
    <g id="xtick_17">
     <g id="line2d_47">
      <g>
       <use style="stroke:#000000;stroke-width:0.8;" x="458.385663" xlink:href="#m490798f534" y="445.129412"/>
      </g>
     </g>
    </g>
    <g id="xtick_18">
     <g id="line2d_48">
      <g>
       <use style="stroke:#000000;stroke-width:0.8;" x="487.088905" xlink:href="#m490798f534" y="445.129412"/>
      </g>
     </g>
    </g>
    <g id="xtick_19">
     <g id="line2d_49">
      <g>
       <use style="stroke:#000000;stroke-width:0.8;" x="556.247095" xlink:href="#m490798f534" y="445.129412"/>
      </g>
     </g>
    </g>
    <g id="xtick_20">
     <g id="line2d_50">
      <g>
       <use style="stroke:#000000;stroke-width:0.8;" x="596.702043" xlink:href="#m490798f534" y="445.129412"/>
      </g>
     </g>
    </g>
   </g>
   <g id="matplotlib.axis_4">
    <g id="ytick_31">
     <g id="line2d_51">
      <g>
       <use style="stroke:#000000;stroke-width:0.8;" x="90" xlink:href="#md7113420f6" y="437.559024"/>
      </g>
     </g>
     <g id="text_10">
      <!-- $\mathdefault{10^{1}}$ -->
      <g transform="translate(65.4 441.358243)scale(0.1 -0.1)">
       <use transform="translate(0 0.684375)" xlink:href="#DejaVuSans-49"/>
       <use transform="translate(63.623047 0.684375)" xlink:href="#DejaVuSans-48"/>
       <use transform="translate(128.203125 38.965625)scale(0.7)" xlink:href="#DejaVuSans-49"/>
      </g>
     </g>
    </g>
    <g id="ytick_32">
     <g id="line2d_52">
      <g>
       <use style="stroke:#000000;stroke-width:0.8;" x="90" xlink:href="#md7113420f6" y="369.871985"/>
      </g>
     </g>
     <g id="text_11">
      <!-- $\mathdefault{10^{2}}$ -->
      <g transform="translate(65.4 373.671204)scale(0.1 -0.1)">
       <use transform="translate(0 0.765625)" xlink:href="#DejaVuSans-49"/>
       <use transform="translate(63.623047 0.765625)" xlink:href="#DejaVuSans-48"/>
       <use transform="translate(128.203125 39.046875)scale(0.7)" xlink:href="#DejaVuSans-50"/>
      </g>
     </g>
    </g>
    <g id="ytick_33">
     <g id="line2d_53">
      <g>
       <use style="stroke:#000000;stroke-width:0.8;" x="90" xlink:href="#md7113420f6" y="302.184946"/>
      </g>
     </g>
     <g id="text_12">
      <!-- $\mathdefault{10^{3}}$ -->
      <g transform="translate(65.4 305.984165)scale(0.1 -0.1)">
       <use transform="translate(0 0.765625)" xlink:href="#DejaVuSans-49"/>
       <use transform="translate(63.623047 0.765625)" xlink:href="#DejaVuSans-48"/>
       <use transform="translate(128.203125 39.046875)scale(0.7)" xlink:href="#DejaVuSans-51"/>
      </g>
     </g>
    </g>
    <g id="ytick_34">
     <g id="line2d_54">
      <g>
       <use style="stroke:#000000;stroke-width:0.6;" x="90" xlink:href="#m6673aa757a" y="444.118576"/>
      </g>
     </g>
    </g>
    <g id="ytick_35">
     <g id="line2d_55">
      <g>
       <use style="stroke:#000000;stroke-width:0.6;" x="90" xlink:href="#m6673aa757a" y="440.656213"/>
      </g>
     </g>
    </g>
    <g id="ytick_36">
     <g id="line2d_56">
      <g>
       <use style="stroke:#000000;stroke-width:0.6;" x="90" xlink:href="#m6673aa757a" y="417.183195"/>
      </g>
     </g>
    </g>
    <g id="ytick_37">
     <g id="line2d_57">
      <g>
       <use style="stroke:#000000;stroke-width:0.6;" x="90" xlink:href="#m6673aa757a" y="405.264099"/>
      </g>
     </g>
    </g>
    <g id="ytick_38">
     <g id="line2d_58">
      <g>
       <use style="stroke:#000000;stroke-width:0.6;" x="90" xlink:href="#m6673aa757a" y="396.807366"/>
      </g>
     </g>
    </g>
    <g id="ytick_39">
     <g id="line2d_59">
      <g>
       <use style="stroke:#000000;stroke-width:0.6;" x="90" xlink:href="#m6673aa757a" y="390.247814"/>
      </g>
     </g>
    </g>
    <g id="ytick_40">
     <g id="line2d_60">
      <g>
       <use style="stroke:#000000;stroke-width:0.6;" x="90" xlink:href="#m6673aa757a" y="384.88827"/>
      </g>
     </g>
    </g>
    <g id="ytick_41">
     <g id="line2d_61">
      <g>
       <use style="stroke:#000000;stroke-width:0.6;" x="90" xlink:href="#m6673aa757a" y="380.35684"/>
      </g>
     </g>
    </g>
    <g id="ytick_42">
     <g id="line2d_62">
      <g>
       <use style="stroke:#000000;stroke-width:0.6;" x="90" xlink:href="#m6673aa757a" y="376.431537"/>
      </g>
     </g>
    </g>
    <g id="ytick_43">
     <g id="line2d_63">
      <g>
       <use style="stroke:#000000;stroke-width:0.6;" x="90" xlink:href="#m6673aa757a" y="372.969174"/>
      </g>
     </g>
    </g>
    <g id="ytick_44">
     <g id="line2d_64">
      <g>
       <use style="stroke:#000000;stroke-width:0.6;" x="90" xlink:href="#m6673aa757a" y="349.496156"/>
      </g>
     </g>
    </g>
    <g id="ytick_45">
     <g id="line2d_65">
      <g>
       <use style="stroke:#000000;stroke-width:0.6;" x="90" xlink:href="#m6673aa757a" y="337.57706"/>
      </g>
     </g>
    </g>
    <g id="ytick_46">
     <g id="line2d_66">
      <g>
       <use style="stroke:#000000;stroke-width:0.6;" x="90" xlink:href="#m6673aa757a" y="329.120327"/>
      </g>
     </g>
    </g>
    <g id="ytick_47">
     <g id="line2d_67">
      <g>
       <use style="stroke:#000000;stroke-width:0.6;" x="90" xlink:href="#m6673aa757a" y="322.560775"/>
      </g>
     </g>
    </g>
    <g id="ytick_48">
     <g id="line2d_68">
      <g>
       <use style="stroke:#000000;stroke-width:0.6;" x="90" xlink:href="#m6673aa757a" y="317.201231"/>
      </g>
     </g>
    </g>
    <g id="ytick_49">
     <g id="line2d_69">
      <g>
       <use style="stroke:#000000;stroke-width:0.6;" x="90" xlink:href="#m6673aa757a" y="312.669801"/>
      </g>
     </g>
    </g>
    <g id="ytick_50">
     <g id="line2d_70">
      <g>
       <use style="stroke:#000000;stroke-width:0.6;" x="90" xlink:href="#m6673aa757a" y="308.744498"/>
      </g>
     </g>
    </g>
    <g id="ytick_51">
     <g id="line2d_71">
      <g>
       <use style="stroke:#000000;stroke-width:0.6;" x="90" xlink:href="#m6673aa757a" y="305.282135"/>
      </g>
     </g>
    </g>
    <g id="text_13">
     <!-- Speed-up factor -->
     <defs>
      <path d="M 18.109375 8.203125 
L 18.109375 -20.796875 
L 9.078125 -20.796875 
L 9.078125 54.6875 
L 18.109375 54.6875 
L 18.109375 46.390625 
Q 20.953125 51.265625 25.265625 53.625 
Q 29.59375 56 35.59375 56 
Q 45.5625 56 51.78125 48.09375 
Q 58.015625 40.1875 58.015625 27.296875 
Q 58.015625 14.40625 51.78125 6.484375 
Q 45.5625 -1.421875 35.59375 -1.421875 
Q 29.59375 -1.421875 25.265625 0.953125 
Q 20.953125 3.328125 18.109375 8.203125 
z
M 48.6875 27.296875 
Q 48.6875 37.203125 44.609375 42.84375 
Q 40.53125 48.484375 33.40625 48.484375 
Q 26.265625 48.484375 22.1875 42.84375 
Q 18.109375 37.203125 18.109375 27.296875 
Q 18.109375 17.390625 22.1875 11.75 
Q 26.265625 6.109375 33.40625 6.109375 
Q 40.53125 6.109375 44.609375 11.75 
Q 48.6875 17.390625 48.6875 27.296875 
z
" id="DejaVuSans-112"/>
      <path d="M 45.40625 46.390625 
L 45.40625 75.984375 
L 54.390625 75.984375 
L 54.390625 0 
L 45.40625 0 
L 45.40625 8.203125 
Q 42.578125 3.328125 38.25 0.953125 
Q 33.9375 -1.421875 27.875 -1.421875 
Q 17.96875 -1.421875 11.734375 6.484375 
Q 5.515625 14.40625 5.515625 27.296875 
Q 5.515625 40.1875 11.734375 48.09375 
Q 17.96875 56 27.875 56 
Q 33.9375 56 38.25 53.625 
Q 42.578125 51.265625 45.40625 46.390625 
z
M 14.796875 27.296875 
Q 14.796875 17.390625 18.875 11.75 
Q 22.953125 6.109375 30.078125 6.109375 
Q 37.203125 6.109375 41.296875 11.75 
Q 45.40625 17.390625 45.40625 27.296875 
Q 45.40625 37.203125 41.296875 42.84375 
Q 37.203125 48.484375 30.078125 48.484375 
Q 22.953125 48.484375 18.875 42.84375 
Q 14.796875 37.203125 14.796875 27.296875 
z
" id="DejaVuSans-100"/>
      <path d="M 4.890625 31.390625 
L 31.203125 31.390625 
L 31.203125 23.390625 
L 4.890625 23.390625 
z
" id="DejaVuSans-45"/>
      <path d="M 8.5 21.578125 
L 8.5 54.6875 
L 17.484375 54.6875 
L 17.484375 21.921875 
Q 17.484375 14.15625 20.5 10.265625 
Q 23.53125 6.390625 29.59375 6.390625 
Q 36.859375 6.390625 41.078125 11.03125 
Q 45.3125 15.671875 45.3125 23.6875 
L 45.3125 54.6875 
L 54.296875 54.6875 
L 54.296875 0 
L 45.3125 0 
L 45.3125 8.40625 
Q 42.046875 3.421875 37.71875 1 
Q 33.40625 -1.421875 27.6875 -1.421875 
Q 18.265625 -1.421875 13.375 4.4375 
Q 8.5 10.296875 8.5 21.578125 
z
M 31.109375 56 
z
" id="DejaVuSans-117"/>
      <path d="M 37.109375 75.984375 
L 37.109375 68.5 
L 28.515625 68.5 
Q 23.6875 68.5 21.796875 66.546875 
Q 19.921875 64.59375 19.921875 59.515625 
L 19.921875 54.6875 
L 34.71875 54.6875 
L 34.71875 47.703125 
L 19.921875 47.703125 
L 19.921875 0 
L 10.890625 0 
L 10.890625 47.703125 
L 2.296875 47.703125 
L 2.296875 54.6875 
L 10.890625 54.6875 
L 10.890625 58.5 
Q 10.890625 67.625 15.140625 71.796875 
Q 19.390625 75.984375 28.609375 75.984375 
z
" id="DejaVuSans-102"/>
      <path d="M 48.78125 52.59375 
L 48.78125 44.1875 
Q 44.96875 46.296875 41.140625 47.34375 
Q 37.3125 48.390625 33.40625 48.390625 
Q 24.65625 48.390625 19.8125 42.84375 
Q 14.984375 37.3125 14.984375 27.296875 
Q 14.984375 17.28125 19.8125 11.734375 
Q 24.65625 6.203125 33.40625 6.203125 
Q 37.3125 6.203125 41.140625 7.25 
Q 44.96875 8.296875 48.78125 10.40625 
L 48.78125 2.09375 
Q 45.015625 0.34375 40.984375 -0.53125 
Q 36.96875 -1.421875 32.421875 -1.421875 
Q 20.0625 -1.421875 12.78125 6.34375 
Q 5.515625 14.109375 5.515625 27.296875 
Q 5.515625 40.671875 12.859375 48.328125 
Q 20.21875 56 33.015625 56 
Q 37.15625 56 41.109375 55.140625 
Q 45.0625 54.296875 48.78125 52.59375 
z
" id="DejaVuSans-99"/>
      <path d="M 18.3125 70.21875 
L 18.3125 54.6875 
L 36.8125 54.6875 
L 36.8125 47.703125 
L 18.3125 47.703125 
L 18.3125 18.015625 
Q 18.3125 11.328125 20.140625 9.421875 
Q 21.96875 7.515625 27.59375 7.515625 
L 36.8125 7.515625 
L 36.8125 0 
L 27.59375 0 
Q 17.1875 0 13.234375 3.875 
Q 9.28125 7.765625 9.28125 18.015625 
L 9.28125 47.703125 
L 2.6875 47.703125 
L 2.6875 54.6875 
L 9.28125 54.6875 
L 9.28125 70.21875 
z
" id="DejaVuSans-116"/>
      <path d="M 41.109375 46.296875 
Q 39.59375 47.171875 37.8125 47.578125 
Q 36.03125 48 33.890625 48 
Q 26.265625 48 22.1875 43.046875 
Q 18.109375 38.09375 18.109375 28.8125 
L 18.109375 0 
L 9.078125 0 
L 9.078125 54.6875 
L 18.109375 54.6875 
L 18.109375 46.1875 
Q 20.953125 51.171875 25.484375 53.578125 
Q 30.03125 56 36.53125 56 
Q 37.453125 56 38.578125 55.875 
Q 39.703125 55.765625 41.0625 55.515625 
z
" id="DejaVuSans-114"/>
     </defs>
     <g transform="translate(59.320312 403.660156)rotate(-90)scale(0.1 -0.1)">
      <use xlink:href="#DejaVuSans-83"/>
      <use x="63.476562" xlink:href="#DejaVuSans-112"/>
      <use x="126.953125" xlink:href="#DejaVuSans-101"/>
      <use x="188.476562" xlink:href="#DejaVuSans-101"/>
      <use x="250" xlink:href="#DejaVuSans-100"/>
      <use x="313.476562" xlink:href="#DejaVuSans-45"/>
      <use x="349.560547" xlink:href="#DejaVuSans-117"/>
      <use x="412.939453" xlink:href="#DejaVuSans-112"/>
      <use x="476.416016" xlink:href="#DejaVuSans-32"/>
      <use x="508.203125" xlink:href="#DejaVuSans-102"/>
      <use x="543.408203" xlink:href="#DejaVuSans-97"/>
      <use x="604.6875" xlink:href="#DejaVuSans-99"/>
      <use x="659.667969" xlink:href="#DejaVuSans-116"/>
      <use x="698.876953" xlink:href="#DejaVuSans-111"/>
      <use x="760.058594" xlink:href="#DejaVuSans-114"/>
     </g>
    </g>
   </g>
   <g id="patch_84">
    <path d="M 90 445.129412 
L 90 282.070588 
" style="fill:none;stroke:#000000;stroke-linecap:square;stroke-linejoin:miter;stroke-width:0.8;"/>
   </g>
   <g id="patch_85">
    <path d="M 648 445.129412 
L 648 282.070588 
" style="fill:none;stroke:#000000;stroke-linecap:square;stroke-linejoin:miter;stroke-width:0.8;"/>
   </g>
   <g id="patch_86">
    <path d="M 90 445.129412 
L 648 445.129412 
" style="fill:none;stroke:#000000;stroke-linecap:square;stroke-linejoin:miter;stroke-width:0.8;"/>
   </g>
   <g id="patch_87">
    <path d="M 90 282.070588 
L 648 282.070588 
" style="fill:none;stroke:#000000;stroke-linecap:square;stroke-linejoin:miter;stroke-width:0.8;"/>
   </g>
   <g id="text_14">
    <!-- 4096x4096 image -->
    <defs>
     <path d="M 10.984375 1.515625 
L 10.984375 10.5 
Q 14.703125 8.734375 18.5 7.8125 
Q 22.3125 6.890625 25.984375 6.890625 
Q 35.75 6.890625 40.890625 13.453125 
Q 46.046875 20.015625 46.78125 33.40625 
Q 43.953125 29.203125 39.59375 26.953125 
Q 35.25 24.703125 29.984375 24.703125 
Q 19.046875 24.703125 12.671875 31.3125 
Q 6.296875 37.9375 6.296875 49.421875 
Q 6.296875 60.640625 12.9375 67.421875 
Q 19.578125 74.21875 30.609375 74.21875 
Q 43.265625 74.21875 49.921875 64.515625 
Q 56.59375 54.828125 56.59375 36.375 
Q 56.59375 19.140625 48.40625 8.859375 
Q 40.234375 -1.421875 26.421875 -1.421875 
Q 22.703125 -1.421875 18.890625 -0.6875 
Q 15.09375 0.046875 10.984375 1.515625 
z
M 30.609375 32.421875 
Q 37.25 32.421875 41.125 36.953125 
Q 45.015625 41.5 45.015625 49.421875 
Q 45.015625 57.28125 41.125 61.84375 
Q 37.25 66.40625 30.609375 66.40625 
Q 23.96875 66.40625 20.09375 61.84375 
Q 16.21875 57.28125 16.21875 49.421875 
Q 16.21875 41.5 20.09375 36.953125 
Q 23.96875 32.421875 30.609375 32.421875 
z
" id="DejaVuSans-57"/>
     <path d="M 33.015625 40.375 
Q 26.375 40.375 22.484375 35.828125 
Q 18.609375 31.296875 18.609375 23.390625 
Q 18.609375 15.53125 22.484375 10.953125 
Q 26.375 6.390625 33.015625 6.390625 
Q 39.65625 6.390625 43.53125 10.953125 
Q 47.40625 15.53125 47.40625 23.390625 
Q 47.40625 31.296875 43.53125 35.828125 
Q 39.65625 40.375 33.015625 40.375 
z
M 52.59375 71.296875 
L 52.59375 62.3125 
Q 48.875 64.0625 45.09375 64.984375 
Q 41.3125 65.921875 37.59375 65.921875 
Q 27.828125 65.921875 22.671875 59.328125 
Q 17.53125 52.734375 16.796875 39.40625 
Q 19.671875 43.65625 24.015625 45.921875 
Q 28.375 48.1875 33.59375 48.1875 
Q 44.578125 48.1875 50.953125 41.515625 
Q 57.328125 34.859375 57.328125 23.390625 
Q 57.328125 12.15625 50.6875 5.359375 
Q 44.046875 -1.421875 33.015625 -1.421875 
Q 20.359375 -1.421875 13.671875 8.265625 
Q 6.984375 17.96875 6.984375 36.375 
Q 6.984375 53.65625 15.1875 63.9375 
Q 23.390625 74.21875 37.203125 74.21875 
Q 40.921875 74.21875 44.703125 73.484375 
Q 48.484375 72.75 52.59375 71.296875 
z
" id="DejaVuSans-54"/>
    </defs>
    <g transform="translate(314.312813 276.070588)scale(0.12 -0.12)">
     <use xlink:href="#DejaVuSans-52"/>
     <use x="63.623047" xlink:href="#DejaVuSans-48"/>
     <use x="127.246094" xlink:href="#DejaVuSans-57"/>
     <use x="190.869141" xlink:href="#DejaVuSans-54"/>
     <use x="254.492188" xlink:href="#DejaVuSans-120"/>
     <use x="313.671875" xlink:href="#DejaVuSans-52"/>
     <use x="377.294922" xlink:href="#DejaVuSans-48"/>
     <use x="440.917969" xlink:href="#DejaVuSans-57"/>
     <use x="504.541016" xlink:href="#DejaVuSans-54"/>
     <use x="568.164062" xlink:href="#DejaVuSans-32"/>
     <use x="599.951172" xlink:href="#DejaVuSans-105"/>
     <use x="627.734375" xlink:href="#DejaVuSans-109"/>
     <use x="725.146484" xlink:href="#DejaVuSans-97"/>
     <use x="786.425781" xlink:href="#DejaVuSans-103"/>
     <use x="849.902344" xlink:href="#DejaVuSans-101"/>
    </g>
   </g>
   <g id="legend_2">
    <g id="patch_88">
     <path d="M 562.515625 363.461213 
L 641 363.461213 
Q 643 363.461213 643 361.461213 
L 643 289.070588 
Q 643 287.070588 641 287.070588 
L 562.515625 287.070588 
Q 560.515625 287.070588 560.515625 289.070588 
L 560.515625 361.461213 
Q 560.515625 363.461213 562.515625 363.461213 
z
" style="fill:#ffffff;opacity:0.8;stroke:#cccccc;stroke-linejoin:miter;"/>
    </g>
    <g id="patch_89">
     <path d="M 564.515625 298.669026 
L 584.515625 298.669026 
L 584.515625 291.669026 
L 564.515625 291.669026 
z
" style="fill:#ff0000;stroke:#ffffff;stroke-linejoin:miter;"/>
    </g>
    <g id="text_15">
     <!-- YZ -->
     <g transform="translate(592.515625 298.669026)scale(0.1 -0.1)">
      <use xlink:href="#DejaVuSans-89"/>
      <use x="61.083984" xlink:href="#DejaVuSans-90"/>
     </g>
    </g>
    <g id="patch_90">
     <path d="M 564.515625 313.347151 
L 584.515625 313.347151 
L 584.515625 306.347151 
L 564.515625 306.347151 
z
" style="fill:#0000ff;stroke:#ffffff;stroke-linejoin:miter;"/>
    </g>
    <g id="text_16">
     <!-- Z -->
     <g transform="translate(592.515625 313.347151)scale(0.1 -0.1)">
      <use xlink:href="#DejaVuSans-90"/>
     </g>
    </g>
    <g id="patch_91">
     <path d="M 564.515625 328.025276 
L 584.515625 328.025276 
L 584.515625 321.025276 
L 564.515625 321.025276 
z
" style="fill:#bfbf00;stroke:#ffffff;stroke-linejoin:miter;"/>
    </g>
    <g id="text_17">
     <!-- Region S -->
     <g transform="translate(592.515625 328.025276)scale(0.1 -0.1)">
      <use xlink:href="#DejaVuSans-82"/>
      <use x="69.419922" xlink:href="#DejaVuSans-101"/>
      <use x="130.943359" xlink:href="#DejaVuSans-103"/>
      <use x="194.419922" xlink:href="#DejaVuSans-105"/>
      <use x="222.203125" xlink:href="#DejaVuSans-111"/>
      <use x="283.384766" xlink:href="#DejaVuSans-110"/>
      <use x="346.763672" xlink:href="#DejaVuSans-32"/>
      <use x="378.550781" xlink:href="#DejaVuSans-83"/>
     </g>
    </g>
    <g id="patch_92">
     <path d="M 564.515625 342.703401 
L 584.515625 342.703401 
L 584.515625 335.703401 
L 564.515625 335.703401 
z
" style="fill:#008000;stroke:#ffffff;stroke-linejoin:miter;"/>
    </g>
    <g id="text_18">
     <!-- Region M -->
     <g transform="translate(592.515625 342.703401)scale(0.1 -0.1)">
      <use xlink:href="#DejaVuSans-82"/>
      <use x="69.419922" xlink:href="#DejaVuSans-101"/>
      <use x="130.943359" xlink:href="#DejaVuSans-103"/>
      <use x="194.419922" xlink:href="#DejaVuSans-105"/>
      <use x="222.203125" xlink:href="#DejaVuSans-111"/>
      <use x="283.384766" xlink:href="#DejaVuSans-110"/>
      <use x="346.763672" xlink:href="#DejaVuSans-32"/>
      <use x="378.550781" xlink:href="#DejaVuSans-77"/>
     </g>
    </g>
    <g id="patch_93">
     <path d="M 564.515625 357.381526 
L 584.515625 357.381526 
L 584.515625 350.381526 
L 564.515625 350.381526 
z
" style="fill:#00bfbf;stroke:#ffffff;stroke-linejoin:miter;"/>
    </g>
    <g id="text_19">
     <!-- Region L -->
     <g transform="translate(592.515625 357.381526)scale(0.1 -0.1)">
      <use xlink:href="#DejaVuSans-82"/>
      <use x="69.419922" xlink:href="#DejaVuSans-101"/>
      <use x="130.943359" xlink:href="#DejaVuSans-103"/>
      <use x="194.419922" xlink:href="#DejaVuSans-105"/>
      <use x="222.203125" xlink:href="#DejaVuSans-111"/>
      <use x="283.384766" xlink:href="#DejaVuSans-110"/>
      <use x="346.763672" xlink:href="#DejaVuSans-32"/>
      <use x="378.550781" xlink:href="#DejaVuSans-76"/>
     </g>
    </g>
   </g>
  </g>
  <g id="axes_3">
   <g id="patch_94">
    <path d="M 90 640.8 
L 648 640.8 
L 648 477.741176 
L 90 477.741176 
z
" style="fill:#ffffff;"/>
   </g>
   <g id="patch_95">
    <path clip-path="url(#p1a4f7e4349)" d="M 115.363636 66708.991631 
L 125.737365 66708.991631 
L 125.737365 489.036666 
L 115.363636 489.036666 
z
" style="fill:#ff0000;stroke:#ffffff;stroke-linejoin:miter;"/>
   </g>
   <g id="patch_96">
    <path clip-path="url(#p1a4f7e4349)" d="M 184.521826 66708.991631 
L 194.895554 66708.991631 
L 194.895554 491.871026 
L 184.521826 491.871026 
z
" style="fill:#ff0000;stroke:#ffffff;stroke-linejoin:miter;"/>
   </g>
   <g id="patch_97">
    <path clip-path="url(#p1a4f7e4349)" d="M 253.680016 66708.991631 
L 264.053744 66708.991631 
L 264.053744 488.544613 
L 253.680016 488.544613 
z
" style="fill:#ff0000;stroke:#ffffff;stroke-linejoin:miter;"/>
   </g>
   <g id="patch_98">
    <path clip-path="url(#p1a4f7e4349)" d="M 294.134963 66708.991631 
L 304.508692 66708.991631 
L 304.508692 485.152941 
L 294.134963 485.152941 
z
" style="fill:#ff0000;stroke:#ffffff;stroke-linejoin:miter;"/>
   </g>
   <g id="patch_99">
    <path clip-path="url(#p1a4f7e4349)" d="M 125.737365 66708.991631 
L 136.111093 66708.991631 
L 136.111093 588.412771 
L 125.737365 588.412771 
z
" style="fill:#0000ff;stroke:#ffffff;stroke-linejoin:miter;"/>
   </g>
   <g id="patch_100">
    <path clip-path="url(#p1a4f7e4349)" d="M 194.895554 66708.991631 
L 205.269283 66708.991631 
L 205.269283 554.625907 
L 194.895554 554.625907 
z
" style="fill:#0000ff;stroke:#ffffff;stroke-linejoin:miter;"/>
   </g>
   <g id="patch_101">
    <path clip-path="url(#p1a4f7e4349)" d="M 264.053744 66708.991631 
L 274.427472 66708.991631 
L 274.427472 519.455415 
L 264.053744 519.455415 
z
" style="fill:#0000ff;stroke:#ffffff;stroke-linejoin:miter;"/>
   </g>
   <g id="patch_102">
    <path clip-path="url(#p1a4f7e4349)" d="M 304.508692 66708.991631 
L 314.88242 66708.991631 
L 314.88242 566.016399 
L 304.508692 566.016399 
z
" style="fill:#0000ff;stroke:#ffffff;stroke-linejoin:miter;"/>
   </g>
   <g id="patch_103">
    <path clip-path="url(#p1a4f7e4349)" d="M 136.111093 66708.991631 
L 146.484822 66708.991631 
L 146.484822 571.010833 
L 136.111093 571.010833 
z
" style="fill:#bfbf00;stroke:#ffffff;stroke-linejoin:miter;"/>
   </g>
   <g id="patch_104">
    <path clip-path="url(#p1a4f7e4349)" d="M 205.269283 66708.991631 
L 215.643011 66708.991631 
L 215.643011 559.482344 
L 205.269283 559.482344 
z
" style="fill:#bfbf00;stroke:#ffffff;stroke-linejoin:miter;"/>
   </g>
   <g id="patch_105">
    <path clip-path="url(#p1a4f7e4349)" d="M 274.427472 66708.991631 
L 284.801201 66708.991631 
L 284.801201 569.730752 
L 274.427472 569.730752 
z
" style="fill:#bfbf00;stroke:#ffffff;stroke-linejoin:miter;"/>
   </g>
   <g id="patch_106">
    <path clip-path="url(#p1a4f7e4349)" d="M 314.88242 66708.991631 
L 325.256148 66708.991631 
L 325.256148 559.455078 
L 314.88242 559.455078 
z
" style="fill:#bfbf00;stroke:#ffffff;stroke-linejoin:miter;"/>
   </g>
   <g id="patch_107">
    <path clip-path="url(#p1a4f7e4349)" d="M 146.484822 66708.991631 
L 156.85855 66708.991631 
L 156.85855 575.315117 
L 146.484822 575.315117 
z
" style="fill:#008000;stroke:#ffffff;stroke-linejoin:miter;"/>
   </g>
   <g id="patch_108">
    <path clip-path="url(#p1a4f7e4349)" d="M 215.643011 66708.991631 
L 226.01674 66708.991631 
L 226.01674 575.415932 
L 215.643011 575.415932 
z
" style="fill:#008000;stroke:#ffffff;stroke-linejoin:miter;"/>
   </g>
   <g id="patch_109">
    <path clip-path="url(#p1a4f7e4349)" d="M 284.801201 66708.991631 
L 295.174929 66708.991631 
L 295.174929 581.152262 
L 284.801201 581.152262 
z
" style="fill:#008000;stroke:#ffffff;stroke-linejoin:miter;"/>
   </g>
   <g id="patch_110">
    <path clip-path="url(#p1a4f7e4349)" d="M 325.256148 66708.991631 
L 335.629877 66708.991631 
L 335.629877 583.843263 
L 325.256148 583.843263 
z
" style="fill:#008000;stroke:#ffffff;stroke-linejoin:miter;"/>
   </g>
   <g id="patch_111">
    <path clip-path="url(#p1a4f7e4349)" d="M 156.85855 66708.991631 
L 167.232279 66708.991631 
L 167.232279 619.617645 
L 156.85855 619.617645 
z
" style="fill:#00bfbf;stroke:#ffffff;stroke-linejoin:miter;"/>
   </g>
   <g id="patch_112">
    <path clip-path="url(#p1a4f7e4349)" d="M 226.01674 66708.991631 
L 236.390468 66708.991631 
L 236.390468 625.516923 
L 226.01674 625.516923 
z
" style="fill:#00bfbf;stroke:#ffffff;stroke-linejoin:miter;"/>
   </g>
   <g id="patch_113">
    <path clip-path="url(#p1a4f7e4349)" d="M 295.174929 66708.991631 
L 305.548658 66708.991631 
L 305.548658 629.920554 
L 295.174929 629.920554 
z
" style="fill:#00bfbf;stroke:#ffffff;stroke-linejoin:miter;"/>
   </g>
   <g id="patch_114">
    <path clip-path="url(#p1a4f7e4349)" d="M 335.629877 66708.991631 
L 346.003605 66708.991631 
L 346.003605 630.367083 
L 335.629877 630.367083 
z
" style="fill:#00bfbf;stroke:#ffffff;stroke-linejoin:miter;"/>
   </g>
   <g id="matplotlib.axis_5">
    <g id="xtick_21">
     <g id="line2d_72">
      <g>
       <use style="stroke:#000000;stroke-width:0.8;" x="141.297957" xlink:href="#m490798f534" y="640.8"/>
      </g>
     </g>
     <g id="text_20">
      <!-- $2^{7}$ -->
      <defs>
       <path d="M 8.203125 72.90625 
L 55.078125 72.90625 
L 55.078125 68.703125 
L 28.609375 0 
L 18.3125 0 
L 43.21875 64.59375 
L 8.203125 64.59375 
z
" id="DejaVuSans-55"/>
      </defs>
      <g transform="translate(139.289332 661.092503)rotate(-45)scale(0.1 -0.1)">
       <use transform="translate(0 0.684375)" xlink:href="#DejaVuSans-50"/>
       <use transform="translate(64.580078 38.965625)scale(0.7)" xlink:href="#DejaVuSans-55"/>
      </g>
     </g>
    </g>
    <g id="xtick_22">
     <g id="line2d_73">
      <g>
       <use style="stroke:#000000;stroke-width:0.8;" x="210.456147" xlink:href="#m490798f534" y="640.8"/>
      </g>
     </g>
     <g id="text_21">
      <!-- $2^{8}$ -->
      <g transform="translate(208.447522 661.092503)rotate(-45)scale(0.1 -0.1)">
       <use transform="translate(0 0.765625)" xlink:href="#DejaVuSans-50"/>
       <use transform="translate(64.580078 39.046875)scale(0.7)" xlink:href="#DejaVuSans-56"/>
      </g>
     </g>
    </g>
    <g id="xtick_23">
     <g id="line2d_74">
      <g>
       <use style="stroke:#000000;stroke-width:0.8;" x="279.614337" xlink:href="#m490798f534" y="640.8"/>
      </g>
     </g>
     <g id="text_22">
      <!-- $2^{9}$ -->
      <g transform="translate(277.605711 661.092503)rotate(-45)scale(0.1 -0.1)">
       <use transform="translate(0 0.765625)" xlink:href="#DejaVuSans-50"/>
       <use transform="translate(64.580078 39.046875)scale(0.7)" xlink:href="#DejaVuSans-57"/>
      </g>
     </g>
    </g>
    <g id="xtick_24">
     <g id="line2d_75">
      <g>
       <use style="stroke:#000000;stroke-width:0.8;" x="320.069284" xlink:href="#m490798f534" y="640.8"/>
      </g>
     </g>
     <g id="text_23">
      <!-- $2^{9.6}$ -->
      <defs>
       <path d="M 10.6875 12.40625 
L 21 12.40625 
L 21 0 
L 10.6875 0 
z
" id="DejaVuSans-46"/>
      </defs>
      <g transform="translate(315.691851 665.830118)rotate(-45)scale(0.1 -0.1)">
       <use transform="translate(0 0.765625)" xlink:href="#DejaVuSans-50"/>
       <use transform="translate(64.580078 39.046875)scale(0.7)" xlink:href="#DejaVuSans-57"/>
       <use transform="translate(109.116211 39.046875)scale(0.7)" xlink:href="#DejaVuSans-46"/>
       <use transform="translate(131.367188 39.046875)scale(0.7)" xlink:href="#DejaVuSans-54"/>
      </g>
     </g>
    </g>
    <g id="xtick_25">
     <g id="line2d_76">
      <g>
       <use style="stroke:#000000;stroke-width:0.8;" x="348.772526" xlink:href="#m490798f534" y="640.8"/>
      </g>
     </g>
     <g id="text_24">
      <!-- $2^{10}$ -->
      <g transform="translate(345.172911 664.274483)rotate(-45)scale(0.1 -0.1)">
       <use transform="translate(0 0.765625)" xlink:href="#DejaVuSans-50"/>
       <use transform="translate(64.580078 39.046875)scale(0.7)" xlink:href="#DejaVuSans-49"/>
       <use transform="translate(109.116211 39.046875)scale(0.7)" xlink:href="#DejaVuSans-48"/>
      </g>
     </g>
    </g>
    <g id="xtick_26">
     <g id="line2d_77">
      <g>
       <use style="stroke:#000000;stroke-width:0.8;" x="417.930716" xlink:href="#m490798f534" y="640.8"/>
      </g>
     </g>
     <g id="text_25">
      <!-- $2^{11}$ -->
      <g transform="translate(414.3311 664.274483)rotate(-45)scale(0.1 -0.1)">
       <use transform="translate(0 0.684375)" xlink:href="#DejaVuSans-50"/>
       <use transform="translate(64.580078 38.965625)scale(0.7)" xlink:href="#DejaVuSans-49"/>
       <use transform="translate(109.116211 38.965625)scale(0.7)" xlink:href="#DejaVuSans-49"/>
      </g>
     </g>
    </g>
    <g id="xtick_27">
     <g id="line2d_78">
      <g>
       <use style="stroke:#000000;stroke-width:0.8;" x="458.385663" xlink:href="#m490798f534" y="640.8"/>
      </g>
     </g>
     <g id="text_26">
      <!-- $2^{11.6}$ -->
      <g transform="translate(452.41724 669.012099)rotate(-45)scale(0.1 -0.1)">
       <use transform="translate(0 0.765625)" xlink:href="#DejaVuSans-50"/>
       <use transform="translate(64.580078 39.046875)scale(0.7)" xlink:href="#DejaVuSans-49"/>
       <use transform="translate(109.116211 39.046875)scale(0.7)" xlink:href="#DejaVuSans-49"/>
       <use transform="translate(153.652344 39.046875)scale(0.7)" xlink:href="#DejaVuSans-46"/>
       <use transform="translate(175.90332 39.046875)scale(0.7)" xlink:href="#DejaVuSans-54"/>
      </g>
     </g>
    </g>
    <g id="xtick_28">
     <g id="line2d_79">
      <g>
       <use style="stroke:#000000;stroke-width:0.8;" x="487.088905" xlink:href="#m490798f534" y="640.8"/>
      </g>
     </g>
     <g id="text_27">
      <!-- $2^{12}$ -->
      <g transform="translate(483.48929 664.274483)rotate(-45)scale(0.1 -0.1)">
       <use transform="translate(0 0.765625)" xlink:href="#DejaVuSans-50"/>
       <use transform="translate(64.580078 39.046875)scale(0.7)" xlink:href="#DejaVuSans-49"/>
       <use transform="translate(109.116211 39.046875)scale(0.7)" xlink:href="#DejaVuSans-50"/>
      </g>
     </g>
    </g>
    <g id="xtick_29">
     <g id="line2d_80">
      <g>
       <use style="stroke:#000000;stroke-width:0.8;" x="556.247095" xlink:href="#m490798f534" y="640.8"/>
      </g>
     </g>
     <g id="text_28">
      <!-- $2^{13}$ -->
      <g transform="translate(552.64748 664.274483)rotate(-45)scale(0.1 -0.1)">
       <use transform="translate(0 0.765625)" xlink:href="#DejaVuSans-50"/>
       <use transform="translate(64.580078 39.046875)scale(0.7)" xlink:href="#DejaVuSans-49"/>
       <use transform="translate(109.116211 39.046875)scale(0.7)" xlink:href="#DejaVuSans-51"/>
      </g>
     </g>
    </g>
    <g id="xtick_30">
     <g id="line2d_81">
      <g>
       <use style="stroke:#000000;stroke-width:0.8;" x="596.702043" xlink:href="#m490798f534" y="640.8"/>
      </g>
     </g>
     <g id="text_29">
      <!-- $2^{13.6}$ -->
      <g transform="translate(590.733619 669.012099)rotate(-45)scale(0.1 -0.1)">
       <use transform="translate(0 0.765625)" xlink:href="#DejaVuSans-50"/>
       <use transform="translate(64.580078 39.046875)scale(0.7)" xlink:href="#DejaVuSans-49"/>
       <use transform="translate(109.116211 39.046875)scale(0.7)" xlink:href="#DejaVuSans-51"/>
       <use transform="translate(153.652344 39.046875)scale(0.7)" xlink:href="#DejaVuSans-46"/>
       <use transform="translate(175.90332 39.046875)scale(0.7)" xlink:href="#DejaVuSans-54"/>
      </g>
     </g>
    </g>
    <g id="text_30">
     <!-- Image depth -->
     <defs>
      <path d="M 9.8125 72.90625 
L 19.671875 72.90625 
L 19.671875 0 
L 9.8125 0 
z
" id="DejaVuSans-73"/>
      <path d="M 54.890625 33.015625 
L 54.890625 0 
L 45.90625 0 
L 45.90625 32.71875 
Q 45.90625 40.484375 42.875 44.328125 
Q 39.84375 48.1875 33.796875 48.1875 
Q 26.515625 48.1875 22.3125 43.546875 
Q 18.109375 38.921875 18.109375 30.90625 
L 18.109375 0 
L 9.078125 0 
L 9.078125 75.984375 
L 18.109375 75.984375 
L 18.109375 46.1875 
Q 21.34375 51.125 25.703125 53.5625 
Q 30.078125 56 35.796875 56 
Q 45.21875 56 50.046875 50.171875 
Q 54.890625 44.34375 54.890625 33.015625 
z
" id="DejaVuSans-104"/>
     </defs>
     <g transform="translate(337.196875 682.081097)scale(0.1 -0.1)">
      <use xlink:href="#DejaVuSans-73"/>
      <use x="29.492188" xlink:href="#DejaVuSans-109"/>
      <use x="126.904297" xlink:href="#DejaVuSans-97"/>
      <use x="188.183594" xlink:href="#DejaVuSans-103"/>
      <use x="251.660156" xlink:href="#DejaVuSans-101"/>
      <use x="313.183594" xlink:href="#DejaVuSans-32"/>
      <use x="344.970703" xlink:href="#DejaVuSans-100"/>
      <use x="408.447266" xlink:href="#DejaVuSans-101"/>
      <use x="469.970703" xlink:href="#DejaVuSans-112"/>
      <use x="533.447266" xlink:href="#DejaVuSans-116"/>
      <use x="572.65625" xlink:href="#DejaVuSans-104"/>
     </g>
    </g>
   </g>
   <g id="matplotlib.axis_6">
    <g id="ytick_52">
     <g id="line2d_82">
      <g>
       <use style="stroke:#000000;stroke-width:0.8;" x="90" xlink:href="#md7113420f6" y="617.656954"/>
      </g>
     </g>
     <g id="text_31">
      <!-- $\mathdefault{10^{1}}$ -->
      <g transform="translate(65.4 621.456172)scale(0.1 -0.1)">
       <use transform="translate(0 0.684375)" xlink:href="#DejaVuSans-49"/>
       <use transform="translate(63.623047 0.684375)" xlink:href="#DejaVuSans-48"/>
       <use transform="translate(128.203125 38.965625)scale(0.7)" xlink:href="#DejaVuSans-49"/>
      </g>
     </g>
    </g>
    <g id="ytick_53">
     <g id="line2d_83">
      <g>
       <use style="stroke:#000000;stroke-width:0.8;" x="90" xlink:href="#md7113420f6" y="551.631644"/>
      </g>
     </g>
     <g id="text_32">
      <!-- $\mathdefault{10^{2}}$ -->
      <g transform="translate(65.4 555.430863)scale(0.1 -0.1)">
       <use transform="translate(0 0.765625)" xlink:href="#DejaVuSans-49"/>
       <use transform="translate(63.623047 0.765625)" xlink:href="#DejaVuSans-48"/>
       <use transform="translate(128.203125 39.046875)scale(0.7)" xlink:href="#DejaVuSans-50"/>
      </g>
     </g>
    </g>
    <g id="ytick_54">
     <g id="line2d_84">
      <g>
       <use style="stroke:#000000;stroke-width:0.8;" x="90" xlink:href="#md7113420f6" y="485.606335"/>
      </g>
     </g>
     <g id="text_33">
      <!-- $\mathdefault{10^{3}}$ -->
      <g transform="translate(65.4 489.405554)scale(0.1 -0.1)">
       <use transform="translate(0 0.765625)" xlink:href="#DejaVuSans-49"/>
       <use transform="translate(63.623047 0.765625)" xlink:href="#DejaVuSans-48"/>
       <use transform="translate(128.203125 39.046875)scale(0.7)" xlink:href="#DejaVuSans-51"/>
      </g>
     </g>
    </g>
    <g id="ytick_55">
     <g id="line2d_85">
      <g>
       <use style="stroke:#000000;stroke-width:0.6;" x="90" xlink:href="#m6673aa757a" y="637.532552"/>
      </g>
     </g>
    </g>
    <g id="ytick_56">
     <g id="line2d_86">
      <g>
       <use style="stroke:#000000;stroke-width:0.6;" x="90" xlink:href="#m6673aa757a" y="632.304586"/>
      </g>
     </g>
    </g>
    <g id="ytick_57">
     <g id="line2d_87">
      <g>
       <use style="stroke:#000000;stroke-width:0.6;" x="90" xlink:href="#m6673aa757a" y="627.884403"/>
      </g>
     </g>
    </g>
    <g id="ytick_58">
     <g id="line2d_88">
      <g>
       <use style="stroke:#000000;stroke-width:0.6;" x="90" xlink:href="#m6673aa757a" y="624.055467"/>
      </g>
     </g>
    </g>
    <g id="ytick_59">
     <g id="line2d_89">
      <g>
       <use style="stroke:#000000;stroke-width:0.6;" x="90" xlink:href="#m6673aa757a" y="620.678106"/>
      </g>
     </g>
    </g>
    <g id="ytick_60">
     <g id="line2d_90">
      <g>
       <use style="stroke:#000000;stroke-width:0.6;" x="90" xlink:href="#m6673aa757a" y="597.781355"/>
      </g>
     </g>
    </g>
    <g id="ytick_61">
     <g id="line2d_91">
      <g>
       <use style="stroke:#000000;stroke-width:0.6;" x="90" xlink:href="#m6673aa757a" y="586.154875"/>
      </g>
     </g>
    </g>
    <g id="ytick_62">
     <g id="line2d_92">
      <g>
       <use style="stroke:#000000;stroke-width:0.6;" x="90" xlink:href="#m6673aa757a" y="577.905756"/>
      </g>
     </g>
    </g>
    <g id="ytick_63">
     <g id="line2d_93">
      <g>
       <use style="stroke:#000000;stroke-width:0.6;" x="90" xlink:href="#m6673aa757a" y="571.507243"/>
      </g>
     </g>
    </g>
    <g id="ytick_64">
     <g id="line2d_94">
      <g>
       <use style="stroke:#000000;stroke-width:0.6;" x="90" xlink:href="#m6673aa757a" y="566.279277"/>
      </g>
     </g>
    </g>
    <g id="ytick_65">
     <g id="line2d_95">
      <g>
       <use style="stroke:#000000;stroke-width:0.6;" x="90" xlink:href="#m6673aa757a" y="561.859094"/>
      </g>
     </g>
    </g>
    <g id="ytick_66">
     <g id="line2d_96">
      <g>
       <use style="stroke:#000000;stroke-width:0.6;" x="90" xlink:href="#m6673aa757a" y="558.030158"/>
      </g>
     </g>
    </g>
    <g id="ytick_67">
     <g id="line2d_97">
      <g>
       <use style="stroke:#000000;stroke-width:0.6;" x="90" xlink:href="#m6673aa757a" y="554.652797"/>
      </g>
     </g>
    </g>
    <g id="ytick_68">
     <g id="line2d_98">
      <g>
       <use style="stroke:#000000;stroke-width:0.6;" x="90" xlink:href="#m6673aa757a" y="531.756046"/>
      </g>
     </g>
    </g>
    <g id="ytick_69">
     <g id="line2d_99">
      <g>
       <use style="stroke:#000000;stroke-width:0.6;" x="90" xlink:href="#m6673aa757a" y="520.129566"/>
      </g>
     </g>
    </g>
    <g id="ytick_70">
     <g id="line2d_100">
      <g>
       <use style="stroke:#000000;stroke-width:0.6;" x="90" xlink:href="#m6673aa757a" y="511.880447"/>
      </g>
     </g>
    </g>
    <g id="ytick_71">
     <g id="line2d_101">
      <g>
       <use style="stroke:#000000;stroke-width:0.6;" x="90" xlink:href="#m6673aa757a" y="505.481933"/>
      </g>
     </g>
    </g>
    <g id="ytick_72">
     <g id="line2d_102">
      <g>
       <use style="stroke:#000000;stroke-width:0.6;" x="90" xlink:href="#m6673aa757a" y="500.253967"/>
      </g>
     </g>
    </g>
    <g id="ytick_73">
     <g id="line2d_103">
      <g>
       <use style="stroke:#000000;stroke-width:0.6;" x="90" xlink:href="#m6673aa757a" y="495.833785"/>
      </g>
     </g>
    </g>
    <g id="ytick_74">
     <g id="line2d_104">
      <g>
       <use style="stroke:#000000;stroke-width:0.6;" x="90" xlink:href="#m6673aa757a" y="492.004848"/>
      </g>
     </g>
    </g>
    <g id="ytick_75">
     <g id="line2d_105">
      <g>
       <use style="stroke:#000000;stroke-width:0.6;" x="90" xlink:href="#m6673aa757a" y="488.627487"/>
      </g>
     </g>
    </g>
   </g>
   <g id="patch_115">
    <path d="M 90 640.8 
L 90 477.741176 
" style="fill:none;stroke:#000000;stroke-linecap:square;stroke-linejoin:miter;stroke-width:0.8;"/>
   </g>
   <g id="patch_116">
    <path d="M 648 640.8 
L 648 477.741176 
" style="fill:none;stroke:#000000;stroke-linecap:square;stroke-linejoin:miter;stroke-width:0.8;"/>
   </g>
   <g id="patch_117">
    <path d="M 90 640.8 
L 648 640.8 
" style="fill:none;stroke:#000000;stroke-linecap:square;stroke-linejoin:miter;stroke-width:0.8;"/>
   </g>
   <g id="patch_118">
    <path d="M 90 477.741176 
L 648 477.741176 
" style="fill:none;stroke:#000000;stroke-linecap:square;stroke-linejoin:miter;stroke-width:0.8;"/>
   </g>
   <g id="text_34">
    <!-- 8192x8192 image -->
    <g transform="translate(314.312813 471.741176)scale(0.12 -0.12)">
     <use xlink:href="#DejaVuSans-56"/>
     <use x="63.623047" xlink:href="#DejaVuSans-49"/>
     <use x="127.246094" xlink:href="#DejaVuSans-57"/>
     <use x="190.869141" xlink:href="#DejaVuSans-50"/>
     <use x="254.492188" xlink:href="#DejaVuSans-120"/>
     <use x="313.671875" xlink:href="#DejaVuSans-56"/>
     <use x="377.294922" xlink:href="#DejaVuSans-49"/>
     <use x="440.917969" xlink:href="#DejaVuSans-57"/>
     <use x="504.541016" xlink:href="#DejaVuSans-50"/>
     <use x="568.164062" xlink:href="#DejaVuSans-32"/>
     <use x="599.951172" xlink:href="#DejaVuSans-105"/>
     <use x="627.734375" xlink:href="#DejaVuSans-109"/>
     <use x="725.146484" xlink:href="#DejaVuSans-97"/>
     <use x="786.425781" xlink:href="#DejaVuSans-103"/>
     <use x="849.902344" xlink:href="#DejaVuSans-101"/>
    </g>
   </g>
   <g id="legend_3">
    <g id="patch_119">
     <path d="M 562.515625 559.131801 
L 641 559.131801 
Q 643 559.131801 643 557.131801 
L 643 484.741176 
Q 643 482.741176 641 482.741176 
L 562.515625 482.741176 
Q 560.515625 482.741176 560.515625 484.741176 
L 560.515625 557.131801 
Q 560.515625 559.131801 562.515625 559.131801 
z
" style="fill:#ffffff;opacity:0.8;stroke:#cccccc;stroke-linejoin:miter;"/>
    </g>
    <g id="patch_120">
     <path d="M 564.515625 494.339614 
L 584.515625 494.339614 
L 584.515625 487.339614 
L 564.515625 487.339614 
z
" style="fill:#ff0000;stroke:#ffffff;stroke-linejoin:miter;"/>
    </g>
    <g id="text_35">
     <!-- YZ -->
     <g transform="translate(592.515625 494.339614)scale(0.1 -0.1)">
      <use xlink:href="#DejaVuSans-89"/>
      <use x="61.083984" xlink:href="#DejaVuSans-90"/>
     </g>
    </g>
    <g id="patch_121">
     <path d="M 564.515625 509.017739 
L 584.515625 509.017739 
L 584.515625 502.017739 
L 564.515625 502.017739 
z
" style="fill:#0000ff;stroke:#ffffff;stroke-linejoin:miter;"/>
    </g>
    <g id="text_36">
     <!-- Z -->
     <g transform="translate(592.515625 509.017739)scale(0.1 -0.1)">
      <use xlink:href="#DejaVuSans-90"/>
     </g>
    </g>
    <g id="patch_122">
     <path d="M 564.515625 523.695864 
L 584.515625 523.695864 
L 584.515625 516.695864 
L 564.515625 516.695864 
z
" style="fill:#bfbf00;stroke:#ffffff;stroke-linejoin:miter;"/>
    </g>
    <g id="text_37">
     <!-- Region S -->
     <g transform="translate(592.515625 523.695864)scale(0.1 -0.1)">
      <use xlink:href="#DejaVuSans-82"/>
      <use x="69.419922" xlink:href="#DejaVuSans-101"/>
      <use x="130.943359" xlink:href="#DejaVuSans-103"/>
      <use x="194.419922" xlink:href="#DejaVuSans-105"/>
      <use x="222.203125" xlink:href="#DejaVuSans-111"/>
      <use x="283.384766" xlink:href="#DejaVuSans-110"/>
      <use x="346.763672" xlink:href="#DejaVuSans-32"/>
      <use x="378.550781" xlink:href="#DejaVuSans-83"/>
     </g>
    </g>
    <g id="patch_123">
     <path d="M 564.515625 538.373989 
L 584.515625 538.373989 
L 584.515625 531.373989 
L 564.515625 531.373989 
z
" style="fill:#008000;stroke:#ffffff;stroke-linejoin:miter;"/>
    </g>
    <g id="text_38">
     <!-- Region M -->
     <g transform="translate(592.515625 538.373989)scale(0.1 -0.1)">
      <use xlink:href="#DejaVuSans-82"/>
      <use x="69.419922" xlink:href="#DejaVuSans-101"/>
      <use x="130.943359" xlink:href="#DejaVuSans-103"/>
      <use x="194.419922" xlink:href="#DejaVuSans-105"/>
      <use x="222.203125" xlink:href="#DejaVuSans-111"/>
      <use x="283.384766" xlink:href="#DejaVuSans-110"/>
      <use x="346.763672" xlink:href="#DejaVuSans-32"/>
      <use x="378.550781" xlink:href="#DejaVuSans-77"/>
     </g>
    </g>
    <g id="patch_124">
     <path d="M 564.515625 553.052114 
L 584.515625 553.052114 
L 584.515625 546.052114 
L 564.515625 546.052114 
z
" style="fill:#00bfbf;stroke:#ffffff;stroke-linejoin:miter;"/>
    </g>
    <g id="text_39">
     <!-- Region L -->
     <g transform="translate(592.515625 553.052114)scale(0.1 -0.1)">
      <use xlink:href="#DejaVuSans-82"/>
      <use x="69.419922" xlink:href="#DejaVuSans-101"/>
      <use x="130.943359" xlink:href="#DejaVuSans-103"/>
      <use x="194.419922" xlink:href="#DejaVuSans-105"/>
      <use x="222.203125" xlink:href="#DejaVuSans-111"/>
      <use x="283.384766" xlink:href="#DejaVuSans-110"/>
      <use x="346.763672" xlink:href="#DejaVuSans-32"/>
      <use x="378.550781" xlink:href="#DejaVuSans-76"/>
     </g>
    </g>
   </g>
  </g>
 </g>
 <defs>
  <clipPath id="pba353794c5">
   <rect height="163.058824" width="558" x="90" y="86.4"/>
  </clipPath>
  <clipPath id="pb675fd8e51">
   <rect height="163.058824" width="558" x="90" y="282.070588"/>
  </clipPath>
  <clipPath id="p1a4f7e4349">
   <rect height="163.058824" width="558" x="90" y="477.741176"/>
  </clipPath>
 </defs>
</svg>
