<?xml version="1.0" encoding="utf-8" standalone="no"?>
<!DOCTYPE svg PUBLIC "-//W3C//DTD SVG 1.1//EN"
  "http://www.w3.org/Graphics/SVG/1.1/DTD/svg11.dtd">
<!-- Created with matplotlib (https://matplotlib.org/) -->
<svg height="360pt" version="1.1" viewBox="0 0 1440 360" width="1440pt" xmlns="http://www.w3.org/2000/svg" xmlns:xlink="http://www.w3.org/1999/xlink">
 <defs>
  <style type="text/css">
*{stroke-linecap:butt;stroke-linejoin:round;}
  </style>
 </defs>
 <g id="figure_1">
  <g id="patch_1">
   <path d="M 0 360 
L 1440 360 
L 1440 0 
L 0 0 
z
" style="fill:#ffffff;"/>
  </g>
  <g id="axes_1">
   <g id="patch_2">
    <path d="M 49.068485 282.230334 
L 1429.2 282.230334 
L 1429.2 10.8 
L 49.068485 10.8 
z
" style="fill:#ffffff;"/>
   </g>
   <g id="patch_3">
    <path clip-path="url(#p199d7fc41d)" d="M 111.801735 82492.736266 
L 123.079623 82492.736266 
L 123.079623 117.879153 
L 111.801735 117.879153 
z
" style="fill:#ff0000;stroke:#ffffff;stroke-linejoin:miter;"/>
   </g>
   <g id="patch_4">
    <path clip-path="url(#p199d7fc41d)" d="M 182.288534 82492.736266 
L 193.566422 82492.736266 
L 193.566422 131.844447 
L 182.288534 131.844447 
z
" style="fill:#ff0000;stroke:#ffffff;stroke-linejoin:miter;"/>
   </g>
   <g id="patch_5">
    <path clip-path="url(#p199d7fc41d)" d="M 252.775333 82492.736266 
L 264.05322 82492.736266 
L 264.05322 118.482651 
L 252.775333 118.482651 
z
" style="fill:#ff0000;stroke:#ffffff;stroke-linejoin:miter;"/>
   </g>
   <g id="patch_6">
    <path clip-path="url(#p199d7fc41d)" d="M 323.262131 82492.736266 
L 334.540019 82492.736266 
L 334.540019 123.649443 
L 323.262131 123.649443 
z
" style="fill:#ff0000;stroke:#ffffff;stroke-linejoin:miter;"/>
   </g>
   <g id="patch_7">
    <path clip-path="url(#p199d7fc41d)" d="M 393.74893 82492.736266 
L 405.026817 82492.736266 
L 405.026817 120.434764 
L 393.74893 120.434764 
z
" style="fill:#ff0000;stroke:#ffffff;stroke-linejoin:miter;"/>
   </g>
   <g id="patch_8">
    <path clip-path="url(#p199d7fc41d)" d="M 464.235728 82492.736266 
L 475.513616 82492.736266 
L 475.513616 104.302653 
L 464.235728 104.302653 
z
" style="fill:#ff0000;stroke:#ffffff;stroke-linejoin:miter;"/>
   </g>
   <g id="patch_9">
    <path clip-path="url(#p199d7fc41d)" d="M 534.722527 82492.736266 
L 546.000414 82492.736266 
L 546.000414 82.624176 
L 534.722527 82.624176 
z
" style="fill:#ff0000;stroke:#ffffff;stroke-linejoin:miter;"/>
   </g>
   <g id="patch_10">
    <path clip-path="url(#p199d7fc41d)" d="M 605.209325 82492.736266 
L 616.487213 82492.736266 
L 616.487213 80.797883 
L 605.209325 80.797883 
z
" style="fill:#ff0000;stroke:#ffffff;stroke-linejoin:miter;"/>
   </g>
   <g id="patch_11">
    <path clip-path="url(#p199d7fc41d)" d="M 675.696124 82492.736266 
L 686.974011 82492.736266 
L 686.974011 130.977624 
L 675.696124 130.977624 
z
" style="fill:#ff0000;stroke:#ffffff;stroke-linejoin:miter;"/>
   </g>
   <g id="patch_12">
    <path clip-path="url(#p199d7fc41d)" d="M 746.182922 82492.736266 
L 757.46081 82492.736266 
L 757.46081 96.98735 
L 746.182922 96.98735 
z
" style="fill:#ff0000;stroke:#ffffff;stroke-linejoin:miter;"/>
   </g>
   <g id="patch_13">
    <path clip-path="url(#p199d7fc41d)" d="M 816.669721 82492.736266 
L 827.947609 82492.736266 
L 827.947609 87.941604 
L 816.669721 87.941604 
z
" style="fill:#ff0000;stroke:#ffffff;stroke-linejoin:miter;"/>
   </g>
   <g id="patch_14">
    <path clip-path="url(#p199d7fc41d)" d="M 887.156519 82492.736266 
L 898.434407 82492.736266 
L 898.434407 96.106308 
L 887.156519 96.106308 
z
" style="fill:#ff0000;stroke:#ffffff;stroke-linejoin:miter;"/>
   </g>
   <g id="patch_15">
    <path clip-path="url(#p199d7fc41d)" d="M 957.643318 82492.736266 
L 968.921206 82492.736266 
L 968.921206 73.384709 
L 957.643318 73.384709 
z
" style="fill:#ff0000;stroke:#ffffff;stroke-linejoin:miter;"/>
   </g>
   <g id="patch_16">
    <path clip-path="url(#p199d7fc41d)" d="M 1028.130116 82492.736266 
L 1039.408004 82492.736266 
L 1039.408004 76.969239 
L 1028.130116 76.969239 
z
" style="fill:#ff0000;stroke:#ffffff;stroke-linejoin:miter;"/>
   </g>
   <g id="patch_17">
    <path clip-path="url(#p199d7fc41d)" d="M 1098.616915 82492.736266 
L 1109.894803 82492.736266 
L 1109.894803 58.30323 
L 1098.616915 58.30323 
z
" style="fill:#ff0000;stroke:#ffffff;stroke-linejoin:miter;"/>
   </g>
   <g id="patch_18">
    <path clip-path="url(#p199d7fc41d)" d="M 1169.103713 82492.736266 
L 1180.381601 82492.736266 
L 1180.381601 61.477233 
L 1169.103713 61.477233 
z
" style="fill:#ff0000;stroke:#ffffff;stroke-linejoin:miter;"/>
   </g>
   <g id="patch_19">
    <path clip-path="url(#p199d7fc41d)" d="M 1239.590512 82492.736266 
L 1250.8684 82492.736266 
L 1250.8684 57.672016 
L 1239.590512 57.672016 
z
" style="fill:#ff0000;stroke:#ffffff;stroke-linejoin:miter;"/>
   </g>
   <g id="patch_20">
    <path clip-path="url(#p199d7fc41d)" d="M 1310.07731 82492.736266 
L 1321.355198 82492.736266 
L 1321.355198 53.449865 
L 1310.07731 53.449865 
z
" style="fill:#ff0000;stroke:#ffffff;stroke-linejoin:miter;"/>
   </g>
   <g id="patch_21">
    <path clip-path="url(#p199d7fc41d)" d="M 123.079623 82492.736266 
L 134.357511 82492.736266 
L 134.357511 182.773523 
L 123.079623 182.773523 
z
" style="fill:#0000ff;stroke:#ffffff;stroke-linejoin:miter;"/>
   </g>
   <g id="patch_22">
    <path clip-path="url(#p199d7fc41d)" d="M 193.566422 82492.736266 
L 204.84431 82492.736266 
L 204.84431 153.675511 
L 193.566422 153.675511 
z
" style="fill:#0000ff;stroke:#ffffff;stroke-linejoin:miter;"/>
   </g>
   <g id="patch_23">
    <path clip-path="url(#p199d7fc41d)" d="M 264.05322 82492.736266 
L 275.331108 82492.736266 
L 275.331108 123.115358 
L 264.05322 123.115358 
z
" style="fill:#0000ff;stroke:#ffffff;stroke-linejoin:miter;"/>
   </g>
   <g id="patch_24">
    <path clip-path="url(#p199d7fc41d)" d="M 334.540019 82492.736266 
L 345.817907 82492.736266 
L 345.817907 120.306168 
L 334.540019 120.306168 
z
" style="fill:#0000ff;stroke:#ffffff;stroke-linejoin:miter;"/>
   </g>
   <g id="patch_25">
    <path clip-path="url(#p199d7fc41d)" d="M 405.026817 82492.736266 
L 416.304705 82492.736266 
L 416.304705 70.290501 
L 405.026817 70.290501 
z
" style="fill:#0000ff;stroke:#ffffff;stroke-linejoin:miter;"/>
   </g>
   <g id="patch_26">
    <path clip-path="url(#p199d7fc41d)" d="M 475.513616 82492.736266 
L 486.791504 82492.736266 
L 486.791504 59.138646 
L 475.513616 59.138646 
z
" style="fill:#0000ff;stroke:#ffffff;stroke-linejoin:miter;"/>
   </g>
   <g id="patch_27">
    <path clip-path="url(#p199d7fc41d)" d="M 546.000414 82492.736266 
L 557.278302 82492.736266 
L 557.278302 39.464839 
L 546.000414 39.464839 
z
" style="fill:#0000ff;stroke:#ffffff;stroke-linejoin:miter;"/>
   </g>
   <g id="patch_28">
    <path clip-path="url(#p199d7fc41d)" d="M 616.487213 82492.736266 
L 627.765101 82492.736266 
L 627.765101 23.137742 
L 616.487213 23.137742 
z
" style="fill:#0000ff;stroke:#ffffff;stroke-linejoin:miter;"/>
   </g>
   <g id="patch_29">
    <path clip-path="url(#p199d7fc41d)" d="M 686.974011 82492.736266 
L 698.251899 82492.736266 
L 698.251899 151.960702 
L 686.974011 151.960702 
z
" style="fill:#0000ff;stroke:#ffffff;stroke-linejoin:miter;"/>
   </g>
   <g id="patch_30">
    <path clip-path="url(#p199d7fc41d)" d="M 757.46081 82492.736266 
L 768.738698 82492.736266 
L 768.738698 126.971585 
L 757.46081 126.971585 
z
" style="fill:#0000ff;stroke:#ffffff;stroke-linejoin:miter;"/>
   </g>
   <g id="patch_31">
    <path clip-path="url(#p199d7fc41d)" d="M 827.947609 82492.736266 
L 839.225496 82492.736266 
L 839.225496 106.004705 
L 827.947609 106.004705 
z
" style="fill:#0000ff;stroke:#ffffff;stroke-linejoin:miter;"/>
   </g>
   <g id="patch_32">
    <path clip-path="url(#p199d7fc41d)" d="M 898.434407 82492.736266 
L 909.712295 82492.736266 
L 909.712295 75.166372 
L 898.434407 75.166372 
z
" style="fill:#0000ff;stroke:#ffffff;stroke-linejoin:miter;"/>
   </g>
   <g id="patch_33">
    <path clip-path="url(#p199d7fc41d)" d="M 968.921206 82492.736266 
L 980.199093 82492.736266 
L 980.199093 53.590416 
L 968.921206 53.590416 
z
" style="fill:#0000ff;stroke:#ffffff;stroke-linejoin:miter;"/>
   </g>
   <g id="patch_34">
    <path clip-path="url(#p199d7fc41d)" d="M 1039.408004 82492.736266 
L 1050.685892 82492.736266 
L 1050.685892 37.309665 
L 1039.408004 37.309665 
z
" style="fill:#0000ff;stroke:#ffffff;stroke-linejoin:miter;"/>
   </g>
   <g id="patch_35">
    <path clip-path="url(#p199d7fc41d)" d="M 1109.894803 82492.736266 
L 1121.17269 82492.736266 
L 1121.17269 180.417667 
L 1109.894803 180.417667 
z
" style="fill:#0000ff;stroke:#ffffff;stroke-linejoin:miter;"/>
   </g>
   <g id="patch_36">
    <path clip-path="url(#p199d7fc41d)" d="M 1180.381601 82492.736266 
L 1191.659489 82492.736266 
L 1191.659489 136.77661 
L 1180.381601 136.77661 
z
" style="fill:#0000ff;stroke:#ffffff;stroke-linejoin:miter;"/>
   </g>
   <g id="patch_37">
    <path clip-path="url(#p199d7fc41d)" d="M 1250.8684 82492.736266 
L 1262.146287 82492.736266 
L 1262.146287 98.762058 
L 1250.8684 98.762058 
z
" style="fill:#0000ff;stroke:#ffffff;stroke-linejoin:miter;"/>
   </g>
   <g id="patch_38">
    <path clip-path="url(#p199d7fc41d)" d="M 1321.355198 82492.736266 
L 1332.633086 82492.736266 
L 1332.633086 160.176273 
L 1321.355198 160.176273 
z
" style="fill:#0000ff;stroke:#ffffff;stroke-linejoin:miter;"/>
   </g>
   <g id="patch_39">
    <path clip-path="url(#p199d7fc41d)" d="M 134.357511 82492.736266 
L 145.635399 82492.736266 
L 145.635399 257.130183 
L 134.357511 257.130183 
z
" style="fill:#bfbf00;stroke:#ffffff;stroke-linejoin:miter;"/>
   </g>
   <g id="patch_40">
    <path clip-path="url(#p199d7fc41d)" d="M 204.84431 82492.736266 
L 216.122197 82492.736266 
L 216.122197 258.506122 
L 204.84431 258.506122 
z
" style="fill:#bfbf00;stroke:#ffffff;stroke-linejoin:miter;"/>
   </g>
   <g id="patch_41">
    <path clip-path="url(#p199d7fc41d)" d="M 275.331108 82492.736266 
L 286.608996 82492.736266 
L 286.608996 199.18789 
L 275.331108 199.18789 
z
" style="fill:#bfbf00;stroke:#ffffff;stroke-linejoin:miter;"/>
   </g>
   <g id="patch_42">
    <path clip-path="url(#p199d7fc41d)" d="M 345.817907 82492.736266 
L 357.095794 82492.736266 
L 357.095794 190.359238 
L 345.817907 190.359238 
z
" style="fill:#bfbf00;stroke:#ffffff;stroke-linejoin:miter;"/>
   </g>
   <g id="patch_43">
    <path clip-path="url(#p199d7fc41d)" d="M 416.304705 82492.736266 
L 427.582593 82492.736266 
L 427.582593 172.640622 
L 416.304705 172.640622 
z
" style="fill:#bfbf00;stroke:#ffffff;stroke-linejoin:miter;"/>
   </g>
   <g id="patch_44">
    <path clip-path="url(#p199d7fc41d)" d="M 486.791504 82492.736266 
L 498.069391 82492.736266 
L 498.069391 157.04771 
L 486.791504 157.04771 
z
" style="fill:#bfbf00;stroke:#ffffff;stroke-linejoin:miter;"/>
   </g>
   <g id="patch_45">
    <path clip-path="url(#p199d7fc41d)" d="M 557.278302 82492.736266 
L 568.55619 82492.736266 
L 568.55619 151.756471 
L 557.278302 151.756471 
z
" style="fill:#bfbf00;stroke:#ffffff;stroke-linejoin:miter;"/>
   </g>
   <g id="patch_46">
    <path clip-path="url(#p199d7fc41d)" d="M 627.765101 82492.736266 
L 639.042988 82492.736266 
L 639.042988 132.881652 
L 627.765101 132.881652 
z
" style="fill:#bfbf00;stroke:#ffffff;stroke-linejoin:miter;"/>
   </g>
   <g id="patch_47">
    <path clip-path="url(#p199d7fc41d)" d="M 698.251899 82492.736266 
L 709.529787 82492.736266 
L 709.529787 178.64423 
L 698.251899 178.64423 
z
" style="fill:#bfbf00;stroke:#ffffff;stroke-linejoin:miter;"/>
   </g>
   <g id="patch_48">
    <path clip-path="url(#p199d7fc41d)" d="M 768.738698 82492.736266 
L 780.016586 82492.736266 
L 780.016586 166.637661 
L 768.738698 166.637661 
z
" style="fill:#bfbf00;stroke:#ffffff;stroke-linejoin:miter;"/>
   </g>
   <g id="patch_49">
    <path clip-path="url(#p199d7fc41d)" d="M 839.225496 82492.736266 
L 850.503384 82492.736266 
L 850.503384 156.592966 
L 839.225496 156.592966 
z
" style="fill:#bfbf00;stroke:#ffffff;stroke-linejoin:miter;"/>
   </g>
   <g id="patch_50">
    <path clip-path="url(#p199d7fc41d)" d="M 909.712295 82492.736266 
L 920.990183 82492.736266 
L 920.990183 132.091776 
L 909.712295 132.091776 
z
" style="fill:#bfbf00;stroke:#ffffff;stroke-linejoin:miter;"/>
   </g>
   <g id="patch_51">
    <path clip-path="url(#p199d7fc41d)" d="M 980.199093 82492.736266 
L 991.476981 82492.736266 
L 991.476981 116.227339 
L 980.199093 116.227339 
z
" style="fill:#bfbf00;stroke:#ffffff;stroke-linejoin:miter;"/>
   </g>
   <g id="patch_52">
    <path clip-path="url(#p199d7fc41d)" d="M 1050.685892 82492.736266 
L 1061.96378 82492.736266 
L 1061.96378 132.168077 
L 1050.685892 132.168077 
z
" style="fill:#bfbf00;stroke:#ffffff;stroke-linejoin:miter;"/>
   </g>
   <g id="patch_53">
    <path clip-path="url(#p199d7fc41d)" d="M 1121.17269 82492.736266 
L 1132.450578 82492.736266 
L 1132.450578 161.168072 
L 1121.17269 161.168072 
z
" style="fill:#bfbf00;stroke:#ffffff;stroke-linejoin:miter;"/>
   </g>
   <g id="patch_54">
    <path clip-path="url(#p199d7fc41d)" d="M 1191.659489 82492.736266 
L 1202.937377 82492.736266 
L 1202.937377 157.639416 
L 1191.659489 157.639416 
z
" style="fill:#bfbf00;stroke:#ffffff;stroke-linejoin:miter;"/>
   </g>
   <g id="patch_55">
    <path clip-path="url(#p199d7fc41d)" d="M 1262.146287 82492.736266 
L 1273.424175 82492.736266 
L 1273.424175 156.764076 
L 1262.146287 156.764076 
z
" style="fill:#bfbf00;stroke:#ffffff;stroke-linejoin:miter;"/>
   </g>
   <g id="patch_56">
    <path clip-path="url(#p199d7fc41d)" d="M 1332.633086 82492.736266 
L 1343.910974 82492.736266 
L 1343.910974 152.223902 
L 1332.633086 152.223902 
z
" style="fill:#bfbf00;stroke:#ffffff;stroke-linejoin:miter;"/>
   </g>
   <g id="patch_57">
    <path clip-path="url(#p199d7fc41d)" d="M 145.635399 82492.736266 
L 156.913287 82492.736266 
L 156.913287 269.892591 
L 145.635399 269.892591 
z
" style="fill:#008000;stroke:#ffffff;stroke-linejoin:miter;"/>
   </g>
   <g id="patch_58">
    <path clip-path="url(#p199d7fc41d)" d="M 216.122197 82492.736266 
L 227.400085 82492.736266 
L 227.400085 222.020633 
L 216.122197 222.020633 
z
" style="fill:#008000;stroke:#ffffff;stroke-linejoin:miter;"/>
   </g>
   <g id="patch_59">
    <path clip-path="url(#p199d7fc41d)" d="M 286.608996 82492.736266 
L 297.886884 82492.736266 
L 297.886884 194.579628 
L 286.608996 194.579628 
z
" style="fill:#008000;stroke:#ffffff;stroke-linejoin:miter;"/>
   </g>
   <g id="patch_60">
    <path clip-path="url(#p199d7fc41d)" d="M 357.095794 82492.736266 
L 368.373682 82492.736266 
L 368.373682 203.777251 
L 357.095794 203.777251 
z
" style="fill:#008000;stroke:#ffffff;stroke-linejoin:miter;"/>
   </g>
   <g id="patch_61">
    <path clip-path="url(#p199d7fc41d)" d="M 427.582593 82492.736266 
L 438.860481 82492.736266 
L 438.860481 182.147182 
L 427.582593 182.147182 
z
" style="fill:#008000;stroke:#ffffff;stroke-linejoin:miter;"/>
   </g>
   <g id="patch_62">
    <path clip-path="url(#p199d7fc41d)" d="M 498.069391 82492.736266 
L 509.347279 82492.736266 
L 509.347279 179.605973 
L 498.069391 179.605973 
z
" style="fill:#008000;stroke:#ffffff;stroke-linejoin:miter;"/>
   </g>
   <g id="patch_63">
    <path clip-path="url(#p199d7fc41d)" d="M 568.55619 82492.736266 
L 579.834078 82492.736266 
L 579.834078 176.556996 
L 568.55619 176.556996 
z
" style="fill:#008000;stroke:#ffffff;stroke-linejoin:miter;"/>
   </g>
   <g id="patch_64">
    <path clip-path="url(#p199d7fc41d)" d="M 639.042988 82492.736266 
L 650.320876 82492.736266 
L 650.320876 178.665395 
L 639.042988 178.665395 
z
" style="fill:#008000;stroke:#ffffff;stroke-linejoin:miter;"/>
   </g>
   <g id="patch_65">
    <path clip-path="url(#p199d7fc41d)" d="M 709.529787 82492.736266 
L 720.807675 82492.736266 
L 720.807675 154.113518 
L 709.529787 154.113518 
z
" style="fill:#008000;stroke:#ffffff;stroke-linejoin:miter;"/>
   </g>
   <g id="patch_66">
    <path clip-path="url(#p199d7fc41d)" d="M 780.016586 82492.736266 
L 791.294473 82492.736266 
L 791.294473 185.92076 
L 780.016586 185.92076 
z
" style="fill:#008000;stroke:#ffffff;stroke-linejoin:miter;"/>
   </g>
   <g id="patch_67">
    <path clip-path="url(#p199d7fc41d)" d="M 850.503384 82492.736266 
L 861.781272 82492.736266 
L 861.781272 160.640553 
L 850.503384 160.640553 
z
" style="fill:#008000;stroke:#ffffff;stroke-linejoin:miter;"/>
   </g>
   <g id="patch_68">
    <path clip-path="url(#p199d7fc41d)" d="M 920.990183 82492.736266 
L 932.26807 82492.736266 
L 932.26807 160.276624 
L 920.990183 160.276624 
z
" style="fill:#008000;stroke:#ffffff;stroke-linejoin:miter;"/>
   </g>
   <g id="patch_69">
    <path clip-path="url(#p199d7fc41d)" d="M 991.476981 82492.736266 
L 1002.754869 82492.736266 
L 1002.754869 161.438753 
L 991.476981 161.438753 
z
" style="fill:#008000;stroke:#ffffff;stroke-linejoin:miter;"/>
   </g>
   <g id="patch_70">
    <path clip-path="url(#p199d7fc41d)" d="M 1061.96378 82492.736266 
L 1073.241667 82492.736266 
L 1073.241667 156.703835 
L 1061.96378 156.703835 
z
" style="fill:#008000;stroke:#ffffff;stroke-linejoin:miter;"/>
   </g>
   <g id="patch_71">
    <path clip-path="url(#p199d7fc41d)" d="M 1132.450578 82492.736266 
L 1143.728466 82492.736266 
L 1143.728466 165.758683 
L 1132.450578 165.758683 
z
" style="fill:#008000;stroke:#ffffff;stroke-linejoin:miter;"/>
   </g>
   <g id="patch_72">
    <path clip-path="url(#p199d7fc41d)" d="M 1202.937377 82492.736266 
L 1214.215264 82492.736266 
L 1214.215264 168.408995 
L 1202.937377 168.408995 
z
" style="fill:#008000;stroke:#ffffff;stroke-linejoin:miter;"/>
   </g>
   <g id="patch_73">
    <path clip-path="url(#p199d7fc41d)" d="M 1273.424175 82492.736266 
L 1284.702063 82492.736266 
L 1284.702063 173.06128 
L 1273.424175 173.06128 
z
" style="fill:#008000;stroke:#ffffff;stroke-linejoin:miter;"/>
   </g>
   <g id="patch_74">
    <path clip-path="url(#p199d7fc41d)" d="M 1343.910974 82492.736266 
L 1355.188862 82492.736266 
L 1355.188862 183.903757 
L 1343.910974 183.903757 
z
" style="fill:#008000;stroke:#ffffff;stroke-linejoin:miter;"/>
   </g>
   <g id="patch_75">
    <path clip-path="url(#p199d7fc41d)" d="M 156.913287 82492.736266 
L 168.191174 82492.736266 
L 168.191174 251.853309 
L 156.913287 251.853309 
z
" style="fill:#00bfbf;stroke:#ffffff;stroke-linejoin:miter;"/>
   </g>
   <g id="patch_76">
    <path clip-path="url(#p199d7fc41d)" d="M 227.400085 82492.736266 
L 238.677973 82492.736266 
L 238.677973 204.76403 
L 227.400085 204.76403 
z
" style="fill:#00bfbf;stroke:#ffffff;stroke-linejoin:miter;"/>
   </g>
   <g id="patch_77">
    <path clip-path="url(#p199d7fc41d)" d="M 297.886884 82492.736266 
L 309.164771 82492.736266 
L 309.164771 202.464846 
L 297.886884 202.464846 
z
" style="fill:#00bfbf;stroke:#ffffff;stroke-linejoin:miter;"/>
   </g>
   <g id="patch_78">
    <path clip-path="url(#p199d7fc41d)" d="M 368.373682 82492.736266 
L 379.65157 82492.736266 
L 379.65157 213.633034 
L 368.373682 213.633034 
z
" style="fill:#00bfbf;stroke:#ffffff;stroke-linejoin:miter;"/>
   </g>
   <g id="patch_79">
    <path clip-path="url(#p199d7fc41d)" d="M 438.860481 82492.736266 
L 450.138368 82492.736266 
L 450.138368 225.375912 
L 438.860481 225.375912 
z
" style="fill:#00bfbf;stroke:#ffffff;stroke-linejoin:miter;"/>
   </g>
   <g id="patch_80">
    <path clip-path="url(#p199d7fc41d)" d="M 509.347279 82492.736266 
L 520.625167 82492.736266 
L 520.625167 200.60349 
L 509.347279 200.60349 
z
" style="fill:#00bfbf;stroke:#ffffff;stroke-linejoin:miter;"/>
   </g>
   <g id="patch_81">
    <path clip-path="url(#p199d7fc41d)" d="M 579.834078 82492.736266 
L 591.111965 82492.736266 
L 591.111965 201.006674 
L 579.834078 201.006674 
z
" style="fill:#00bfbf;stroke:#ffffff;stroke-linejoin:miter;"/>
   </g>
   <g id="patch_82">
    <path clip-path="url(#p199d7fc41d)" d="M 650.320876 82492.736266 
L 661.598764 82492.736266 
L 661.598764 207.931343 
L 650.320876 207.931343 
z
" style="fill:#00bfbf;stroke:#ffffff;stroke-linejoin:miter;"/>
   </g>
   <g id="patch_83">
    <path clip-path="url(#p199d7fc41d)" d="M 720.807675 82492.736266 
L 732.085563 82492.736266 
L 732.085563 202.871414 
L 720.807675 202.871414 
z
" style="fill:#00bfbf;stroke:#ffffff;stroke-linejoin:miter;"/>
   </g>
   <g id="patch_84">
    <path clip-path="url(#p199d7fc41d)" d="M 791.294473 82492.736266 
L 802.572361 82492.736266 
L 802.572361 204.806179 
L 791.294473 204.806179 
z
" style="fill:#00bfbf;stroke:#ffffff;stroke-linejoin:miter;"/>
   </g>
   <g id="patch_85">
    <path clip-path="url(#p199d7fc41d)" d="M 861.781272 82492.736266 
L 873.05916 82492.736266 
L 873.05916 213.661222 
L 861.781272 213.661222 
z
" style="fill:#00bfbf;stroke:#ffffff;stroke-linejoin:miter;"/>
   </g>
   <g id="patch_86">
    <path clip-path="url(#p199d7fc41d)" d="M 932.26807 82492.736266 
L 943.545958 82492.736266 
L 943.545958 209.933492 
L 932.26807 209.933492 
z
" style="fill:#00bfbf;stroke:#ffffff;stroke-linejoin:miter;"/>
   </g>
   <g id="patch_87">
    <path clip-path="url(#p199d7fc41d)" d="M 1002.754869 82492.736266 
L 1014.032757 82492.736266 
L 1014.032757 211.681618 
L 1002.754869 211.681618 
z
" style="fill:#00bfbf;stroke:#ffffff;stroke-linejoin:miter;"/>
   </g>
   <g id="patch_88">
    <path clip-path="url(#p199d7fc41d)" d="M 1073.241667 82492.736266 
L 1084.519555 82492.736266 
L 1084.519555 216.243145 
L 1073.241667 216.243145 
z
" style="fill:#00bfbf;stroke:#ffffff;stroke-linejoin:miter;"/>
   </g>
   <g id="patch_89">
    <path clip-path="url(#p199d7fc41d)" d="M 1143.728466 82492.736266 
L 1155.006354 82492.736266 
L 1155.006354 232.30596 
L 1143.728466 232.30596 
z
" style="fill:#00bfbf;stroke:#ffffff;stroke-linejoin:miter;"/>
   </g>
   <g id="patch_90">
    <path clip-path="url(#p199d7fc41d)" d="M 1214.215264 82492.736266 
L 1225.493152 82492.736266 
L 1225.493152 227.945098 
L 1214.215264 227.945098 
z
" style="fill:#00bfbf;stroke:#ffffff;stroke-linejoin:miter;"/>
   </g>
   <g id="patch_91">
    <path clip-path="url(#p199d7fc41d)" d="M 1284.702063 82492.736266 
L 1295.979951 82492.736266 
L 1295.979951 233.605927 
L 1284.702063 233.605927 
z
" style="fill:#00bfbf;stroke:#ffffff;stroke-linejoin:miter;"/>
   </g>
   <g id="patch_92">
    <path clip-path="url(#p199d7fc41d)" d="M 1355.188862 82492.736266 
L 1366.466749 82492.736266 
L 1366.466749 233.091435 
L 1355.188862 233.091435 
z
" style="fill:#00bfbf;stroke:#ffffff;stroke-linejoin:miter;"/>
   </g>
   <g id="matplotlib.axis_1">
    <g id="xtick_1">
     <g id="line2d_1">
      <defs>
       <path d="M 0 0 
L 0 3.5 
" id="mabf6012bad" style="stroke:#000000;stroke-width:0.8;"/>
      </defs>
      <g>
       <use style="stroke:#000000;stroke-width:0.8;" x="139.996455" xlink:href="#mabf6012bad" y="282.230334"/>
      </g>
     </g>
     <g id="text_1">
      <!-- $2048^2 \times 128$ -->
      <defs>
       <path d="M 19.1875 8.296875 
L 53.609375 8.296875 
L 53.609375 0 
L 7.328125 0 
L 7.328125 8.296875 
Q 12.9375 14.109375 22.625 23.890625 
Q 32.328125 33.6875 34.8125 36.53125 
Q 39.546875 41.84375 41.421875 45.53125 
Q 43.3125 49.21875 43.3125 52.78125 
Q 43.3125 58.59375 39.234375 62.25 
Q 35.15625 65.921875 28.609375 65.921875 
Q 23.96875 65.921875 18.8125 64.3125 
Q 13.671875 62.703125 7.8125 59.421875 
L 7.8125 69.390625 
Q 13.765625 71.78125 18.9375 73 
Q 24.125 74.21875 28.421875 74.21875 
Q 39.75 74.21875 46.484375 68.546875 
Q 53.21875 62.890625 53.21875 53.421875 
Q 53.21875 48.921875 51.53125 44.890625 
Q 49.859375 40.875 45.40625 35.40625 
Q 44.1875 33.984375 37.640625 27.21875 
Q 31.109375 20.453125 19.1875 8.296875 
z
" id="DejaVuSans-50"/>
       <path d="M 31.78125 66.40625 
Q 24.171875 66.40625 20.328125 58.90625 
Q 16.5 51.421875 16.5 36.375 
Q 16.5 21.390625 20.328125 13.890625 
Q 24.171875 6.390625 31.78125 6.390625 
Q 39.453125 6.390625 43.28125 13.890625 
Q 47.125 21.390625 47.125 36.375 
Q 47.125 51.421875 43.28125 58.90625 
Q 39.453125 66.40625 31.78125 66.40625 
z
M 31.78125 74.21875 
Q 44.046875 74.21875 50.515625 64.515625 
Q 56.984375 54.828125 56.984375 36.375 
Q 56.984375 17.96875 50.515625 8.265625 
Q 44.046875 -1.421875 31.78125 -1.421875 
Q 19.53125 -1.421875 13.0625 8.265625 
Q 6.59375 17.96875 6.59375 36.375 
Q 6.59375 54.828125 13.0625 64.515625 
Q 19.53125 74.21875 31.78125 74.21875 
z
" id="DejaVuSans-48"/>
       <path d="M 37.796875 64.3125 
L 12.890625 25.390625 
L 37.796875 25.390625 
z
M 35.203125 72.90625 
L 47.609375 72.90625 
L 47.609375 25.390625 
L 58.015625 25.390625 
L 58.015625 17.1875 
L 47.609375 17.1875 
L 47.609375 0 
L 37.796875 0 
L 37.796875 17.1875 
L 4.890625 17.1875 
L 4.890625 26.703125 
z
" id="DejaVuSans-52"/>
       <path d="M 31.78125 34.625 
Q 24.75 34.625 20.71875 30.859375 
Q 16.703125 27.09375 16.703125 20.515625 
Q 16.703125 13.921875 20.71875 10.15625 
Q 24.75 6.390625 31.78125 6.390625 
Q 38.8125 6.390625 42.859375 10.171875 
Q 46.921875 13.96875 46.921875 20.515625 
Q 46.921875 27.09375 42.890625 30.859375 
Q 38.875 34.625 31.78125 34.625 
z
M 21.921875 38.8125 
Q 15.578125 40.375 12.03125 44.71875 
Q 8.5 49.078125 8.5 55.328125 
Q 8.5 64.0625 14.71875 69.140625 
Q 20.953125 74.21875 31.78125 74.21875 
Q 42.671875 74.21875 48.875 69.140625 
Q 55.078125 64.0625 55.078125 55.328125 
Q 55.078125 49.078125 51.53125 44.71875 
Q 48 40.375 41.703125 38.8125 
Q 48.828125 37.15625 52.796875 32.3125 
Q 56.78125 27.484375 56.78125 20.515625 
Q 56.78125 9.90625 50.3125 4.234375 
Q 43.84375 -1.421875 31.78125 -1.421875 
Q 19.734375 -1.421875 13.25 4.234375 
Q 6.78125 9.90625 6.78125 20.515625 
Q 6.78125 27.484375 10.78125 32.3125 
Q 14.796875 37.15625 21.921875 38.8125 
z
M 18.3125 54.390625 
Q 18.3125 48.734375 21.84375 45.5625 
Q 25.390625 42.390625 31.78125 42.390625 
Q 38.140625 42.390625 41.71875 45.5625 
Q 45.3125 48.734375 45.3125 54.390625 
Q 45.3125 60.0625 41.71875 63.234375 
Q 38.140625 66.40625 31.78125 66.40625 
Q 25.390625 66.40625 21.84375 63.234375 
Q 18.3125 60.0625 18.3125 54.390625 
z
" id="DejaVuSans-56"/>
       <path d="M 70.125 53.71875 
L 47.796875 31.296875 
L 70.125 8.984375 
L 64.3125 3.078125 
L 41.890625 25.484375 
L 19.484375 3.078125 
L 13.71875 8.984375 
L 35.984375 31.296875 
L 13.71875 53.71875 
L 19.484375 59.625 
L 41.890625 37.203125 
L 64.3125 59.625 
z
" id="DejaVuSans-215"/>
       <path d="M 12.40625 8.296875 
L 28.515625 8.296875 
L 28.515625 63.921875 
L 10.984375 60.40625 
L 10.984375 69.390625 
L 28.421875 72.90625 
L 38.28125 72.90625 
L 38.28125 8.296875 
L 54.390625 8.296875 
L 54.390625 0 
L 12.40625 0 
z
" id="DejaVuSans-49"/>
      </defs>
      <g transform="translate(114.659259 326.660774)rotate(-30)scale(0.1 -0.1)">
       <use transform="translate(0 0.765625)" xlink:href="#DejaVuSans-50"/>
       <use transform="translate(63.623047 0.765625)" xlink:href="#DejaVuSans-48"/>
       <use transform="translate(127.246094 0.765625)" xlink:href="#DejaVuSans-52"/>
       <use transform="translate(190.869141 0.765625)" xlink:href="#DejaVuSans-56"/>
       <use transform="translate(255.449219 39.046875)scale(0.7)" xlink:href="#DejaVuSans-50"/>
       <use transform="translate(322.202148 0.765625)" xlink:href="#DejaVuSans-215"/>
       <use transform="translate(425.473633 0.765625)" xlink:href="#DejaVuSans-49"/>
       <use transform="translate(489.09668 0.765625)" xlink:href="#DejaVuSans-50"/>
       <use transform="translate(552.719727 0.765625)" xlink:href="#DejaVuSans-56"/>
      </g>
     </g>
    </g>
    <g id="xtick_2">
     <g id="line2d_2">
      <g>
       <use style="stroke:#000000;stroke-width:0.8;" x="210.483253" xlink:href="#mabf6012bad" y="282.230334"/>
      </g>
     </g>
     <g id="text_2">
      <!-- $2048^2 \times 256$ -->
      <defs>
       <path d="M 10.796875 72.90625 
L 49.515625 72.90625 
L 49.515625 64.59375 
L 19.828125 64.59375 
L 19.828125 46.734375 
Q 21.96875 47.46875 24.109375 47.828125 
Q 26.265625 48.1875 28.421875 48.1875 
Q 40.625 48.1875 47.75 41.5 
Q 54.890625 34.8125 54.890625 23.390625 
Q 54.890625 11.625 47.5625 5.09375 
Q 40.234375 -1.421875 26.90625 -1.421875 
Q 22.3125 -1.421875 17.546875 -0.640625 
Q 12.796875 0.140625 7.71875 1.703125 
L 7.71875 11.625 
Q 12.109375 9.234375 16.796875 8.0625 
Q 21.484375 6.890625 26.703125 6.890625 
Q 35.15625 6.890625 40.078125 11.328125 
Q 45.015625 15.765625 45.015625 23.390625 
Q 45.015625 31 40.078125 35.4375 
Q 35.15625 39.890625 26.703125 39.890625 
Q 22.75 39.890625 18.8125 39.015625 
Q 14.890625 38.140625 10.796875 36.28125 
z
" id="DejaVuSans-53"/>
       <path d="M 33.015625 40.375 
Q 26.375 40.375 22.484375 35.828125 
Q 18.609375 31.296875 18.609375 23.390625 
Q 18.609375 15.53125 22.484375 10.953125 
Q 26.375 6.390625 33.015625 6.390625 
Q 39.65625 6.390625 43.53125 10.953125 
Q 47.40625 15.53125 47.40625 23.390625 
Q 47.40625 31.296875 43.53125 35.828125 
Q 39.65625 40.375 33.015625 40.375 
z
M 52.59375 71.296875 
L 52.59375 62.3125 
Q 48.875 64.0625 45.09375 64.984375 
Q 41.3125 65.921875 37.59375 65.921875 
Q 27.828125 65.921875 22.671875 59.328125 
Q 17.53125 52.734375 16.796875 39.40625 
Q 19.671875 43.65625 24.015625 45.921875 
Q 28.375 48.1875 33.59375 48.1875 
Q 44.578125 48.1875 50.953125 41.515625 
Q 57.328125 34.859375 57.328125 23.390625 
Q 57.328125 12.15625 50.6875 5.359375 
Q 44.046875 -1.421875 33.015625 -1.421875 
Q 20.359375 -1.421875 13.671875 8.265625 
Q 6.984375 17.96875 6.984375 36.375 
Q 6.984375 53.65625 15.1875 63.9375 
Q 23.390625 74.21875 37.203125 74.21875 
Q 40.921875 74.21875 44.703125 73.484375 
Q 48.484375 72.75 52.59375 71.296875 
z
" id="DejaVuSans-54"/>
      </defs>
      <g transform="translate(185.146057 326.660774)rotate(-30)scale(0.1 -0.1)">
       <use transform="translate(0 0.765625)" xlink:href="#DejaVuSans-50"/>
       <use transform="translate(63.623047 0.765625)" xlink:href="#DejaVuSans-48"/>
       <use transform="translate(127.246094 0.765625)" xlink:href="#DejaVuSans-52"/>
       <use transform="translate(190.869141 0.765625)" xlink:href="#DejaVuSans-56"/>
       <use transform="translate(255.449219 39.046875)scale(0.7)" xlink:href="#DejaVuSans-50"/>
       <use transform="translate(322.202148 0.765625)" xlink:href="#DejaVuSans-215"/>
       <use transform="translate(425.473633 0.765625)" xlink:href="#DejaVuSans-50"/>
       <use transform="translate(489.09668 0.765625)" xlink:href="#DejaVuSans-53"/>
       <use transform="translate(552.719727 0.765625)" xlink:href="#DejaVuSans-54"/>
      </g>
     </g>
    </g>
    <g id="xtick_3">
     <g id="line2d_3">
      <g>
       <use style="stroke:#000000;stroke-width:0.8;" x="280.970052" xlink:href="#mabf6012bad" y="282.230334"/>
      </g>
     </g>
     <g id="text_3">
      <!-- $2048^2 \times 512$ -->
      <g transform="translate(255.632856 326.660774)rotate(-30)scale(0.1 -0.1)">
       <use transform="translate(0 0.765625)" xlink:href="#DejaVuSans-50"/>
       <use transform="translate(63.623047 0.765625)" xlink:href="#DejaVuSans-48"/>
       <use transform="translate(127.246094 0.765625)" xlink:href="#DejaVuSans-52"/>
       <use transform="translate(190.869141 0.765625)" xlink:href="#DejaVuSans-56"/>
       <use transform="translate(255.449219 39.046875)scale(0.7)" xlink:href="#DejaVuSans-50"/>
       <use transform="translate(322.202148 0.765625)" xlink:href="#DejaVuSans-215"/>
       <use transform="translate(425.473633 0.765625)" xlink:href="#DejaVuSans-53"/>
       <use transform="translate(489.09668 0.765625)" xlink:href="#DejaVuSans-49"/>
       <use transform="translate(552.719727 0.765625)" xlink:href="#DejaVuSans-50"/>
      </g>
     </g>
    </g>
    <g id="xtick_4">
     <g id="line2d_4">
      <g>
       <use style="stroke:#000000;stroke-width:0.8;" x="351.45685" xlink:href="#mabf6012bad" y="282.230334"/>
      </g>
     </g>
     <g id="text_4">
      <!-- $2048^2 \times 1024$ -->
      <g transform="translate(323.391674 329.810774)rotate(-30)scale(0.1 -0.1)">
       <use transform="translate(0 0.765625)" xlink:href="#DejaVuSans-50"/>
       <use transform="translate(63.623047 0.765625)" xlink:href="#DejaVuSans-48"/>
       <use transform="translate(127.246094 0.765625)" xlink:href="#DejaVuSans-52"/>
       <use transform="translate(190.869141 0.765625)" xlink:href="#DejaVuSans-56"/>
       <use transform="translate(255.449219 39.046875)scale(0.7)" xlink:href="#DejaVuSans-50"/>
       <use transform="translate(322.202148 0.765625)" xlink:href="#DejaVuSans-215"/>
       <use transform="translate(425.473633 0.765625)" xlink:href="#DejaVuSans-49"/>
       <use transform="translate(489.09668 0.765625)" xlink:href="#DejaVuSans-48"/>
       <use transform="translate(552.719727 0.765625)" xlink:href="#DejaVuSans-50"/>
       <use transform="translate(616.342773 0.765625)" xlink:href="#DejaVuSans-52"/>
      </g>
     </g>
    </g>
    <g id="xtick_5">
     <g id="line2d_5">
      <g>
       <use style="stroke:#000000;stroke-width:0.8;" x="421.943649" xlink:href="#mabf6012bad" y="282.230334"/>
      </g>
     </g>
     <g id="text_5">
      <!-- $2048^2 \times 2048$ -->
      <g transform="translate(393.878473 329.810774)rotate(-30)scale(0.1 -0.1)">
       <use transform="translate(0 0.765625)" xlink:href="#DejaVuSans-50"/>
       <use transform="translate(63.623047 0.765625)" xlink:href="#DejaVuSans-48"/>
       <use transform="translate(127.246094 0.765625)" xlink:href="#DejaVuSans-52"/>
       <use transform="translate(190.869141 0.765625)" xlink:href="#DejaVuSans-56"/>
       <use transform="translate(255.449219 39.046875)scale(0.7)" xlink:href="#DejaVuSans-50"/>
       <use transform="translate(322.202148 0.765625)" xlink:href="#DejaVuSans-215"/>
       <use transform="translate(425.473633 0.765625)" xlink:href="#DejaVuSans-50"/>
       <use transform="translate(489.09668 0.765625)" xlink:href="#DejaVuSans-48"/>
       <use transform="translate(552.719727 0.765625)" xlink:href="#DejaVuSans-52"/>
       <use transform="translate(616.342773 0.765625)" xlink:href="#DejaVuSans-56"/>
      </g>
     </g>
    </g>
    <g id="xtick_6">
     <g id="line2d_6">
      <g>
       <use style="stroke:#000000;stroke-width:0.8;" x="492.430448" xlink:href="#mabf6012bad" y="282.230334"/>
      </g>
     </g>
     <g id="text_6">
      <!-- $2048^2 \times 4096$ -->
      <defs>
       <path d="M 10.984375 1.515625 
L 10.984375 10.5 
Q 14.703125 8.734375 18.5 7.8125 
Q 22.3125 6.890625 25.984375 6.890625 
Q 35.75 6.890625 40.890625 13.453125 
Q 46.046875 20.015625 46.78125 33.40625 
Q 43.953125 29.203125 39.59375 26.953125 
Q 35.25 24.703125 29.984375 24.703125 
Q 19.046875 24.703125 12.671875 31.3125 
Q 6.296875 37.9375 6.296875 49.421875 
Q 6.296875 60.640625 12.9375 67.421875 
Q 19.578125 74.21875 30.609375 74.21875 
Q 43.265625 74.21875 49.921875 64.515625 
Q 56.59375 54.828125 56.59375 36.375 
Q 56.59375 19.140625 48.40625 8.859375 
Q 40.234375 -1.421875 26.421875 -1.421875 
Q 22.703125 -1.421875 18.890625 -0.6875 
Q 15.09375 0.046875 10.984375 1.515625 
z
M 30.609375 32.421875 
Q 37.25 32.421875 41.125 36.953125 
Q 45.015625 41.5 45.015625 49.421875 
Q 45.015625 57.28125 41.125 61.84375 
Q 37.25 66.40625 30.609375 66.40625 
Q 23.96875 66.40625 20.09375 61.84375 
Q 16.21875 57.28125 16.21875 49.421875 
Q 16.21875 41.5 20.09375 36.953125 
Q 23.96875 32.421875 30.609375 32.421875 
z
" id="DejaVuSans-57"/>
      </defs>
      <g transform="translate(464.365271 329.810774)rotate(-30)scale(0.1 -0.1)">
       <use transform="translate(0 0.765625)" xlink:href="#DejaVuSans-50"/>
       <use transform="translate(63.623047 0.765625)" xlink:href="#DejaVuSans-48"/>
       <use transform="translate(127.246094 0.765625)" xlink:href="#DejaVuSans-52"/>
       <use transform="translate(190.869141 0.765625)" xlink:href="#DejaVuSans-56"/>
       <use transform="translate(255.449219 39.046875)scale(0.7)" xlink:href="#DejaVuSans-50"/>
       <use transform="translate(322.202148 0.765625)" xlink:href="#DejaVuSans-215"/>
       <use transform="translate(425.473633 0.765625)" xlink:href="#DejaVuSans-52"/>
       <use transform="translate(489.09668 0.765625)" xlink:href="#DejaVuSans-48"/>
       <use transform="translate(552.719727 0.765625)" xlink:href="#DejaVuSans-57"/>
       <use transform="translate(616.342773 0.765625)" xlink:href="#DejaVuSans-54"/>
      </g>
     </g>
    </g>
    <g id="xtick_7">
     <g id="line2d_7">
      <g>
       <use style="stroke:#000000;stroke-width:0.8;" x="562.917246" xlink:href="#mabf6012bad" y="282.230334"/>
      </g>
     </g>
     <g id="text_7">
      <!-- $2048^2 \times 8192$ -->
      <g transform="translate(534.85207 329.810774)rotate(-30)scale(0.1 -0.1)">
       <use transform="translate(0 0.765625)" xlink:href="#DejaVuSans-50"/>
       <use transform="translate(63.623047 0.765625)" xlink:href="#DejaVuSans-48"/>
       <use transform="translate(127.246094 0.765625)" xlink:href="#DejaVuSans-52"/>
       <use transform="translate(190.869141 0.765625)" xlink:href="#DejaVuSans-56"/>
       <use transform="translate(255.449219 39.046875)scale(0.7)" xlink:href="#DejaVuSans-50"/>
       <use transform="translate(322.202148 0.765625)" xlink:href="#DejaVuSans-215"/>
       <use transform="translate(425.473633 0.765625)" xlink:href="#DejaVuSans-56"/>
       <use transform="translate(489.09668 0.765625)" xlink:href="#DejaVuSans-49"/>
       <use transform="translate(552.719727 0.765625)" xlink:href="#DejaVuSans-57"/>
       <use transform="translate(616.327148 0.765625)" xlink:href="#DejaVuSans-50"/>
      </g>
     </g>
    </g>
    <g id="xtick_8">
     <g id="line2d_8">
      <g>
       <use style="stroke:#000000;stroke-width:0.8;" x="633.404045" xlink:href="#mabf6012bad" y="282.230334"/>
      </g>
     </g>
     <g id="text_8">
      <!-- $2048^2 \times 12288$ -->
      <g transform="translate(602.567587 333.010774)rotate(-30)scale(0.1 -0.1)">
       <use transform="translate(0 0.765625)" xlink:href="#DejaVuSans-50"/>
       <use transform="translate(63.623047 0.765625)" xlink:href="#DejaVuSans-48"/>
       <use transform="translate(127.246094 0.765625)" xlink:href="#DejaVuSans-52"/>
       <use transform="translate(190.869141 0.765625)" xlink:href="#DejaVuSans-56"/>
       <use transform="translate(255.449219 39.046875)scale(0.7)" xlink:href="#DejaVuSans-50"/>
       <use transform="translate(322.202148 0.765625)" xlink:href="#DejaVuSans-215"/>
       <use transform="translate(425.473633 0.765625)" xlink:href="#DejaVuSans-49"/>
       <use transform="translate(489.09668 0.765625)" xlink:href="#DejaVuSans-50"/>
       <use transform="translate(552.719727 0.765625)" xlink:href="#DejaVuSans-50"/>
       <use transform="translate(616.342773 0.765625)" xlink:href="#DejaVuSans-56"/>
       <use transform="translate(679.96582 0.765625)" xlink:href="#DejaVuSans-56"/>
      </g>
     </g>
    </g>
    <g id="xtick_9">
     <g id="line2d_9">
      <g>
       <use style="stroke:#000000;stroke-width:0.8;" x="703.890843" xlink:href="#mabf6012bad" y="282.230334"/>
      </g>
     </g>
     <g id="text_9">
      <!-- $4096^2 \times 128$ -->
      <g transform="translate(678.553647 326.660774)rotate(-30)scale(0.1 -0.1)">
       <use transform="translate(0 0.765625)" xlink:href="#DejaVuSans-52"/>
       <use transform="translate(63.623047 0.765625)" xlink:href="#DejaVuSans-48"/>
       <use transform="translate(127.246094 0.765625)" xlink:href="#DejaVuSans-57"/>
       <use transform="translate(190.869141 0.765625)" xlink:href="#DejaVuSans-54"/>
       <use transform="translate(255.449219 39.046875)scale(0.7)" xlink:href="#DejaVuSans-50"/>
       <use transform="translate(322.202148 0.765625)" xlink:href="#DejaVuSans-215"/>
       <use transform="translate(425.473633 0.765625)" xlink:href="#DejaVuSans-49"/>
       <use transform="translate(489.09668 0.765625)" xlink:href="#DejaVuSans-50"/>
       <use transform="translate(552.719727 0.765625)" xlink:href="#DejaVuSans-56"/>
      </g>
     </g>
    </g>
    <g id="xtick_10">
     <g id="line2d_10">
      <g>
       <use style="stroke:#000000;stroke-width:0.8;" x="774.377642" xlink:href="#mabf6012bad" y="282.230334"/>
      </g>
     </g>
     <g id="text_10">
      <!-- $4096^2 \times 256$ -->
      <g transform="translate(749.040445 326.660774)rotate(-30)scale(0.1 -0.1)">
       <use transform="translate(0 0.765625)" xlink:href="#DejaVuSans-52"/>
       <use transform="translate(63.623047 0.765625)" xlink:href="#DejaVuSans-48"/>
       <use transform="translate(127.246094 0.765625)" xlink:href="#DejaVuSans-57"/>
       <use transform="translate(190.869141 0.765625)" xlink:href="#DejaVuSans-54"/>
       <use transform="translate(255.449219 39.046875)scale(0.7)" xlink:href="#DejaVuSans-50"/>
       <use transform="translate(322.202148 0.765625)" xlink:href="#DejaVuSans-215"/>
       <use transform="translate(425.473633 0.765625)" xlink:href="#DejaVuSans-50"/>
       <use transform="translate(489.09668 0.765625)" xlink:href="#DejaVuSans-53"/>
       <use transform="translate(552.719727 0.765625)" xlink:href="#DejaVuSans-54"/>
      </g>
     </g>
    </g>
    <g id="xtick_11">
     <g id="line2d_11">
      <g>
       <use style="stroke:#000000;stroke-width:0.8;" x="844.86444" xlink:href="#mabf6012bad" y="282.230334"/>
      </g>
     </g>
     <g id="text_11">
      <!-- $4096^2 \times 512$ -->
      <g transform="translate(819.527244 326.660774)rotate(-30)scale(0.1 -0.1)">
       <use transform="translate(0 0.765625)" xlink:href="#DejaVuSans-52"/>
       <use transform="translate(63.623047 0.765625)" xlink:href="#DejaVuSans-48"/>
       <use transform="translate(127.246094 0.765625)" xlink:href="#DejaVuSans-57"/>
       <use transform="translate(190.869141 0.765625)" xlink:href="#DejaVuSans-54"/>
       <use transform="translate(255.449219 39.046875)scale(0.7)" xlink:href="#DejaVuSans-50"/>
       <use transform="translate(322.202148 0.765625)" xlink:href="#DejaVuSans-215"/>
       <use transform="translate(425.473633 0.765625)" xlink:href="#DejaVuSans-53"/>
       <use transform="translate(489.09668 0.765625)" xlink:href="#DejaVuSans-49"/>
       <use transform="translate(552.719727 0.765625)" xlink:href="#DejaVuSans-50"/>
      </g>
     </g>
    </g>
    <g id="xtick_12">
     <g id="line2d_12">
      <g>
       <use style="stroke:#000000;stroke-width:0.8;" x="915.351239" xlink:href="#mabf6012bad" y="282.230334"/>
      </g>
     </g>
     <g id="text_12">
      <!-- $4096^2 \times 1024$ -->
      <g transform="translate(887.286062 329.810774)rotate(-30)scale(0.1 -0.1)">
       <use transform="translate(0 0.765625)" xlink:href="#DejaVuSans-52"/>
       <use transform="translate(63.623047 0.765625)" xlink:href="#DejaVuSans-48"/>
       <use transform="translate(127.246094 0.765625)" xlink:href="#DejaVuSans-57"/>
       <use transform="translate(190.869141 0.765625)" xlink:href="#DejaVuSans-54"/>
       <use transform="translate(255.449219 39.046875)scale(0.7)" xlink:href="#DejaVuSans-50"/>
       <use transform="translate(322.202148 0.765625)" xlink:href="#DejaVuSans-215"/>
       <use transform="translate(425.473633 0.765625)" xlink:href="#DejaVuSans-49"/>
       <use transform="translate(489.09668 0.765625)" xlink:href="#DejaVuSans-48"/>
       <use transform="translate(552.719727 0.765625)" xlink:href="#DejaVuSans-50"/>
       <use transform="translate(616.342773 0.765625)" xlink:href="#DejaVuSans-52"/>
      </g>
     </g>
    </g>
    <g id="xtick_13">
     <g id="line2d_13">
      <g>
       <use style="stroke:#000000;stroke-width:0.8;" x="985.838037" xlink:href="#mabf6012bad" y="282.230334"/>
      </g>
     </g>
     <g id="text_13">
      <!-- $4096^2 \times 2048$ -->
      <g transform="translate(957.772861 329.810774)rotate(-30)scale(0.1 -0.1)">
       <use transform="translate(0 0.765625)" xlink:href="#DejaVuSans-52"/>
       <use transform="translate(63.623047 0.765625)" xlink:href="#DejaVuSans-48"/>
       <use transform="translate(127.246094 0.765625)" xlink:href="#DejaVuSans-57"/>
       <use transform="translate(190.869141 0.765625)" xlink:href="#DejaVuSans-54"/>
       <use transform="translate(255.449219 39.046875)scale(0.7)" xlink:href="#DejaVuSans-50"/>
       <use transform="translate(322.202148 0.765625)" xlink:href="#DejaVuSans-215"/>
       <use transform="translate(425.473633 0.765625)" xlink:href="#DejaVuSans-50"/>
       <use transform="translate(489.09668 0.765625)" xlink:href="#DejaVuSans-48"/>
       <use transform="translate(552.719727 0.765625)" xlink:href="#DejaVuSans-52"/>
       <use transform="translate(616.342773 0.765625)" xlink:href="#DejaVuSans-56"/>
      </g>
     </g>
    </g>
    <g id="xtick_14">
     <g id="line2d_14">
      <g>
       <use style="stroke:#000000;stroke-width:0.8;" x="1056.324836" xlink:href="#mabf6012bad" y="282.230334"/>
      </g>
     </g>
     <g id="text_14">
      <!-- $4096^2 \times 3072$ -->
      <defs>
       <path d="M 40.578125 39.3125 
Q 47.65625 37.796875 51.625 33 
Q 55.609375 28.21875 55.609375 21.1875 
Q 55.609375 10.40625 48.1875 4.484375 
Q 40.765625 -1.421875 27.09375 -1.421875 
Q 22.515625 -1.421875 17.65625 -0.515625 
Q 12.796875 0.390625 7.625 2.203125 
L 7.625 11.71875 
Q 11.71875 9.328125 16.59375 8.109375 
Q 21.484375 6.890625 26.8125 6.890625 
Q 36.078125 6.890625 40.9375 10.546875 
Q 45.796875 14.203125 45.796875 21.1875 
Q 45.796875 27.640625 41.28125 31.265625 
Q 36.765625 34.90625 28.71875 34.90625 
L 20.21875 34.90625 
L 20.21875 43.015625 
L 29.109375 43.015625 
Q 36.375 43.015625 40.234375 45.921875 
Q 44.09375 48.828125 44.09375 54.296875 
Q 44.09375 59.90625 40.109375 62.90625 
Q 36.140625 65.921875 28.71875 65.921875 
Q 24.65625 65.921875 20.015625 65.03125 
Q 15.375 64.15625 9.8125 62.3125 
L 9.8125 71.09375 
Q 15.4375 72.65625 20.34375 73.4375 
Q 25.25 74.21875 29.59375 74.21875 
Q 40.828125 74.21875 47.359375 69.109375 
Q 53.90625 64.015625 53.90625 55.328125 
Q 53.90625 49.265625 50.4375 45.09375 
Q 46.96875 40.921875 40.578125 39.3125 
z
" id="DejaVuSans-51"/>
       <path d="M 8.203125 72.90625 
L 55.078125 72.90625 
L 55.078125 68.703125 
L 28.609375 0 
L 18.3125 0 
L 43.21875 64.59375 
L 8.203125 64.59375 
z
" id="DejaVuSans-55"/>
      </defs>
      <g transform="translate(1028.25966 329.810774)rotate(-30)scale(0.1 -0.1)">
       <use transform="translate(0 0.765625)" xlink:href="#DejaVuSans-52"/>
       <use transform="translate(63.623047 0.765625)" xlink:href="#DejaVuSans-48"/>
       <use transform="translate(127.246094 0.765625)" xlink:href="#DejaVuSans-57"/>
       <use transform="translate(190.869141 0.765625)" xlink:href="#DejaVuSans-54"/>
       <use transform="translate(255.449219 39.046875)scale(0.7)" xlink:href="#DejaVuSans-50"/>
       <use transform="translate(322.202148 0.765625)" xlink:href="#DejaVuSans-215"/>
       <use transform="translate(425.473633 0.765625)" xlink:href="#DejaVuSans-51"/>
       <use transform="translate(489.09668 0.765625)" xlink:href="#DejaVuSans-48"/>
       <use transform="translate(552.719727 0.765625)" xlink:href="#DejaVuSans-55"/>
       <use transform="translate(616.342773 0.765625)" xlink:href="#DejaVuSans-50"/>
      </g>
     </g>
    </g>
    <g id="xtick_15">
     <g id="line2d_15">
      <g>
       <use style="stroke:#000000;stroke-width:0.8;" x="1126.811634" xlink:href="#mabf6012bad" y="282.230334"/>
      </g>
     </g>
     <g id="text_15">
      <!-- $8192^2 \times 128$ -->
      <g transform="translate(1101.474438 326.660774)rotate(-30)scale(0.1 -0.1)">
       <use transform="translate(0 0.765625)" xlink:href="#DejaVuSans-56"/>
       <use transform="translate(63.623047 0.765625)" xlink:href="#DejaVuSans-49"/>
       <use transform="translate(127.246094 0.765625)" xlink:href="#DejaVuSans-57"/>
       <use transform="translate(190.869141 0.765625)" xlink:href="#DejaVuSans-50"/>
       <use transform="translate(255.449219 39.046875)scale(0.7)" xlink:href="#DejaVuSans-50"/>
       <use transform="translate(322.202148 0.765625)" xlink:href="#DejaVuSans-215"/>
       <use transform="translate(425.473633 0.765625)" xlink:href="#DejaVuSans-49"/>
       <use transform="translate(489.09668 0.765625)" xlink:href="#DejaVuSans-50"/>
       <use transform="translate(552.719727 0.765625)" xlink:href="#DejaVuSans-56"/>
      </g>
     </g>
    </g>
    <g id="xtick_16">
     <g id="line2d_16">
      <g>
       <use style="stroke:#000000;stroke-width:0.8;" x="1197.298433" xlink:href="#mabf6012bad" y="282.230334"/>
      </g>
     </g>
     <g id="text_16">
      <!-- $8192^2 \times 256$ -->
      <g transform="translate(1171.961237 326.660774)rotate(-30)scale(0.1 -0.1)">
       <use transform="translate(0 0.765625)" xlink:href="#DejaVuSans-56"/>
       <use transform="translate(63.623047 0.765625)" xlink:href="#DejaVuSans-49"/>
       <use transform="translate(127.246094 0.765625)" xlink:href="#DejaVuSans-57"/>
       <use transform="translate(190.869141 0.765625)" xlink:href="#DejaVuSans-50"/>
       <use transform="translate(255.449219 39.046875)scale(0.7)" xlink:href="#DejaVuSans-50"/>
       <use transform="translate(322.202148 0.765625)" xlink:href="#DejaVuSans-215"/>
       <use transform="translate(425.473633 0.765625)" xlink:href="#DejaVuSans-50"/>
       <use transform="translate(489.09668 0.765625)" xlink:href="#DejaVuSans-53"/>
       <use transform="translate(552.719727 0.765625)" xlink:href="#DejaVuSans-54"/>
      </g>
     </g>
    </g>
    <g id="xtick_17">
     <g id="line2d_17">
      <g>
       <use style="stroke:#000000;stroke-width:0.8;" x="1267.785231" xlink:href="#mabf6012bad" y="282.230334"/>
      </g>
     </g>
     <g id="text_17">
      <!-- $8192^2 \times 512$ -->
      <g transform="translate(1242.448035 326.660774)rotate(-30)scale(0.1 -0.1)">
       <use transform="translate(0 0.765625)" xlink:href="#DejaVuSans-56"/>
       <use transform="translate(63.623047 0.765625)" xlink:href="#DejaVuSans-49"/>
       <use transform="translate(127.246094 0.765625)" xlink:href="#DejaVuSans-57"/>
       <use transform="translate(190.869141 0.765625)" xlink:href="#DejaVuSans-50"/>
       <use transform="translate(255.449219 39.046875)scale(0.7)" xlink:href="#DejaVuSans-50"/>
       <use transform="translate(322.202148 0.765625)" xlink:href="#DejaVuSans-215"/>
       <use transform="translate(425.473633 0.765625)" xlink:href="#DejaVuSans-53"/>
       <use transform="translate(489.09668 0.765625)" xlink:href="#DejaVuSans-49"/>
       <use transform="translate(552.719727 0.765625)" xlink:href="#DejaVuSans-50"/>
      </g>
     </g>
    </g>
    <g id="xtick_18">
     <g id="line2d_18">
      <g>
       <use style="stroke:#000000;stroke-width:0.8;" x="1338.27203" xlink:href="#mabf6012bad" y="282.230334"/>
      </g>
     </g>
     <g id="text_18">
      <!-- $8192^2 \times 768$ -->
      <g transform="translate(1312.934834 326.660774)rotate(-30)scale(0.1 -0.1)">
       <use transform="translate(0 0.765625)" xlink:href="#DejaVuSans-56"/>
       <use transform="translate(63.623047 0.765625)" xlink:href="#DejaVuSans-49"/>
       <use transform="translate(127.246094 0.765625)" xlink:href="#DejaVuSans-57"/>
       <use transform="translate(190.869141 0.765625)" xlink:href="#DejaVuSans-50"/>
       <use transform="translate(255.449219 39.046875)scale(0.7)" xlink:href="#DejaVuSans-50"/>
       <use transform="translate(322.202148 0.765625)" xlink:href="#DejaVuSans-215"/>
       <use transform="translate(425.473633 0.765625)" xlink:href="#DejaVuSans-55"/>
       <use transform="translate(489.09668 0.765625)" xlink:href="#DejaVuSans-54"/>
       <use transform="translate(552.719727 0.765625)" xlink:href="#DejaVuSans-56"/>
      </g>
     </g>
    </g>
    <g id="text_19">
     <!-- Image -->
     <defs>
      <path d="M 9.8125 72.90625 
L 19.671875 72.90625 
L 19.671875 0 
L 9.8125 0 
z
" id="DejaVuSans-73"/>
      <path d="M 52 44.1875 
Q 55.375 50.25 60.0625 53.125 
Q 64.75 56 71.09375 56 
Q 79.640625 56 84.28125 50.015625 
Q 88.921875 44.046875 88.921875 33.015625 
L 88.921875 0 
L 79.890625 0 
L 79.890625 32.71875 
Q 79.890625 40.578125 77.09375 44.375 
Q 74.3125 48.1875 68.609375 48.1875 
Q 61.625 48.1875 57.5625 43.546875 
Q 53.515625 38.921875 53.515625 30.90625 
L 53.515625 0 
L 44.484375 0 
L 44.484375 32.71875 
Q 44.484375 40.625 41.703125 44.40625 
Q 38.921875 48.1875 33.109375 48.1875 
Q 26.21875 48.1875 22.15625 43.53125 
Q 18.109375 38.875 18.109375 30.90625 
L 18.109375 0 
L 9.078125 0 
L 9.078125 54.6875 
L 18.109375 54.6875 
L 18.109375 46.1875 
Q 21.1875 51.21875 25.484375 53.609375 
Q 29.78125 56 35.6875 56 
Q 41.65625 56 45.828125 52.96875 
Q 50 49.953125 52 44.1875 
z
" id="DejaVuSans-109"/>
      <path d="M 34.28125 27.484375 
Q 23.390625 27.484375 19.1875 25 
Q 14.984375 22.515625 14.984375 16.5 
Q 14.984375 11.71875 18.140625 8.90625 
Q 21.296875 6.109375 26.703125 6.109375 
Q 34.1875 6.109375 38.703125 11.40625 
Q 43.21875 16.703125 43.21875 25.484375 
L 43.21875 27.484375 
z
M 52.203125 31.203125 
L 52.203125 0 
L 43.21875 0 
L 43.21875 8.296875 
Q 40.140625 3.328125 35.546875 0.953125 
Q 30.953125 -1.421875 24.3125 -1.421875 
Q 15.921875 -1.421875 10.953125 3.296875 
Q 6 8.015625 6 15.921875 
Q 6 25.140625 12.171875 29.828125 
Q 18.359375 34.515625 30.609375 34.515625 
L 43.21875 34.515625 
L 43.21875 35.40625 
Q 43.21875 41.609375 39.140625 45 
Q 35.0625 48.390625 27.6875 48.390625 
Q 23 48.390625 18.546875 47.265625 
Q 14.109375 46.140625 10.015625 43.890625 
L 10.015625 52.203125 
Q 14.9375 54.109375 19.578125 55.046875 
Q 24.21875 56 28.609375 56 
Q 40.484375 56 46.34375 49.84375 
Q 52.203125 43.703125 52.203125 31.203125 
z
" id="DejaVuSans-97"/>
      <path d="M 45.40625 27.984375 
Q 45.40625 37.75 41.375 43.109375 
Q 37.359375 48.484375 30.078125 48.484375 
Q 22.859375 48.484375 18.828125 43.109375 
Q 14.796875 37.75 14.796875 27.984375 
Q 14.796875 18.265625 18.828125 12.890625 
Q 22.859375 7.515625 30.078125 7.515625 
Q 37.359375 7.515625 41.375 12.890625 
Q 45.40625 18.265625 45.40625 27.984375 
z
M 54.390625 6.78125 
Q 54.390625 -7.171875 48.1875 -13.984375 
Q 42 -20.796875 29.203125 -20.796875 
Q 24.46875 -20.796875 20.265625 -20.09375 
Q 16.0625 -19.390625 12.109375 -17.921875 
L 12.109375 -9.1875 
Q 16.0625 -11.328125 19.921875 -12.34375 
Q 23.78125 -13.375 27.78125 -13.375 
Q 36.625 -13.375 41.015625 -8.765625 
Q 45.40625 -4.15625 45.40625 5.171875 
L 45.40625 9.625 
Q 42.625 4.78125 38.28125 2.390625 
Q 33.9375 0 27.875 0 
Q 17.828125 0 11.671875 7.65625 
Q 5.515625 15.328125 5.515625 27.984375 
Q 5.515625 40.671875 11.671875 48.328125 
Q 17.828125 56 27.875 56 
Q 33.9375 56 38.28125 53.609375 
Q 42.625 51.21875 45.40625 46.390625 
L 45.40625 54.6875 
L 54.390625 54.6875 
z
" id="DejaVuSans-103"/>
      <path d="M 56.203125 29.59375 
L 56.203125 25.203125 
L 14.890625 25.203125 
Q 15.484375 15.921875 20.484375 11.0625 
Q 25.484375 6.203125 34.421875 6.203125 
Q 39.59375 6.203125 44.453125 7.46875 
Q 49.3125 8.734375 54.109375 11.28125 
L 54.109375 2.78125 
Q 49.265625 0.734375 44.1875 -0.34375 
Q 39.109375 -1.421875 33.890625 -1.421875 
Q 20.796875 -1.421875 13.15625 6.1875 
Q 5.515625 13.8125 5.515625 26.8125 
Q 5.515625 40.234375 12.765625 48.109375 
Q 20.015625 56 32.328125 56 
Q 43.359375 56 49.78125 48.890625 
Q 56.203125 41.796875 56.203125 29.59375 
z
M 47.21875 32.234375 
Q 47.125 39.59375 43.09375 43.984375 
Q 39.0625 48.390625 32.421875 48.390625 
Q 24.90625 48.390625 20.390625 44.140625 
Q 15.875 39.890625 15.1875 32.171875 
z
" id="DejaVuSans-101"/>
     </defs>
     <g transform="translate(723.474086 346.410274)scale(0.1 -0.1)">
      <use xlink:href="#DejaVuSans-73"/>
      <use x="29.492188" xlink:href="#DejaVuSans-109"/>
      <use x="126.904297" xlink:href="#DejaVuSans-97"/>
      <use x="188.183594" xlink:href="#DejaVuSans-103"/>
      <use x="251.660156" xlink:href="#DejaVuSans-101"/>
     </g>
    </g>
   </g>
   <g id="matplotlib.axis_2">
    <g id="ytick_1">
     <g id="line2d_19">
      <defs>
       <path d="M 0 0 
L -3.5 0 
" id="md16130b1b1" style="stroke:#000000;stroke-width:0.8;"/>
      </defs>
      <g>
       <use style="stroke:#000000;stroke-width:0.8;" x="49.068485" xlink:href="#md16130b1b1" y="218.398567"/>
      </g>
     </g>
     <g id="text_20">
      <!-- $\mathdefault{10^{1}}$ -->
      <g transform="translate(24.468485 222.197786)scale(0.1 -0.1)">
       <use transform="translate(0 0.684375)" xlink:href="#DejaVuSans-49"/>
       <use transform="translate(63.623047 0.684375)" xlink:href="#DejaVuSans-48"/>
       <use transform="translate(128.203125 38.965625)scale(0.7)" xlink:href="#DejaVuSans-49"/>
      </g>
     </g>
    </g>
    <g id="ytick_2">
     <g id="line2d_20">
      <g>
       <use style="stroke:#000000;stroke-width:0.8;" x="49.068485" xlink:href="#md16130b1b1" y="136.206421"/>
      </g>
     </g>
     <g id="text_21">
      <!-- $\mathdefault{10^{2}}$ -->
      <g transform="translate(24.468485 140.00564)scale(0.1 -0.1)">
       <use transform="translate(0 0.765625)" xlink:href="#DejaVuSans-49"/>
       <use transform="translate(63.623047 0.765625)" xlink:href="#DejaVuSans-48"/>
       <use transform="translate(128.203125 39.046875)scale(0.7)" xlink:href="#DejaVuSans-50"/>
      </g>
     </g>
    </g>
    <g id="ytick_3">
     <g id="line2d_21">
      <g>
       <use style="stroke:#000000;stroke-width:0.8;" x="49.068485" xlink:href="#md16130b1b1" y="54.014276"/>
      </g>
     </g>
     <g id="text_22">
      <!-- $\mathdefault{10^{3}}$ -->
      <g transform="translate(24.468485 57.813495)scale(0.1 -0.1)">
       <use transform="translate(0 0.765625)" xlink:href="#DejaVuSans-49"/>
       <use transform="translate(63.623047 0.765625)" xlink:href="#DejaVuSans-48"/>
       <use transform="translate(128.203125 39.046875)scale(0.7)" xlink:href="#DejaVuSans-51"/>
      </g>
     </g>
    </g>
    <g id="ytick_4">
     <g id="line2d_22">
      <defs>
       <path d="M 0 0 
L -2 0 
" id="m53bf398449" style="stroke:#000000;stroke-width:0.6;"/>
      </defs>
      <g>
       <use style="stroke:#000000;stroke-width:0.6;" x="49.068485" xlink:href="#m53bf398449" y="275.848411"/>
      </g>
     </g>
    </g>
    <g id="ytick_5">
     <g id="line2d_23">
      <g>
       <use style="stroke:#000000;stroke-width:0.6;" x="49.068485" xlink:href="#m53bf398449" y="261.375093"/>
      </g>
     </g>
    </g>
    <g id="ytick_6">
     <g id="line2d_24">
      <g>
       <use style="stroke:#000000;stroke-width:0.6;" x="49.068485" xlink:href="#m53bf398449" y="251.10611"/>
      </g>
     </g>
    </g>
    <g id="ytick_7">
     <g id="line2d_25">
      <g>
       <use style="stroke:#000000;stroke-width:0.6;" x="49.068485" xlink:href="#m53bf398449" y="243.140868"/>
      </g>
     </g>
    </g>
    <g id="ytick_8">
     <g id="line2d_26">
      <g>
       <use style="stroke:#000000;stroke-width:0.6;" x="49.068485" xlink:href="#m53bf398449" y="236.632792"/>
      </g>
     </g>
    </g>
    <g id="ytick_9">
     <g id="line2d_27">
      <g>
       <use style="stroke:#000000;stroke-width:0.6;" x="49.068485" xlink:href="#m53bf398449" y="231.130291"/>
      </g>
     </g>
    </g>
    <g id="ytick_10">
     <g id="line2d_28">
      <g>
       <use style="stroke:#000000;stroke-width:0.6;" x="49.068485" xlink:href="#m53bf398449" y="226.363809"/>
      </g>
     </g>
    </g>
    <g id="ytick_11">
     <g id="line2d_29">
      <g>
       <use style="stroke:#000000;stroke-width:0.6;" x="49.068485" xlink:href="#m53bf398449" y="222.159473"/>
      </g>
     </g>
    </g>
    <g id="ytick_12">
     <g id="line2d_30">
      <g>
       <use style="stroke:#000000;stroke-width:0.6;" x="49.068485" xlink:href="#m53bf398449" y="193.656266"/>
      </g>
     </g>
    </g>
    <g id="ytick_13">
     <g id="line2d_31">
      <g>
       <use style="stroke:#000000;stroke-width:0.6;" x="49.068485" xlink:href="#m53bf398449" y="179.182947"/>
      </g>
     </g>
    </g>
    <g id="ytick_14">
     <g id="line2d_32">
      <g>
       <use style="stroke:#000000;stroke-width:0.6;" x="49.068485" xlink:href="#m53bf398449" y="168.913964"/>
      </g>
     </g>
    </g>
    <g id="ytick_15">
     <g id="line2d_33">
      <g>
       <use style="stroke:#000000;stroke-width:0.6;" x="49.068485" xlink:href="#m53bf398449" y="160.948723"/>
      </g>
     </g>
    </g>
    <g id="ytick_16">
     <g id="line2d_34">
      <g>
       <use style="stroke:#000000;stroke-width:0.6;" x="49.068485" xlink:href="#m53bf398449" y="154.440646"/>
      </g>
     </g>
    </g>
    <g id="ytick_17">
     <g id="line2d_35">
      <g>
       <use style="stroke:#000000;stroke-width:0.6;" x="49.068485" xlink:href="#m53bf398449" y="148.938146"/>
      </g>
     </g>
    </g>
    <g id="ytick_18">
     <g id="line2d_36">
      <g>
       <use style="stroke:#000000;stroke-width:0.6;" x="49.068485" xlink:href="#m53bf398449" y="144.171663"/>
      </g>
     </g>
    </g>
    <g id="ytick_19">
     <g id="line2d_37">
      <g>
       <use style="stroke:#000000;stroke-width:0.6;" x="49.068485" xlink:href="#m53bf398449" y="139.967328"/>
      </g>
     </g>
    </g>
    <g id="ytick_20">
     <g id="line2d_38">
      <g>
       <use style="stroke:#000000;stroke-width:0.6;" x="49.068485" xlink:href="#m53bf398449" y="111.46412"/>
      </g>
     </g>
    </g>
    <g id="ytick_21">
     <g id="line2d_39">
      <g>
       <use style="stroke:#000000;stroke-width:0.6;" x="49.068485" xlink:href="#m53bf398449" y="96.990802"/>
      </g>
     </g>
    </g>
    <g id="ytick_22">
     <g id="line2d_40">
      <g>
       <use style="stroke:#000000;stroke-width:0.6;" x="49.068485" xlink:href="#m53bf398449" y="86.721819"/>
      </g>
     </g>
    </g>
    <g id="ytick_23">
     <g id="line2d_41">
      <g>
       <use style="stroke:#000000;stroke-width:0.6;" x="49.068485" xlink:href="#m53bf398449" y="78.756577"/>
      </g>
     </g>
    </g>
    <g id="ytick_24">
     <g id="line2d_42">
      <g>
       <use style="stroke:#000000;stroke-width:0.6;" x="49.068485" xlink:href="#m53bf398449" y="72.248501"/>
      </g>
     </g>
    </g>
    <g id="ytick_25">
     <g id="line2d_43">
      <g>
       <use style="stroke:#000000;stroke-width:0.6;" x="49.068485" xlink:href="#m53bf398449" y="66.746"/>
      </g>
     </g>
    </g>
    <g id="ytick_26">
     <g id="line2d_44">
      <g>
       <use style="stroke:#000000;stroke-width:0.6;" x="49.068485" xlink:href="#m53bf398449" y="61.979518"/>
      </g>
     </g>
    </g>
    <g id="ytick_27">
     <g id="line2d_45">
      <g>
       <use style="stroke:#000000;stroke-width:0.6;" x="49.068485" xlink:href="#m53bf398449" y="57.775182"/>
      </g>
     </g>
    </g>
    <g id="ytick_28">
     <g id="line2d_46">
      <g>
       <use style="stroke:#000000;stroke-width:0.6;" x="49.068485" xlink:href="#m53bf398449" y="29.271975"/>
      </g>
     </g>
    </g>
    <g id="ytick_29">
     <g id="line2d_47">
      <g>
       <use style="stroke:#000000;stroke-width:0.6;" x="49.068485" xlink:href="#m53bf398449" y="14.798656"/>
      </g>
     </g>
    </g>
    <g id="text_23">
     <!-- Speed-up factor -->
     <defs>
      <path d="M 53.515625 70.515625 
L 53.515625 60.890625 
Q 47.90625 63.578125 42.921875 64.890625 
Q 37.9375 66.21875 33.296875 66.21875 
Q 25.25 66.21875 20.875 63.09375 
Q 16.5 59.96875 16.5 54.203125 
Q 16.5 49.359375 19.40625 46.890625 
Q 22.3125 44.4375 30.421875 42.921875 
L 36.375 41.703125 
Q 47.40625 39.59375 52.65625 34.296875 
Q 57.90625 29 57.90625 20.125 
Q 57.90625 9.515625 50.796875 4.046875 
Q 43.703125 -1.421875 29.984375 -1.421875 
Q 24.8125 -1.421875 18.96875 -0.25 
Q 13.140625 0.921875 6.890625 3.21875 
L 6.890625 13.375 
Q 12.890625 10.015625 18.65625 8.296875 
Q 24.421875 6.59375 29.984375 6.59375 
Q 38.421875 6.59375 43.015625 9.90625 
Q 47.609375 13.234375 47.609375 19.390625 
Q 47.609375 24.75 44.3125 27.78125 
Q 41.015625 30.8125 33.5 32.328125 
L 27.484375 33.5 
Q 16.453125 35.6875 11.515625 40.375 
Q 6.59375 45.0625 6.59375 53.421875 
Q 6.59375 63.09375 13.40625 68.65625 
Q 20.21875 74.21875 32.171875 74.21875 
Q 37.3125 74.21875 42.625 73.28125 
Q 47.953125 72.359375 53.515625 70.515625 
z
" id="DejaVuSans-83"/>
      <path d="M 18.109375 8.203125 
L 18.109375 -20.796875 
L 9.078125 -20.796875 
L 9.078125 54.6875 
L 18.109375 54.6875 
L 18.109375 46.390625 
Q 20.953125 51.265625 25.265625 53.625 
Q 29.59375 56 35.59375 56 
Q 45.5625 56 51.78125 48.09375 
Q 58.015625 40.1875 58.015625 27.296875 
Q 58.015625 14.40625 51.78125 6.484375 
Q 45.5625 -1.421875 35.59375 -1.421875 
Q 29.59375 -1.421875 25.265625 0.953125 
Q 20.953125 3.328125 18.109375 8.203125 
z
M 48.6875 27.296875 
Q 48.6875 37.203125 44.609375 42.84375 
Q 40.53125 48.484375 33.40625 48.484375 
Q 26.265625 48.484375 22.1875 42.84375 
Q 18.109375 37.203125 18.109375 27.296875 
Q 18.109375 17.390625 22.1875 11.75 
Q 26.265625 6.109375 33.40625 6.109375 
Q 40.53125 6.109375 44.609375 11.75 
Q 48.6875 17.390625 48.6875 27.296875 
z
" id="DejaVuSans-112"/>
      <path d="M 45.40625 46.390625 
L 45.40625 75.984375 
L 54.390625 75.984375 
L 54.390625 0 
L 45.40625 0 
L 45.40625 8.203125 
Q 42.578125 3.328125 38.25 0.953125 
Q 33.9375 -1.421875 27.875 -1.421875 
Q 17.96875 -1.421875 11.734375 6.484375 
Q 5.515625 14.40625 5.515625 27.296875 
Q 5.515625 40.1875 11.734375 48.09375 
Q 17.96875 56 27.875 56 
Q 33.9375 56 38.25 53.625 
Q 42.578125 51.265625 45.40625 46.390625 
z
M 14.796875 27.296875 
Q 14.796875 17.390625 18.875 11.75 
Q 22.953125 6.109375 30.078125 6.109375 
Q 37.203125 6.109375 41.296875 11.75 
Q 45.40625 17.390625 45.40625 27.296875 
Q 45.40625 37.203125 41.296875 42.84375 
Q 37.203125 48.484375 30.078125 48.484375 
Q 22.953125 48.484375 18.875 42.84375 
Q 14.796875 37.203125 14.796875 27.296875 
z
" id="DejaVuSans-100"/>
      <path d="M 4.890625 31.390625 
L 31.203125 31.390625 
L 31.203125 23.390625 
L 4.890625 23.390625 
z
" id="DejaVuSans-45"/>
      <path d="M 8.5 21.578125 
L 8.5 54.6875 
L 17.484375 54.6875 
L 17.484375 21.921875 
Q 17.484375 14.15625 20.5 10.265625 
Q 23.53125 6.390625 29.59375 6.390625 
Q 36.859375 6.390625 41.078125 11.03125 
Q 45.3125 15.671875 45.3125 23.6875 
L 45.3125 54.6875 
L 54.296875 54.6875 
L 54.296875 0 
L 45.3125 0 
L 45.3125 8.40625 
Q 42.046875 3.421875 37.71875 1 
Q 33.40625 -1.421875 27.6875 -1.421875 
Q 18.265625 -1.421875 13.375 4.4375 
Q 8.5 10.296875 8.5 21.578125 
z
M 31.109375 56 
z
" id="DejaVuSans-117"/>
      <path id="DejaVuSans-32"/>
      <path d="M 37.109375 75.984375 
L 37.109375 68.5 
L 28.515625 68.5 
Q 23.6875 68.5 21.796875 66.546875 
Q 19.921875 64.59375 19.921875 59.515625 
L 19.921875 54.6875 
L 34.71875 54.6875 
L 34.71875 47.703125 
L 19.921875 47.703125 
L 19.921875 0 
L 10.890625 0 
L 10.890625 47.703125 
L 2.296875 47.703125 
L 2.296875 54.6875 
L 10.890625 54.6875 
L 10.890625 58.5 
Q 10.890625 67.625 15.140625 71.796875 
Q 19.390625 75.984375 28.609375 75.984375 
z
" id="DejaVuSans-102"/>
      <path d="M 48.78125 52.59375 
L 48.78125 44.1875 
Q 44.96875 46.296875 41.140625 47.34375 
Q 37.3125 48.390625 33.40625 48.390625 
Q 24.65625 48.390625 19.8125 42.84375 
Q 14.984375 37.3125 14.984375 27.296875 
Q 14.984375 17.28125 19.8125 11.734375 
Q 24.65625 6.203125 33.40625 6.203125 
Q 37.3125 6.203125 41.140625 7.25 
Q 44.96875 8.296875 48.78125 10.40625 
L 48.78125 2.09375 
Q 45.015625 0.34375 40.984375 -0.53125 
Q 36.96875 -1.421875 32.421875 -1.421875 
Q 20.0625 -1.421875 12.78125 6.34375 
Q 5.515625 14.109375 5.515625 27.296875 
Q 5.515625 40.671875 12.859375 48.328125 
Q 20.21875 56 33.015625 56 
Q 37.15625 56 41.109375 55.140625 
Q 45.0625 54.296875 48.78125 52.59375 
z
" id="DejaVuSans-99"/>
      <path d="M 18.3125 70.21875 
L 18.3125 54.6875 
L 36.8125 54.6875 
L 36.8125 47.703125 
L 18.3125 47.703125 
L 18.3125 18.015625 
Q 18.3125 11.328125 20.140625 9.421875 
Q 21.96875 7.515625 27.59375 7.515625 
L 36.8125 7.515625 
L 36.8125 0 
L 27.59375 0 
Q 17.1875 0 13.234375 3.875 
Q 9.28125 7.765625 9.28125 18.015625 
L 9.28125 47.703125 
L 2.6875 47.703125 
L 2.6875 54.6875 
L 9.28125 54.6875 
L 9.28125 70.21875 
z
" id="DejaVuSans-116"/>
      <path d="M 30.609375 48.390625 
Q 23.390625 48.390625 19.1875 42.75 
Q 14.984375 37.109375 14.984375 27.296875 
Q 14.984375 17.484375 19.15625 11.84375 
Q 23.34375 6.203125 30.609375 6.203125 
Q 37.796875 6.203125 41.984375 11.859375 
Q 46.1875 17.53125 46.1875 27.296875 
Q 46.1875 37.015625 41.984375 42.703125 
Q 37.796875 48.390625 30.609375 48.390625 
z
M 30.609375 56 
Q 42.328125 56 49.015625 48.375 
Q 55.71875 40.765625 55.71875 27.296875 
Q 55.71875 13.875 49.015625 6.21875 
Q 42.328125 -1.421875 30.609375 -1.421875 
Q 18.84375 -1.421875 12.171875 6.21875 
Q 5.515625 13.875 5.515625 27.296875 
Q 5.515625 40.765625 12.171875 48.375 
Q 18.84375 56 30.609375 56 
z
" id="DejaVuSans-111"/>
      <path d="M 41.109375 46.296875 
Q 39.59375 47.171875 37.8125 47.578125 
Q 36.03125 48 33.890625 48 
Q 26.265625 48 22.1875 43.046875 
Q 18.109375 38.09375 18.109375 28.8125 
L 18.109375 0 
L 9.078125 0 
L 9.078125 54.6875 
L 18.109375 54.6875 
L 18.109375 46.1875 
Q 20.953125 51.171875 25.484375 53.578125 
Q 30.03125 56 36.53125 56 
Q 37.453125 56 38.578125 55.875 
Q 39.703125 55.765625 41.0625 55.515625 
z
" id="DejaVuSans-114"/>
     </defs>
     <g transform="translate(18.388797 186.575323)rotate(-90)scale(0.1 -0.1)">
      <use xlink:href="#DejaVuSans-83"/>
      <use x="63.476562" xlink:href="#DejaVuSans-112"/>
      <use x="126.953125" xlink:href="#DejaVuSans-101"/>
      <use x="188.476562" xlink:href="#DejaVuSans-101"/>
      <use x="250" xlink:href="#DejaVuSans-100"/>
      <use x="313.476562" xlink:href="#DejaVuSans-45"/>
      <use x="349.560547" xlink:href="#DejaVuSans-117"/>
      <use x="412.939453" xlink:href="#DejaVuSans-112"/>
      <use x="476.416016" xlink:href="#DejaVuSans-32"/>
      <use x="508.203125" xlink:href="#DejaVuSans-102"/>
      <use x="543.408203" xlink:href="#DejaVuSans-97"/>
      <use x="604.6875" xlink:href="#DejaVuSans-99"/>
      <use x="659.667969" xlink:href="#DejaVuSans-116"/>
      <use x="698.876953" xlink:href="#DejaVuSans-111"/>
      <use x="760.058594" xlink:href="#DejaVuSans-114"/>
     </g>
    </g>
   </g>
   <g id="line2d_48">
    <path clip-path="url(#p199d7fc41d)" d="M 668.647444 282.230334 
L 668.647444 10.8 
" style="fill:none;stroke:#808080;stroke-dasharray:5.55,2.4;stroke-dashoffset:0;stroke-width:1.5;"/>
   </g>
   <g id="line2d_49">
    <path clip-path="url(#p199d7fc41d)" d="M 1091.568235 282.230334 
L 1091.568235 10.8 
" style="fill:none;stroke:#808080;stroke-dasharray:5.55,2.4;stroke-dashoffset:0;stroke-width:1.5;"/>
   </g>
   <g id="patch_93">
    <path d="M 49.068485 282.230334 
L 49.068485 10.8 
" style="fill:none;stroke:#000000;stroke-linecap:square;stroke-linejoin:miter;stroke-width:0.8;"/>
   </g>
   <g id="patch_94">
    <path d="M 1429.2 282.230334 
L 1429.2 10.8 
" style="fill:none;stroke:#000000;stroke-linecap:square;stroke-linejoin:miter;stroke-width:0.8;"/>
   </g>
   <g id="patch_95">
    <path d="M 49.068485 282.230334 
L 1429.2 282.230334 
" style="fill:none;stroke:#000000;stroke-linecap:square;stroke-linejoin:miter;stroke-width:0.8;"/>
   </g>
   <g id="patch_96">
    <path d="M 49.068485 10.8 
L 1429.2 10.8 
" style="fill:none;stroke:#000000;stroke-linecap:square;stroke-linejoin:miter;stroke-width:0.8;"/>
   </g>
   <g id="legend_1">
    <g id="patch_97">
     <path d="M 1343.715625 92.190625 
L 1422.2 92.190625 
Q 1424.2 92.190625 1424.2 90.190625 
L 1424.2 17.8 
Q 1424.2 15.8 1422.2 15.8 
L 1343.715625 15.8 
Q 1341.715625 15.8 1341.715625 17.8 
L 1341.715625 90.190625 
Q 1341.715625 92.190625 1343.715625 92.190625 
z
" style="fill:#ffffff;opacity:0.8;stroke:#cccccc;stroke-linejoin:miter;"/>
    </g>
    <g id="patch_98">
     <path d="M 1345.715625 27.398437 
L 1365.715625 27.398437 
L 1365.715625 20.398437 
L 1345.715625 20.398437 
z
" style="fill:#ff0000;stroke:#ffffff;stroke-linejoin:miter;"/>
    </g>
    <g id="text_24">
     <!-- YZ -->
     <defs>
      <path d="M -0.203125 72.90625 
L 10.40625 72.90625 
L 30.609375 42.921875 
L 50.6875 72.90625 
L 61.28125 72.90625 
L 35.5 34.71875 
L 35.5 0 
L 25.59375 0 
L 25.59375 34.71875 
z
" id="DejaVuSans-89"/>
      <path d="M 5.609375 72.90625 
L 62.890625 72.90625 
L 62.890625 65.375 
L 16.796875 8.296875 
L 64.015625 8.296875 
L 64.015625 0 
L 4.5 0 
L 4.5 7.515625 
L 50.59375 64.59375 
L 5.609375 64.59375 
z
" id="DejaVuSans-90"/>
     </defs>
     <g transform="translate(1373.715625 27.398437)scale(0.1 -0.1)">
      <use xlink:href="#DejaVuSans-89"/>
      <use x="61.083984" xlink:href="#DejaVuSans-90"/>
     </g>
    </g>
    <g id="patch_99">
     <path d="M 1345.715625 42.076562 
L 1365.715625 42.076562 
L 1365.715625 35.076562 
L 1345.715625 35.076562 
z
" style="fill:#0000ff;stroke:#ffffff;stroke-linejoin:miter;"/>
    </g>
    <g id="text_25">
     <!-- Z -->
     <g transform="translate(1373.715625 42.076562)scale(0.1 -0.1)">
      <use xlink:href="#DejaVuSans-90"/>
     </g>
    </g>
    <g id="patch_100">
     <path d="M 1345.715625 56.754687 
L 1365.715625 56.754687 
L 1365.715625 49.754687 
L 1345.715625 49.754687 
z
" style="fill:#bfbf00;stroke:#ffffff;stroke-linejoin:miter;"/>
    </g>
    <g id="text_26">
     <!-- Region S -->
     <defs>
      <path d="M 44.390625 34.1875 
Q 47.5625 33.109375 50.5625 29.59375 
Q 53.5625 26.078125 56.59375 19.921875 
L 66.609375 0 
L 56 0 
L 46.6875 18.703125 
Q 43.0625 26.03125 39.671875 28.421875 
Q 36.28125 30.8125 30.421875 30.8125 
L 19.671875 30.8125 
L 19.671875 0 
L 9.8125 0 
L 9.8125 72.90625 
L 32.078125 72.90625 
Q 44.578125 72.90625 50.734375 67.671875 
Q 56.890625 62.453125 56.890625 51.90625 
Q 56.890625 45.015625 53.6875 40.46875 
Q 50.484375 35.9375 44.390625 34.1875 
z
M 19.671875 64.796875 
L 19.671875 38.921875 
L 32.078125 38.921875 
Q 39.203125 38.921875 42.84375 42.21875 
Q 46.484375 45.515625 46.484375 51.90625 
Q 46.484375 58.296875 42.84375 61.546875 
Q 39.203125 64.796875 32.078125 64.796875 
z
" id="DejaVuSans-82"/>
      <path d="M 9.421875 54.6875 
L 18.40625 54.6875 
L 18.40625 0 
L 9.421875 0 
z
M 9.421875 75.984375 
L 18.40625 75.984375 
L 18.40625 64.59375 
L 9.421875 64.59375 
z
" id="DejaVuSans-105"/>
      <path d="M 54.890625 33.015625 
L 54.890625 0 
L 45.90625 0 
L 45.90625 32.71875 
Q 45.90625 40.484375 42.875 44.328125 
Q 39.84375 48.1875 33.796875 48.1875 
Q 26.515625 48.1875 22.3125 43.546875 
Q 18.109375 38.921875 18.109375 30.90625 
L 18.109375 0 
L 9.078125 0 
L 9.078125 54.6875 
L 18.109375 54.6875 
L 18.109375 46.1875 
Q 21.34375 51.125 25.703125 53.5625 
Q 30.078125 56 35.796875 56 
Q 45.21875 56 50.046875 50.171875 
Q 54.890625 44.34375 54.890625 33.015625 
z
" id="DejaVuSans-110"/>
     </defs>
     <g transform="translate(1373.715625 56.754687)scale(0.1 -0.1)">
      <use xlink:href="#DejaVuSans-82"/>
      <use x="69.419922" xlink:href="#DejaVuSans-101"/>
      <use x="130.943359" xlink:href="#DejaVuSans-103"/>
      <use x="194.419922" xlink:href="#DejaVuSans-105"/>
      <use x="222.203125" xlink:href="#DejaVuSans-111"/>
      <use x="283.384766" xlink:href="#DejaVuSans-110"/>
      <use x="346.763672" xlink:href="#DejaVuSans-32"/>
      <use x="378.550781" xlink:href="#DejaVuSans-83"/>
     </g>
    </g>
    <g id="patch_101">
     <path d="M 1345.715625 71.432812 
L 1365.715625 71.432812 
L 1365.715625 64.432812 
L 1345.715625 64.432812 
z
" style="fill:#008000;stroke:#ffffff;stroke-linejoin:miter;"/>
    </g>
    <g id="text_27">
     <!-- Region M -->
     <defs>
      <path d="M 9.8125 72.90625 
L 24.515625 72.90625 
L 43.109375 23.296875 
L 61.8125 72.90625 
L 76.515625 72.90625 
L 76.515625 0 
L 66.890625 0 
L 66.890625 64.015625 
L 48.09375 14.015625 
L 38.1875 14.015625 
L 19.390625 64.015625 
L 19.390625 0 
L 9.8125 0 
z
" id="DejaVuSans-77"/>
     </defs>
     <g transform="translate(1373.715625 71.432812)scale(0.1 -0.1)">
      <use xlink:href="#DejaVuSans-82"/>
      <use x="69.419922" xlink:href="#DejaVuSans-101"/>
      <use x="130.943359" xlink:href="#DejaVuSans-103"/>
      <use x="194.419922" xlink:href="#DejaVuSans-105"/>
      <use x="222.203125" xlink:href="#DejaVuSans-111"/>
      <use x="283.384766" xlink:href="#DejaVuSans-110"/>
      <use x="346.763672" xlink:href="#DejaVuSans-32"/>
      <use x="378.550781" xlink:href="#DejaVuSans-77"/>
     </g>
    </g>
    <g id="patch_102">
     <path d="M 1345.715625 86.110937 
L 1365.715625 86.110937 
L 1365.715625 79.110937 
L 1345.715625 79.110937 
z
" style="fill:#00bfbf;stroke:#ffffff;stroke-linejoin:miter;"/>
    </g>
    <g id="text_28">
     <!-- Region L -->
     <defs>
      <path d="M 9.8125 72.90625 
L 19.671875 72.90625 
L 19.671875 8.296875 
L 55.171875 8.296875 
L 55.171875 0 
L 9.8125 0 
z
" id="DejaVuSans-76"/>
     </defs>
     <g transform="translate(1373.715625 86.110937)scale(0.1 -0.1)">
      <use xlink:href="#DejaVuSans-82"/>
      <use x="69.419922" xlink:href="#DejaVuSans-101"/>
      <use x="130.943359" xlink:href="#DejaVuSans-103"/>
      <use x="194.419922" xlink:href="#DejaVuSans-105"/>
      <use x="222.203125" xlink:href="#DejaVuSans-111"/>
      <use x="283.384766" xlink:href="#DejaVuSans-110"/>
      <use x="346.763672" xlink:href="#DejaVuSans-32"/>
      <use x="378.550781" xlink:href="#DejaVuSans-76"/>
     </g>
    </g>
   </g>
  </g>
 </g>
 <defs>
  <clipPath id="p199d7fc41d">
   <rect height="271.430334" width="1380.131515" x="49.068485" y="10.8"/>
  </clipPath>
 </defs>
</svg>
